<svg width="196" height="32" viewBox="0 0 196 32" fill="none" xmlns="http://www.w3.org/2000/svg">
<path d="M184.023 -3.19284C183.138 -3.40978 182.245 -3.29 181.353 -3.21147C179.412 -3.91155 177.523 -4.74805 175.588 -5.46543C173.341 -6.08099 170.909 -6.1502 168.596 -6.43702C167.285 -6.49159 165.667 -6.61936 164.301 -6.79371C163.314 -6.90085 162.307 -6.84429 161.328 -7.03395C160.353 -7.15839 159.745 -7.97226 159.106 -8.63041C158.728 -9.00574 158.378 -9.40369 158.043 -9.81429C157.762 -10.7426 157.502 -11.6829 157.077 -12.5946C156.774 -13.1456 156.749 -14.0281 156.085 -14.3002C152.493 -15.007 149.034 -16.1403 145.46 -16.9448C140.868 -18.1453 136.444 -20.0233 131.727 -20.7147C131.211 -21.1027 130.696 -21.4927 130.182 -21.8833C129.592 -22.7251 128.992 -23.5663 128.118 -24.1459C127.045 -24.8966 125.952 -25.6412 124.819 -26.3027C124.601 -26.4172 124.38 -26.5196 124.159 -26.6121C124.051 -26.6987 123.943 -26.7865 123.834 -26.875C123.455 -27.1651 123.296 -27.5178 122.846 -27.7541C122.319 -27.981 121.81 -27.6889 121.305 -27.4966C121.039 -27.5718 120.773 -27.6489 120.507 -27.7355C116.161 -28.6718 111.659 -28.2931 107.242 -28.4442C105.857 -28.5147 104.532 -28.5693 103.101 -28.6844C101.212 -28.8515 99.3198 -28.9972 97.4367 -29.2421C93.4419 -29.6167 89.4317 -29.8157 85.4308 -30.1272C84.1739 -30.2363 82.9135 -30.2796 81.6572 -30.392C80.4023 -30.5404 79.1473 -30.782 77.881 -30.6249C77.5766 -30.599 77.2193 -30.567 76.9552 -30.3474C76.6227 -29.9575 76.2258 -29.6627 75.7934 -29.3852C74.7429 -28.6139 73.618 -27.989 72.6165 -27.1246C71.9535 -26.5695 71.2583 -25.8156 70.5959 -25.2339C69.9463 -24.9618 69.3088 -24.6483 68.7396 -24.2337C67.5356 -23.9143 66.3303 -23.5676 65.0921 -23.4119C63.4242 -23.3706 61.6336 -23.6781 60.2694 -24.6836C59.9818 -25.1095 59.5138 -25.1934 59.1284 -25.025C57.5034 -25.0077 55.8857 -24.5711 54.2493 -24.462C52.9226 -24.2843 51.6261 -23.911 50.2847 -23.8398C48.6007 -23.7706 46.9019 -23.5317 45.1971 -23.3992C43.9496 -23.3586 42.6993 -23.2815 41.4899 -22.9527C38.018 -22.1482 35.0268 -20.0013 32.3017 -17.8053C31.457 -16.8962 30.5332 -16.0631 29.7086 -15.1374C28.6715 -13.8351 27.6184 -12.5514 26.5397 -11.2763C24.9 -9.40037 23.2066 -7.19499 21.605 -5.42417C20.69 -4.79996 19.6361 -4.36208 18.6594 -3.80574C16.0663 -2.52071 13.5383 -0.9695 10.9004 0.244322C9.56228 0.851898 8.22687 1.46547 6.87739 2.04709C6.28544 2.34589 4.45262 3.09587 4.54915 3.94035C4.22804 4.14665 3.90693 4.35295 3.58514 4.55725C3.02135 4.97117 3.44905 5.62999 3.74 6.0732C4.39765 7.2005 5.17663 8.19871 5.92612 9.27345C5.92813 9.27678 5.93148 9.28077 5.93349 9.28343C5.93886 9.29142 5.94489 9.30007 5.95025 9.30806C7.88766 12.143 9.93166 15.0504 12.5247 17.3543C11.8335 18.5135 14.5191 19.5843 15.3463 19.905C15.53 19.933 15.6299 20.0794 15.7546 20.2012C15.9912 20.4381 16.2936 20.5705 16.616 20.649C17.2703 21.2679 18.3141 21.1495 19.1514 21.3098C21.1183 21.584 23.1295 21.6499 25.093 21.3265C25.8908 21.2153 26.6423 20.9418 27.3603 20.5858C27.8155 20.4241 28.2566 20.1446 28.7533 20.1726C29.1448 20.1805 29.5672 19.9423 29.9231 20.1712C31.0829 20.834 31.9805 21.8442 32.7408 22.921C32.85 23.6071 33.139 24.2918 33.5727 24.8555C33.4856 24.9101 33.4313 25.0112 33.4802 25.1177C33.5372 25.2262 33.6371 25.2974 33.7504 25.3453C33.9019 25.4078 34.056 25.4631 34.2116 25.509C34.3208 25.5968 34.4362 25.6773 34.5568 25.7505C34.8572 25.8816 35.1481 25.8577 35.3975 25.7359C35.6127 25.7599 35.8285 25.7745 36.0437 25.7845C38.1005 25.843 40.1458 25.4198 42.2066 25.5981C44.0561 25.5176 45.95 25.2927 47.7433 25.9043C50.0313 27.2565 52.7865 27.375 55.3662 27.6485C56.6754 27.5846 57.976 27.0915 59.249 27.5959C61.7703 27.9473 64.2742 26.9597 66.6494 26.2303C68.9019 25.473 71.1222 24.6006 73.2875 23.6117C73.2969 23.7095 73.3633 23.7901 73.4973 23.852C73.6502 23.8972 73.8037 23.7601 73.8372 23.613C74.4962 23.1878 75.2759 23.0188 76.0066 22.7559C77.6551 22.1051 79.3176 21.4842 80.9688 20.8334C82.7627 20.1765 84.4474 19.2742 86.2688 18.6832C90.6873 17.5825 94.9824 15.9055 99.2622 14.3424C99.7576 14.1534 103.274 12.8131 106.055 11.4016C106.964 11.2086 107.869 10.9777 108.775 10.8087C110.545 10.4713 112.335 10.5871 114.117 10.7488C115.13 10.7901 116.13 10.9584 117.137 11.0616C117.969 11.1574 118.859 11.1927 119.652 11.5593C122.168 12.7372 124.841 13.5611 127.316 14.8162C128.142 15.1815 128.96 15.5928 129.858 15.7478C131.216 15.8516 132.53 16.1564 133.851 16.4719C133.851 16.5111 133.853 16.5484 133.855 16.5857C133.93 17.4448 134.643 18.077 135.208 18.6693C135.521 19.0226 135.64 19.4971 135.922 19.8718C135.935 20.1892 135.903 20.5925 136.198 20.7968C136.369 20.9239 136.58 20.8327 136.694 20.6677C136.698 20.6623 136.702 20.657 136.704 20.6524C136.962 20.6856 137.231 20.3975 137.192 20.1333C137.169 19.9609 137.097 19.7999 137.018 19.6435C137.047 19.6022 137.076 19.563 137.103 19.529C137.574 18.9494 137.831 18.2407 138.112 17.5599C139.722 17.4514 141.308 17.1533 142.823 16.5976C145.696 16.1358 148.501 15.3499 151.314 14.6125C154.043 13.8832 154.243 15.4903 156.715 12.891C157.034 12.8743 157.304 12.6361 157.546 12.4411C158.233 11.8821 158.893 11.3238 159.536 10.7062C160.878 9.39723 162.323 8.17742 163.467 6.68609C165.273 6.16503 166.934 5.1981 168.617 4.34895C169.049 4.1014 169.768 4.02287 170.142 3.585C172.298 2.88691 174.493 2.24074 176.476 1.12408C178.436 0.845911 180.227 0.00475311 182.108 -0.549585C182.308 -0.553577 182.482 -0.638094 182.616 -0.766529C182.661 -0.774515 182.705 -0.783165 182.75 -0.792482C183.58 -0.998779 184.612 -1.30024 185.013 -2.11345C185.217 -2.70638 184.582 -3.20548 184.025 -3.19417L184.023 -3.19284Z" fill="#97755A"/>
<g style="mix-blend-mode:soft-light">
<path d="M59.1115 1.11272C56.8282 1.24049 54.5073 1.51134 52.2347 1.16063C49.8488 0.791963 47.2189 0.816583 45.0576 1.99048C44.4683 2.39708 44.7338 3.22027 44.7854 3.8172C44.8786 4.30166 44.9054 4.90258 45.2614 5.27125C45.6415 5.44161 45.734 5.0237 45.5651 4.75551C45.3633 4.17655 45.5121 3.55301 45.6153 2.96872C48.022 2.91016 50.4441 3.3121 52.8414 2.93079C53.7055 2.80169 54.5287 2.62134 55.4063 2.54415C57.1861 2.4969 59.0263 2.31723 60.764 2.78705C62.9441 3.62089 64.4752 2.91016 66.5199 2.17348C65.5096 1.63312 64.4578 0.983618 63.2752 0.88779C61.8889 0.834552 60.4931 0.988275 59.1122 1.11338L59.1115 1.11272Z" fill="white"/>
<path d="M69.5824 2.22058C69.0662 3.03246 70.2259 3.1376 70.7817 3.13827C71.6639 3.15424 72.5689 2.96924 73.3841 2.66911C72.4583 2.24055 70.4606 1.52716 69.5824 2.22058Z" fill="white"/>
<path d="M118.937 3.40323C117.798 3.36197 116.675 3.11308 115.534 3.08779C115.115 3.04587 114.723 3.20292 114.318 3.26215C112.993 3.11441 111.749 2.55941 110.427 2.37441C108.011 1.83804 105.557 2.76704 103.105 2.46159C101.208 2.25862 99.3293 1.88529 97.4241 1.75818C91.8063 1.54457 86.1998 2.10556 80.6035 2.50684C79.7876 2.57205 78.9657 2.62263 78.1579 2.76371C78.0011 2.79033 77.8918 2.94206 77.9186 3.09911C77.9454 3.25882 78.0996 3.35997 78.2571 3.33735C78.6326 3.28744 79.01 3.25283 79.3887 3.22887C83.3742 3.10243 87.3931 2.77037 91.341 3.50305C93.6257 3.89036 95.9613 4.20579 98.2882 4.10863C100.691 3.98352 103.089 3.73796 105.497 3.77989C107.24 3.73064 108.847 4.5911 110.598 4.51723C112.347 4.6084 114.07 3.98951 115.799 4.39079C116.986 4.48995 118.165 4.27367 119.339 4.11994C119.909 4.09532 120.482 4.21644 121.054 4.16586C121.488 4.13658 121.934 4.0687 122.337 3.92363C121.866 3.6062 121.332 3.38127 120.767 3.29675C120.149 3.16033 119.547 3.344 118.937 3.40389V3.40323Z" fill="white"/>
<path d="M124.6 3.93555C124.329 3.97681 124.232 4.32818 124.43 4.50919C124.634 4.70151 124.979 4.55244 124.994 4.27095C125.018 4.05467 124.805 3.89296 124.6 3.93555Z" fill="white"/>
<path d="M138.011 1.43351C137.058 1.5127 136.108 1.5899 135.154 1.47477C134.333 1.41754 133.445 1.351 132.686 1.73364C131.779 2.15156 131.116 3.04529 131.042 4.04283C131.034 4.79681 130.802 5.54014 130.795 6.28481C130.844 6.91368 131.77 6.8651 131.755 6.24488C131.808 5.70784 132.184 5.23802 132.409 4.75356C132.616 4.41749 132.876 4.11071 133.232 3.92305C134.107 3.48583 135.113 3.44258 136.059 3.25358C137.247 3.04596 138.459 2.83566 139.665 3.022C143.828 3.90974 144.553 3.80925 148.672 2.83832C146.883 2.33789 145.134 1.4781 143.232 1.63915C141.486 1.84677 139.759 1.34567 138.01 1.43418L138.011 1.43351Z" fill="white"/>
<path d="M152.996 2.15883C152.425 2.10692 151.726 2.2673 152.042 2.98201C152.158 3.16635 152.359 3.24354 152.56 3.21826C153.303 3.35135 153.999 3.68609 154.752 3.77725C155.991 3.93231 157.163 3.3234 158.309 2.94009C157.38 2.62931 156.416 2.26331 155.425 2.14685C154.617 2.04703 153.805 2.16548 152.996 2.15949V2.15883Z" fill="white"/>
<path d="M160.87 2.89669C160.736 2.93129 160.579 2.96124 160.459 3.03577C160.255 3.15556 160.232 3.49295 160.478 3.57614C161.194 3.61606 161.894 3.81371 162.591 3.9854C164.705 4.68947 166.235 4.02333 168.11 3.09101C165.363 1.74476 163.687 2.16467 160.87 2.89602L160.87 2.89669Z" fill="white"/>
<path d="M37.0232 2.79552C35.9882 2.5453 34.9048 2.79685 33.8577 2.6398C32.6912 2.28643 31.4765 2.3989 30.2752 2.39091C28.6448 2.38359 27.0225 2.1001 25.3981 1.97299C24.8652 1.95569 24.3141 1.87517 23.7899 1.93906C23.57 2.05352 23.5908 2.2831 23.8086 2.37361C25.1273 2.40755 26.4359 2.61451 27.7378 2.85807C29.2233 3.13957 30.7122 3.19147 32.2099 3.39644C33.5929 3.79439 34.8452 4.63289 36.3227 4.72872C36.7155 5.11669 37.2143 5.42214 37.7741 5.48203C38.4357 4.62091 38.1327 3.12892 37.0226 2.79552H37.0232Z" fill="white"/>
<path d="M37.8205 7.97833C37.5262 8.91798 38.1148 9.92883 38.8689 10.4825C38.8696 10.4832 38.8703 10.4838 38.8709 10.4838C39.2437 9.58279 39.2041 8.44217 38.7147 7.59436C38.7147 7.59436 38.7147 7.59502 38.7147 7.59569C38.399 7.235 37.9096 7.60899 37.8205 7.979V7.97833Z" fill="white"/>
<path d="M54.8154 23.3966C53.895 23.1331 52.941 22.9002 51.9763 22.98C51.0432 23.0719 50.0738 23.2462 49.0944 23.2409C45.9147 23.1331 42.7217 23.1258 39.5495 23.396C38.7966 23.4372 38.0632 23.6256 37.4009 23.9882C37.6845 24.0807 38.0183 24.1 38.3273 24.1227C40.4089 24.0029 42.4623 23.925 44.5545 24.0368C46.6207 24.0708 48.4729 24.6351 50.5015 25.0537C52.1439 25.252 53.5504 25.6499 55.2538 25.6672C56.724 25.7378 58.1492 25.3631 59.5852 25.1302C61.5414 25.0124 63.5425 25.1309 65.4758 24.8893C63.3105 24.4607 61.109 24.1959 58.8967 24.2671C57.507 24.1759 56.1568 23.7453 54.8147 23.3973L54.8154 23.3966Z" fill="white"/>
</g>
<g style="mix-blend-mode:multiply" opacity="0.3">
<path d="M126.688 -18.7728C127.366 -16.8383 129.912 -16.3498 131.678 -15.8068C132.49 -15.6038 133.265 -15.2904 134.05 -15.0089C135.781 -14.416 137.592 -14.1052 139.382 -13.7405C140.828 -13.4663 142.312 -13.485 143.748 -13.1509C144.367 -12.9945 144.991 -12.8528 145.597 -12.6518C146.1 -12.4082 146.616 -12.1826 147.163 -12.0555C148.709 -11.6935 150.287 -11.442 151.776 -10.8757C152.791 -10.4211 153.924 -10.0924 154.839 -9.47617C155.359 -8.85129 155.586 -8.05605 155.973 -7.35198C156.682 -6.07427 157.521 -4.74532 158.778 -3.93877C159.213 -3.67724 159.742 -3.63864 160.226 -3.5142C161.095 -3.31123 161.934 -3.01243 162.777 -2.72695C164.434 -2.19457 166.149 -1.85983 167.819 -1.37271C169.477 -0.877598 171.219 -0.844324 172.905 -0.494951C175.108 0.165197 177.377 0.595093 179.663 0.843313C180.496 0.878584 181.124 0.324245 181.256 -0.25272C182.124 -0.334574 182.986 -0.526894 183.843 -0.661985C184.399 -0.773119 185.096 -0.722542 185.48 -1.22497C186 -1.80992 185.714 -2.71031 184.889 -2.72695C184.118 -2.71829 183.351 -2.89198 182.582 -2.95653C182.773 -4.13775 181.642 -4.23291 180.762 -4.29813C179.621 -4.4259 178.479 -4.52505 177.345 -4.71604C174.959 -5.10335 172.607 -5.665 170.197 -5.89992C167.521 -6.21535 164.827 -6.6519 162.126 -6.57537C161.406 -7.29275 160.427 -7.65809 159.557 -8.15787C158.907 -8.49393 158.417 -9.06024 157.846 -9.50212C157.567 -10.103 157.246 -10.672 156.806 -11.1525C156.972 -11.267 157.103 -11.43 157.132 -11.633C157.219 -12.3929 156.435 -12.8761 155.86 -13.2055C154.094 -14.1937 152.093 -14.6229 150.2 -15.2924C149.374 -15.6191 148.546 -15.9339 147.694 -16.1848C147.303 -16.7764 146.424 -16.6945 145.798 -16.8789C144.836 -17.1424 143.89 -17.4618 142.933 -17.7467C140.518 -18.504 138.101 -19.2593 135.695 -20.0432C134.499 -20.4372 133.267 -20.7566 132.135 -21.3202C131.521 -21.6443 130.888 -21.9464 130.341 -22.379C129.888 -22.8142 129.388 -23.1902 128.849 -23.5176C127.396 -24.3282 126.061 -25.3031 124.767 -26.3392C124.629 -26.7305 124.276 -26.9681 123.82 -27.0912C123.336 -27.5171 122.856 -28.0162 122.174 -27.935C121.751 -27.8911 121.379 -27.6276 121.146 -27.2782C120.622 -27.3607 120.097 -27.4446 119.574 -27.5271C117.675 -27.8299 115.771 -28.0774 113.863 -28.3077C112.749 -28.3709 111.616 -28.715 110.506 -28.6025C109.475 -28.7243 108.253 -29.417 107.372 -28.5719C101.087 -29.2733 94.781 -29.837 88.4546 -29.976C86.778 -30.1025 85.0974 -30.1331 83.4207 -30.2575C82.8744 -30.3021 82.2817 -30.3381 81.6864 -30.3567C80.8377 -30.3301 79.8228 -30.5883 79.1162 -30.008C78.9211 -30.016 78.724 -30.0153 78.5276 -30.0186C78.4894 -30.5264 78.1937 -30.9822 77.5944 -31.0355C77.3149 -31.0528 77.0367 -30.9496 76.8181 -30.7799C75.3466 -29.6293 73.8148 -28.5526 72.3755 -27.3634C70.3449 -25.5879 68.1306 -24.0487 65.9941 -22.407C65.9452 -22.409 65.8969 -22.4116 65.848 -22.4136C64.7613 -23.4358 63.2563 -23.5609 61.8679 -23.8976C61.0963 -24.3388 60.2871 -24.8885 59.604 -24.3501C59.2843 -24.3235 58.9658 -24.2749 58.7037 -24.2543C58.0977 -24.1924 57.4943 -24.1046 56.8903 -24.0221C56.6423 -24.5351 55.992 -24.5331 55.4899 -24.5305C54.973 -24.5471 54.4568 -24.5551 53.94 -24.5591C49.4504 -24.5212 45.0775 -23.3107 40.657 -22.6625C40.6335 -22.6765 40.6094 -22.6904 40.5839 -22.7024C40.291 -22.8442 39.9786 -22.8182 39.701 -22.6951C39.701 -22.6971 39.701 -22.6991 39.7017 -22.7011C38.2168 -21.7761 36.8774 -21.0228 35.422 -19.9394C33.5282 -18.5905 31.885 -16.9388 30.1608 -15.3935C28.2858 -13.7518 26.5166 -11.977 24.9734 -10.0219C24.4813 -9.28584 23.5683 -8.67427 23.5495 -7.72531C23.3095 -7.39923 22.3683 -6.32648 21.5819 -5.25441C21.3339 -5.31497 21.0684 -5.31963 20.8304 -5.2045C20.1788 -4.90304 19.5386 -4.57962 18.8964 -4.25886C18.2233 -3.92546 17.5221 -3.58008 16.8282 -3.23603C14.8285 -2.25712 12.8301 -1.27422 10.9181 -0.12628C9.66855 0.606405 8.52555 1.5028 7.284 2.24546C6.863 2.40052 6.44804 2.57288 6.01832 2.70131C5.57185 2.69798 5.12336 2.88298 4.81766 3.20441C4.42281 2.7632 4.0246 2.28606 3.3931 2.21818C2.70395 2.09772 2.01882 2.68201 2.14753 3.38874C2.89031 5.15757 4.09298 6.76069 5.18235 8.34651C5.80045 9.09184 6.26167 10.1533 7.24512 10.4714C7.60042 10.9325 8.09718 11.7644 8.65024 12.555C9.14096 14.0649 9.77515 15.5117 10.9074 16.6942C12.6102 18.4996 16.1538 21.276 18.6705 21.4264C18.8816 21.447 19.1585 21.5235 19.3563 21.3951C19.485 21.3019 19.5131 21.1529 19.483 21.0031C20.0246 21.2014 20.577 21.3751 21.1522 21.4909C21.3882 21.5295 21.8682 21.7797 22.0217 21.5149C22.068 21.3785 21.9506 21.258 21.8159 21.256C21.0845 21.069 20.394 20.6977 19.6874 20.4268C19.2141 20.1786 18.7522 19.9031 18.291 19.6276C18.2381 19.5883 18.173 19.569 18.1214 19.5278C16.9583 18.5189 15.8957 17.3736 14.986 16.1312C14.13 14.8761 13.3697 13.5592 12.4694 12.3327C11.4538 10.8254 11.3076 8.97805 10.7512 7.29107C12.5566 5.99939 14.5623 4.9719 16.5447 3.96704C17.9029 3.34282 19.2879 2.76986 20.5938 2.03983C21.8213 1.30116 23.0353 0.521223 24.179 -0.336571C25.9193 -2.64909 26.949 -5.3682 28.3582 -7.90698C30.8815 -9.86014 33.2975 -11.9624 35.9429 -13.7558C37.2079 -14.4645 38.3321 -15.3636 39.3853 -16.3452C40.6791 -16.24 42.0346 -16.5761 43.2882 -16.829C44.4152 -17.0805 45.5448 -17.3161 46.6737 -17.5563C47.4446 -17.6542 48.2189 -17.72 48.9899 -17.8345C50.8361 -18.1107 52.6977 -18.3003 54.5359 -18.6224C54.7062 -18.6623 54.8671 -18.7342 55.0347 -18.7821C55.4805 -18.84 55.927 -18.8913 56.3694 -18.9738C58.0186 -19.1195 59.6489 -19.1481 61.2773 -19.3591C62.1475 -18.9159 63.0344 -18.5186 64.0219 -18.3642C64.9363 -17.8984 65.8366 -17.394 66.8247 -18.0428C67.6694 -18.5765 68.3679 -19.2959 69.1322 -19.9321C71.0843 -21.5665 73.2329 -22.954 75.2159 -24.5471C75.9895 -25.178 76.6686 -25.9027 77.3095 -26.6627C79.735 -26.5282 82.1564 -26.1263 84.5738 -25.8854C88.0296 -25.3943 91.519 -25.2152 95.0036 -25.0795C100.661 -24.6995 106.351 -24.9025 112.005 -24.3967C113.321 -24.3009 114.638 -24.2244 115.938 -23.9881C117.164 -23.7931 118.375 -23.4584 119.622 -23.4258C120.851 -23.3765 122.062 -23.2721 123.301 -23.1536C123.595 -21.5977 125.424 -20.4764 126.799 -19.5128C126.725 -19.2713 126.67 -19.0264 126.691 -18.7715L126.688 -18.7728ZM9.10141 7.36228C9.10141 7.36228 9.0994 7.35828 9.09806 7.35629C9.09873 7.35629 9.10007 7.35496 9.10074 7.35429C9.10074 7.35696 9.10074 7.35962 9.10074 7.36161L9.10141 7.36228ZM77.998 -27.5391C78.0221 -27.5697 78.0463 -27.5996 78.0697 -27.6302C78.124 -27.6369 78.177 -27.6515 78.2313 -27.6569C78.7026 -27.6629 79.1732 -27.6183 79.6438 -27.5664C79.3428 -27.5677 79.0424 -27.5817 78.7414 -27.5743C78.6033 -27.557 78.3245 -27.5484 77.998 -27.5391Z" fill="black"/>
</g>
<path d="M76.147 23.3807C76.2267 23.3168 76.3052 23.255 76.3843 23.1951C76.3695 23.2037 76.3561 23.2124 76.3414 23.2217C76.277 23.2743 76.2113 23.3268 76.147 23.3807Z" fill="#4C2C0A"/>
<path d="M80.4128 21.3471C80.3558 21.4036 80.2995 21.4609 80.2432 21.5161C80.3504 21.415 80.459 21.3191 80.5703 21.2273C80.569 21.2273 80.567 21.2286 80.565 21.2286C80.514 21.2686 80.4631 21.3078 80.4121 21.3471H80.4128Z" fill="#4C2C0A"/>
<path d="M80.5782 21.2213C80.595 21.208 80.6104 21.1947 80.6272 21.1814C80.6097 21.196 80.5916 21.2093 80.5742 21.2227C80.5756 21.2227 80.5776 21.2213 80.5782 21.2213Z" fill="#4C2C0A"/>
<path d="M80.9155 20.9585C80.9383 20.9412 80.9625 20.9246 80.9852 20.908C80.9799 20.9113 80.9739 20.9139 80.9678 20.9173C80.9511 20.9319 80.9336 20.9452 80.9155 20.9585Z" fill="#4C2C0A"/>
<path d="M175.486 -1.94777C175.252 -2.01898 175.017 -2.08819 174.783 -2.1574C173.82 -1.77808 172.801 -1.52719 171.754 -1.41673C171.331 -1.37214 170.902 -1.37147 170.477 -1.34153C170.498 -1.37081 170.507 -1.40608 170.526 -1.43669C170.949 -1.53984 171.386 -1.89054 171.534 -2.21063C171.64 -2.48814 171.732 -2.77096 171.813 -3.05712C171.82 -3.0844 171.828 -3.11102 171.835 -3.13764C172.027 -3.67933 172.069 -4.27892 172.067 -4.88983C172.067 -4.92044 172.068 -4.95172 172.067 -4.98233C172.061 -5.61519 172.02 -6.25538 172.068 -6.84365C172.071 -7.23761 172.075 -7.6329 172.081 -8.02753C171.728 -7.86981 171.357 -7.75202 170.974 -7.67549C170.973 -7.67549 170.971 -7.67483 170.97 -7.67416C170.894 -7.65819 170.817 -7.64421 170.741 -7.63024C170.492 -7.58432 170.243 -7.54839 169.991 -7.52643C169.856 -7.51711 169.724 -7.51445 169.593 -7.51711C169.585 -7.44591 169.576 -7.3747 169.568 -7.30349C169.501 -5.81017 169.41 -4.28891 168.858 -2.8821C168.498 -2.78627 168.136 -2.6911 167.772 -2.60992C166.458 -2.83152 165.119 -2.91138 163.804 -2.63454C162.049 -2.42226 160.279 -2.49014 158.518 -2.381C157.192 -2.30846 155.869 -2.10948 154.537 -2.12412C153.655 -2.13544 152.772 -2.16937 151.891 -2.20465C150.056 -2.27585 148.223 -2.34706 146.39 -2.20332C144.913 -2.08553 143.438 -2.14542 141.961 -2.20531C140.911 -2.24857 139.861 -2.29182 138.812 -2.2692C137.183 -2.21529 135.56 -2.07554 133.934 -2.07288C131.183 -2.10483 128.433 -2.13677 125.682 -2.08153C124.73 -2.07621 123.778 -2.09218 122.828 -2.10815C121.039 -2.13743 119.251 -2.16671 117.467 -2.05625C115.542 -2.11215 113.618 -2.17869 111.695 -2.23459C110.338 -2.27519 108.984 -2.33974 107.63 -2.41693C107.581 -2.28916 107.497 -2.17803 107.443 -2.05358C105.785 -2.08819 104.131 -2.17071 102.488 -2.43956C101.449 -2.6026 100.407 -2.64985 99.3644 -2.64985C98.1027 -2.64985 96.8397 -2.58064 95.5787 -2.56533C94.4143 -2.60659 93.2525 -2.74368 92.0881 -2.81688C91.5739 -2.86546 91.053 -2.88409 90.5314 -2.90139C89.5372 -2.93666 88.5411 -2.9706 87.5817 -3.21816C87.0736 -3.81509 87.1681 -4.57572 87.1963 -5.29843C87.2003 -5.80152 87.1929 -6.30728 87.1534 -6.80905C87.0414 -8.47539 86.7733 -10.1238 86.5292 -11.7741C86.3 -13.513 85.9587 -15.2366 85.8917 -16.9908C85.7523 -18.5686 86.0298 -20.2223 87.1614 -21.4088C87.8982 -21.7615 88.773 -21.7689 89.5835 -21.874C91.059 -21.9139 92.5312 -21.9738 94.002 -22.1848C94.0328 -22.1888 94.0664 -22.1928 94.0985 -22.1981C95.4822 -22.2154 96.8685 -22.1941 98.2536 -22.1735C99.6118 -22.1528 100.969 -22.1322 102.326 -22.1469C104.053 -22.0976 105.775 -21.9259 107.498 -21.8228C108.613 -21.7496 109.731 -21.7516 110.847 -21.7536C111.488 -21.7542 112.128 -21.7556 112.769 -21.7422C115.059 -21.6917 117.333 -21.3197 119.629 -21.3762C122.032 -21.4441 124.43 -21.665 126.836 -21.5765C127.968 -21.5453 129.103 -21.5612 130.236 -21.5772C131.829 -21.5985 133.422 -21.6218 135.013 -21.512C135.545 -21.484 136.079 -21.4814 136.61 -21.4914C136.547 -21.5293 136.485 -21.5686 136.422 -21.6078C136.412 -21.6098 136.4 -21.6118 136.39 -21.6138C135.503 -21.7975 134.623 -21.9665 133.763 -22.2587C133.319 -22.409 132.896 -22.636 132.503 -22.9148C131.928 -22.9614 131.356 -23.0872 130.801 -23.2881C129.434 -23.7839 128.478 -24.7928 127.527 -25.8189C127.251 -26.1157 126.977 -26.4112 126.732 -26.7346C126.701 -26.7759 126.67 -26.8158 126.641 -26.8571C126.371 -27.1599 126.125 -27.4793 125.906 -27.8287C125.89 -27.8393 125.875 -27.8499 125.859 -27.8606C125.759 -27.1119 125.598 -26.3746 125.322 -25.6659C124.959 -25.57 124.596 -25.4749 124.231 -25.3944C122.918 -25.614 121.58 -25.6932 120.266 -25.4183C118.511 -25.2047 116.743 -25.2739 114.982 -25.1634C113.654 -25.0916 112.332 -24.8919 111 -24.9079C108.285 -24.9398 105.567 -25.1974 102.854 -24.9871C101.372 -24.8686 99.8906 -24.9292 98.4104 -24.9891C97.3653 -25.0323 96.3188 -25.0749 95.2737 -25.0543C93.6467 -24.9997 92.023 -24.8593 90.396 -24.8573C87.6448 -24.8886 84.8948 -24.9205 82.1436 -24.8653C81.187 -24.86 80.2297 -24.876 79.273 -24.8919C77.4878 -24.9212 75.7032 -24.9505 73.9213 -24.8394C72.5343 -24.7588 70.9898 -24.667 69.5766 -24.7009C66.0403 -24.9212 62.4839 -24.6477 58.9745 -25.2187C57.9515 -25.1668 56.9298 -25.1075 55.9075 -25.057C54.2979 -24.9764 52.6608 -24.9185 51.0566 -25.0443C50.6638 -25.0749 50.2689 -25.1688 49.8868 -25.3105C49.0971 -25.2094 48.3141 -25.0949 47.527 -24.9691C47.3206 -24.9285 47.1134 -24.8886 46.9069 -24.8487C46.022 -24.6557 45.1358 -24.46 44.2475 -24.2744C43.2989 -24.0761 42.3162 -24.0062 41.3488 -23.9503C40.7213 -23.9143 40.0958 -23.8851 39.469 -23.8345C39.2445 -23.8165 39.0192 -23.7979 38.7946 -23.7786C38.4554 -23.5596 38.1162 -23.342 37.7689 -23.1371C37.3439 -22.8855 36.9189 -22.6333 36.4939 -22.3824C37.5953 -22.427 38.6974 -22.4516 39.8009 -22.4104C40.9332 -22.3804 42.0668 -22.3957 43.199 -22.4117C44.7919 -22.433 46.3847 -22.455 47.9769 -22.3478C49.15 -22.2859 50.3219 -22.3438 51.4937 -22.4024C52.6193 -22.4583 53.7442 -22.5135 54.8711 -22.4623C56.8313 -22.419 58.768 -22.061 60.7269 -22.0138C62.2614 -22.0197 63.7925 -22.1149 65.3284 -22.0563C66.3789 -21.9678 67.4133 -21.7509 68.4557 -21.5998C70.5949 -21.305 72.6228 -21.1699 74.815 -21.0242C75.0282 -21.0242 75.2407 -21.0262 75.4538 -21.0282C75.9338 -21.0322 76.4138 -21.0375 76.8925 -21.0109C77.6976 -20.957 78.482 -20.7294 79.2871 -20.6841C80.113 -20.6236 80.9356 -20.7014 81.7595 -20.7427C82.5358 -20.225 82.7684 -19.3545 82.8656 -18.4468C82.8602 -18.3191 82.8622 -18.192 82.873 -18.0642C82.8824 -16.7439 82.6826 -15.4229 82.7308 -14.0966C82.7825 -12.1029 82.7744 -10.1211 82.5324 -8.13866C82.464 -6.64601 82.3742 -5.12407 81.8225 -3.71726C81.4612 -3.6221 81.0971 -3.52627 80.7324 -3.44575C79.4192 -3.66536 78.0817 -3.74588 76.7671 -3.46971C75.0134 -3.25742 73.2443 -3.3253 71.4838 -3.21616C70.1538 -3.14429 68.8345 -2.94398 67.5004 -2.96062C64.7847 -2.99123 62.069 -3.2501 59.3553 -3.03782C57.8771 -2.92136 56.4002 -2.98125 54.924 -3.04181C53.8736 -3.0844 52.8244 -3.12766 51.7739 -3.1057C50.1476 -3.05113 48.5239 -2.91071 46.8962 -2.90872C44.145 -2.93933 41.3957 -2.9726 38.6451 -2.91603C37.6912 -2.91071 36.7386 -2.92735 35.786 -2.94265C33.9967 -2.9726 32.2081 -3.00255 30.4229 -2.89141C29.0359 -2.81089 27.4913 -2.72039 26.0781 -2.75233C22.5332 -2.97393 18.9687 -2.69843 15.4506 -3.27539C14.9498 -3.35392 14.449 -3.40516 13.9482 -3.43843C13.9308 -3.42778 13.9127 -3.4178 13.8953 -3.40782C13.2718 -3.04514 12.6497 -2.67979 12.0262 -2.31645C11.4839 -1.99968 10.9221 -1.66961 10.3476 -1.41673C10.2296 -1.36415 10.1103 -1.31624 9.99163 -1.265C9.26024 -0.944906 8.5302 -0.632801 7.77602 -0.364614C7.7244 -0.345982 7.67211 -0.32868 7.61915 -0.310711C7.41334 -0.172293 7.20552 -0.0365372 6.99502 0.0965576C6.91927 0.14447 6.84351 0.191719 6.76709 0.239634C7.33557 0.224993 7.90339 0.197042 8.4712 0.169094C9.59543 0.113194 10.7203 0.0552979 11.8466 0.107204C12.8314 0.129831 13.8115 0.230984 14.7902 0.332134C15.7596 0.433287 16.729 0.533108 17.7037 0.557064C19.2362 0.551075 20.7687 0.455912 22.3032 0.515139C23.3537 0.604979 24.3894 0.820591 25.4326 0.972319C27.5731 1.26712 29.5997 1.40155 31.7918 1.54795C32.0057 1.54795 32.2209 1.54529 32.4347 1.54396C32.914 1.53864 33.3913 1.53331 33.8707 1.56126C34.6758 1.61583 35.4581 1.84276 36.2633 1.88801C37.0905 1.9499 37.9117 1.87071 38.735 1.82945C39.5113 2.34652 39.7446 3.21563 39.8424 4.122C39.8364 4.24977 39.8391 4.37954 39.8498 4.50664C39.8585 5.8276 39.6608 7.14923 39.7077 8.47419C39.7586 10.4679 39.7513 12.4497 39.5093 14.4322C39.4415 15.9255 39.3504 17.4481 38.8007 18.8549C38.438 18.9507 38.0733 19.0459 37.7073 19.1271C36.3953 18.9075 35.0579 18.8269 33.744 19.1024C31.9889 19.3161 30.2218 19.2469 28.4607 19.3573C27.1327 19.4285 25.8113 19.6295 24.4773 19.6129C23.591 19.6015 22.7061 19.5676 21.8199 19.5337C19.9891 19.4625 18.1609 19.3899 16.3321 19.5337C15.3017 19.6149 14.272 19.6109 13.2423 19.5809C13.8678 19.8677 14.4933 20.1566 15.1154 20.4514C15.5913 20.671 16.066 20.8939 16.5386 21.1215C16.9582 21.3225 17.3799 21.5394 17.7741 21.7949C18.0651 21.7943 18.3567 21.7896 18.649 21.7836C20.0112 21.755 21.3479 21.9354 22.6981 22.0871C23.1519 22.113 23.6084 22.1363 24.0623 22.1776C24.3841 22.1403 24.7052 22.1037 25.0276 22.0724C25.5834 21.4203 26.2866 20.9371 27.1534 20.7182C28.1872 20.456 29.3114 20.6317 30.2184 21.184C30.9833 21.6505 31.519 22.3353 31.8441 23.1372C32.2651 23.1505 32.6868 23.1545 33.1084 23.1445C35.5104 23.0766 37.9091 22.8537 40.3157 22.9442C41.45 22.9748 42.585 22.9595 43.7193 22.9442C45.3108 22.9223 46.9022 22.8996 48.4931 23.0081C49.6642 23.07 50.8347 23.0114 52.0059 22.9522C53.1321 22.8976 54.2584 22.8411 55.3866 22.8923C57.3475 22.9356 59.2849 23.2943 61.2431 23.3408C62.7769 23.3355 64.3101 23.2384 65.8439 23.2982C66.8951 23.3861 67.9288 23.6044 68.9712 23.7561C70.7705 24.0036 72.4914 24.1374 74.2961 24.2612C75.1006 23.4999 76.0424 22.9782 77.111 22.6288C77.1566 22.6141 77.2022 22.6002 77.2491 22.5862C77.9906 22.113 78.789 21.7703 79.6585 21.5394C79.7195 21.5135 79.7812 21.4882 79.8435 21.4622C79.9132 21.4343 79.985 21.4076 80.0554 21.383C80.4046 21.212 80.7485 21.027 81.0884 20.8387C81.2741 20.7089 81.4679 20.5858 81.6723 20.4653C81.1474 20.4593 80.6232 20.4507 80.0996 20.4414C78.3077 20.4128 76.5151 20.3828 74.7271 20.4953C73.3401 20.5745 71.7962 20.6656 70.3831 20.6337C66.8394 20.4121 63.2743 20.6876 59.7548 20.112C57.4608 19.7513 55.1547 19.9576 52.8472 19.9862C51.6834 19.9449 50.521 19.8078 49.3565 19.7346C47.8602 19.5936 46.3123 19.7107 44.8529 19.3327C44.3447 18.7364 44.4393 17.9765 44.4661 17.2538C44.4701 16.7507 44.462 16.2449 44.4225 15.7418C44.3105 14.0761 44.0424 12.4291 43.7984 10.7781C43.5698 9.03917 43.2292 7.31493 43.1615 5.56075C43.0214 3.98425 43.2996 2.33055 44.4312 1.14334C44.8194 0.957678 45.2464 0.869171 45.6815 0.809944C45.9215 0.813271 46.1608 0.828577 46.4008 0.83124C46.4028 0.83124 46.4048 0.831905 46.4062 0.831905H46.4142C47.2663 0.825916 48.115 0.818594 48.9731 0.811274C50.6363 0.801956 52.2995 0.811939 53.9634 0.822588C56.9452 0.841221 59.9258 0.859854 62.909 0.768019C63.2495 0.766687 63.5914 0.770014 63.9326 0.772011C65.2747 0.780663 66.6195 0.789314 67.9576 0.649565C68.2707 0.623611 68.6696 0.612297 68.9759 0.479204C70.017 0.933056 71.0608 1.38558 72.1649 1.63979C73.0572 1.85208 73.9663 1.92128 74.8787 1.92128C75.791 1.92128 76.7343 1.85008 77.6554 1.78952C79.3829 1.66241 81.1132 1.53464 82.8441 1.43882C84.3237 1.36162 85.8146 1.43748 87.2995 1.44613C89.0532 1.43083 90.8083 1.37892 92.5627 1.39157C96.522 1.33566 100.436 1.19059 104.431 1.3157C104.416 1.32435 104.404 1.33833 104.388 1.34698C104.603 1.35829 104.818 1.36761 105.033 1.37293C105.251 1.37227 105.468 1.36362 105.686 1.36029C107.482 1.45213 109.279 1.50137 111.077 1.51933C111.639 1.60851 112.2 1.70567 112.761 1.78752C114.901 2.08233 116.928 2.21675 119.121 2.36316C119.336 2.36316 119.55 2.35983 119.763 2.35917C120.243 2.35384 120.719 2.34851 121.198 2.37646C122.003 2.43103 122.788 2.65796 123.594 2.70321C124.419 2.7651 125.244 2.68591 126.066 2.64465C126.843 3.16239 127.075 4.03482 127.173 4.94386C127.167 5.0703 127.169 5.1974 127.179 5.32318C127.188 6.64347 126.99 7.96444 127.039 9.29072C127.089 11.2831 127.081 13.2663 126.839 15.2487C126.835 15.3179 126.833 15.3878 126.829 15.457C127.645 15.4477 128.47 15.5961 129.201 15.9208C129.957 15.8882 130.717 15.9954 131.434 16.2389C131.311 14.6884 131.062 13.1525 130.834 11.6139C130.606 9.87634 130.265 8.15144 130.199 6.39725C130.057 4.82008 130.336 3.16572 131.467 1.97918C132.205 1.62648 133.079 1.61916 133.889 1.51534C135.365 1.47541 136.837 1.41419 138.307 1.2039C138.343 1.19858 138.382 1.19459 138.418 1.18926C139.803 1.17196 141.189 1.19259 142.574 1.21389C143.927 1.23318 145.279 1.25381 146.631 1.23984C148.359 1.29041 150.082 1.45945 151.804 1.56392C152.925 1.63713 154.049 1.63646 155.171 1.6338C155.806 1.63313 156.439 1.6318 157.074 1.64444C158.055 1.66574 159.032 1.7456 160.011 1.82679C161.316 1.93526 162.622 2.04306 163.934 2.01045C166.338 1.94324 168.736 1.72164 171.142 1.81015C172.291 1.84342 173.438 1.82679 174.586 1.81015C174.617 1.53997 174.65 1.26779 174.684 0.997606C175.098 0.962337 175.517 0.877155 175.83 0.592999C177.349 -0.91363 177.647 -1.43669 175.491 -1.94511L175.486 -1.94777Z" fill="#4C2C0A"/>
<path d="M56.3666 6.12511C56.5757 5.92547 56.8674 5.70786 57.169 5.65862C57.1751 5.87157 57.4667 5.78639 57.4352 5.60671C57.3333 5.04771 56.3109 5.71718 56.1427 5.97738C55.9409 6.27152 56.0334 6.65815 56.2251 6.93499C56.2251 6.93499 56.2258 6.93566 56.2265 6.93566C56.2258 6.66548 56.1896 6.36136 56.3659 6.12511H56.3666Z" fill="#4C2C0A"/>
<path d="M67.4237 9.35605C67.4572 9.04528 67.3278 8.75114 67.24 8.45434C67.1676 8.77975 67.0871 9.20765 66.7513 9.39066C65.9596 9.78528 64.828 10.128 64.1804 9.31746C63.8479 8.9967 63.9001 8.67328 64.2722 8.41375C64.6429 8.05705 65.2141 8.24472 65.6726 8.11362C64.897 7.53466 63.5053 8.10097 63.3089 9.03729C63.2311 9.86847 63.9028 10.7542 64.7287 10.9139C65.7987 11.1149 67.1864 10.4694 67.4237 9.35539V9.35605Z" fill="#4C2C0A"/>
<path d="M69.4878 8.92222C69.4959 8.7106 69.219 8.74321 69.1044 8.84436C68.6881 9.14915 68.5332 10.0356 69.2552 10.0256C69.5093 10.0282 69.7909 9.9963 70.0242 9.92509C69.76 9.77935 69.4322 9.72811 69.1969 9.54245C69.1607 9.40336 69.1768 9.20106 69.2861 9.09259C69.3819 9.11588 69.4825 9.01938 69.4878 8.92156V8.92222Z" fill="#4C2C0A"/>
<path d="M98.4525 4.32114C98.2795 4.28654 98.1052 4.27389 97.9309 4.25193C97.9256 4.24395 97.9303 4.23662 97.9242 4.22864C97.7908 4.09421 97.6621 4.12216 97.5435 4.20069C96.5359 4.11484 95.5176 4.17274 94.5073 4.13348C94.5073 4.12416 94.518 4.11884 94.5167 4.10952C94.5194 3.9172 94.2646 3.83867 94.1721 4.01303C94.15 4.03698 94.1312 4.06427 94.1098 4.08822C93.5708 4.02101 93.0398 3.92385 92.4861 3.88259C91.7916 3.74883 91.1668 4.09954 90.4984 4.19137C89.1235 4.29319 87.7519 4.4895 86.3883 4.70845C86.3863 4.70578 86.389 4.70046 86.387 4.6978C86.216 4.56137 86.0444 4.65188 85.8882 4.79096C85.3955 4.87348 84.8974 4.94735 84.41 5.03452C84.8364 5.01123 85.2567 5.01057 85.6784 4.99992C85.6314 5.05116 85.5852 5.1044 85.5456 5.141C85.1575 5.59752 84.8873 6.11925 84.6486 6.6636C84.0453 6.68556 83.4426 6.75344 82.8426 6.81866C81.6762 6.96572 78.2431 7.04891 77.6907 5.85039C78.0776 5.01123 82.5859 4.90276 83.692 4.74571C83.9005 4.72641 84.1405 4.72641 84.3363 4.69181C83.2522 4.40965 82.1361 4.68582 81.0373 4.70179C79.8936 4.77765 78.579 4.49682 77.6063 5.28142C77.4715 5.39854 77.3415 5.53163 77.314 5.71397C77.3033 7.04292 80.2583 7.1454 81.2599 7.17801C82.358 7.21661 83.4453 6.95574 84.5367 6.92247C84.4804 7.06155 84.4113 7.19199 84.359 7.3344C84.4764 7.20197 84.5937 7.05956 84.7103 6.92181C84.8739 6.92114 85.0375 6.90783 85.201 6.92114C85.7769 7.02828 86.3521 7.17003 86.9159 7.33307C86.9474 7.34571 86.9789 7.35769 87.0097 7.37033C86.9883 7.41891 86.9541 7.45951 86.934 7.50942C86.9635 7.48812 87.0198 7.43954 87.0721 7.39496C87.5715 7.59859 88.0656 7.82219 88.6133 7.85546C89.5384 7.94197 90.4555 7.97325 91.3739 7.99987C91.274 8.17223 91.1594 8.33926 91.0649 8.51295C91.2124 8.3519 91.3464 8.1689 91.4933 8.00453C92.1583 8.02316 92.826 8.04845 93.4977 8.08572C93.4937 8.09437 93.485 8.11034 93.4809 8.11832C93.491 8.10834 93.4984 8.0957 93.5084 8.08572C93.6499 8.0937 93.7893 8.09304 93.9314 8.10302C94.6052 8.23611 95.3962 8.39183 96.1196 8.44174C97.4798 8.58149 99.4038 8.20617 99.8 6.70154C99.8777 6.13655 99.7356 5.5536 99.5928 5.00857C99.4326 4.5474 98.8809 4.41564 98.4505 4.32181L98.4525 4.32114ZM84.9329 6.66227C85.4156 6.08996 85.9016 5.51034 86.4292 5.00591C86.4332 4.99726 86.4225 4.98794 86.4258 4.97863C87.1331 4.97463 87.8457 5.00325 88.5617 5.05183C88.5349 5.08643 88.496 5.11305 88.496 5.1603C88.0066 5.70066 87.593 6.2936 87.2484 6.93445C86.4795 6.8353 85.7119 6.7195 84.9329 6.6616V6.66227ZM88.3378 7.0529C88.0676 7.04359 87.8035 6.99634 87.5367 6.96639C88.1755 6.34284 89.0095 5.40253 88.854 5.0658C88.9411 5.07246 89.0249 5.0698 89.1127 5.07778C89.7053 5.14832 90.3006 5.1583 90.8939 5.1217C90.3744 5.68735 89.9433 6.40007 89.6021 6.99767C89.1804 7.01763 88.7588 7.03959 88.3378 7.0529ZM89.7067 6.99301C89.9527 6.74346 90.2008 6.49125 90.4535 6.2397C90.4495 6.24302 90.4468 6.24768 90.4428 6.25101C90.4468 6.24702 90.4508 6.24236 90.4548 6.23837C90.4548 6.23837 90.4555 6.2377 90.4562 6.23703C90.8772 5.85106 91.2372 5.40186 91.683 5.0465C91.7024 5.04251 91.7225 5.04517 91.7413 5.04118C92.2836 4.96399 92.8964 4.86616 93.5399 4.77765C93.5151 4.80826 93.4897 4.83821 93.4648 4.86882C92.948 5.53496 92.4579 6.24901 91.9913 6.97904C91.2298 6.94576 90.4682 6.95774 89.7067 6.99367V6.99301ZM93.92 7.27916C93.4132 7.11879 92.8991 6.98569 92.3567 6.98236C92.6999 6.5731 93.0633 6.18646 93.3837 5.76455C93.6378 5.43714 93.9053 5.06181 94.1654 4.69913C94.7024 4.63458 95.2474 4.58799 95.7904 4.56537C95.2025 5.06114 94.4269 6.35017 93.9207 7.27916H93.92ZM99.3448 7.01164C98.5966 8.07174 97.0722 8.1476 95.897 7.88408C95.3004 7.76363 94.7218 7.53737 94.1352 7.34105C94.8177 6.52119 95.4525 5.65475 96.1477 4.83289C96.2671 4.79496 96.3026 4.66918 96.2858 4.55006C96.5969 4.54807 96.9006 4.56005 97.1982 4.584C97.1915 4.59398 97.1821 4.60663 97.1761 4.61528C96.6324 5.40453 96.1846 6.2357 95.7254 7.08152C96.3033 6.49324 96.916 5.8657 97.4784 5.24016C97.6045 5.07445 97.819 4.88746 97.9303 4.68449C98.3385 4.75902 98.7307 4.85618 99.0766 5.01323C99.1061 5.03852 99.2 5.11105 99.204 5.16429C99.3703 5.73859 99.6223 6.43401 99.3455 7.01098L99.3448 7.01164Z" fill="#4C2C0A"/>
<path d="M95.5035 11.5746C95.9674 11.9593 96.6472 11.1893 96.2148 10.7814C95.7516 10.3961 95.0704 11.1667 95.5035 11.5746Z" fill="#4C2C0A"/>
<path d="M54.5436 25.5768C54.4873 25.487 54.3693 25.475 54.2902 25.5449C54.2258 25.5888 54.1655 25.638 54.1018 25.6833C53.8397 25.684 53.5816 25.6713 53.3181 25.676C52.9005 25.6833 52.4808 25.6906 52.0638 25.6833C51.5925 25.668 51.1179 25.6161 50.6426 25.5675C50.6942 25.4863 50.7237 25.4025 50.6661 25.3133C50.5917 25.2388 50.4422 25.3412 50.2612 25.5296C49.6049 25.4703 48.9486 25.4431 48.2996 25.5628C47.4777 25.7372 46.7001 26.0832 45.9365 26.4253C46.0639 26.4912 46.1893 26.5617 46.3119 26.6376C46.5305 26.5451 46.7517 26.4512 46.9877 26.3601C47.9544 25.8869 48.974 25.8024 50.0098 25.821C49.5961 26.3441 49.1094 27.122 48.8359 27.5992C48.7273 27.5899 48.6194 27.5772 48.5108 27.5686C48.5483 27.5825 48.5859 27.5959 48.6234 27.6098C48.7347 27.6404 48.846 27.6737 48.9573 27.7077C48.9579 27.7077 48.9606 27.709 48.9613 27.709C49.3407 27.7183 49.7202 27.7276 50.0996 27.7376C49.9025 27.7096 49.7047 27.6844 49.507 27.6624C49.33 27.6418 49.1517 27.6285 48.974 27.6118C49.4782 27.0655 49.9568 26.4759 50.4046 25.8749C50.4133 25.861 50.4274 25.8457 50.4381 25.8317C50.711 25.843 50.9845 25.8556 51.2587 25.8716C52.1295 25.9242 53.0017 25.9688 53.8578 25.863C53.5836 26.0699 53.3188 26.2895 53.0969 26.5517C52.7563 26.9344 52.4587 27.3496 52.1972 27.7875C52.336 27.7915 52.4741 27.7968 52.6129 27.8028C53.1948 27.1147 53.8088 26.4466 54.5013 25.8709C54.5288 25.845 54.5395 25.8091 54.553 25.7745C54.7521 25.7458 54.9518 25.7245 55.1503 25.6913C54.9585 25.6793 54.7608 25.6899 54.567 25.6859C54.5657 25.648 54.567 25.6094 54.5456 25.5755L54.5436 25.5768Z" fill="#4C2C0A"/>
<path d="M64.5513 25.9728C64.6049 25.9415 64.6491 25.8956 64.7041 25.867C64.8348 25.7598 64.8154 25.509 64.6384 25.4624C64.4916 25.4171 64.3508 25.4956 64.2228 25.5629C64.0109 25.6933 63.8252 25.8623 63.6281 26.0154C63.2588 26.0367 62.8894 26.0586 62.522 26.0713C61.9924 26.1039 61.4615 26.1638 60.9305 26.2104C60.8568 26.0899 60.7207 26.1418 60.5745 26.2416C59.7245 26.3188 58.8785 26.3894 58.0311 26.4812C58.1766 26.3654 58.32 26.2436 58.4648 26.1285C58.6707 25.9562 58.6995 25.495 58.3871 25.4231C58.2845 25.4058 58.1947 25.4085 58.1069 25.4677C57.8132 25.7019 57.5263 25.9515 57.2394 26.1951C57.0832 26.3235 56.9538 26.4792 56.8016 26.613C56.3257 26.6642 55.8457 26.7175 55.3724 26.7654C55.7987 26.7581 56.2264 26.7614 56.6528 26.7547C56.1849 27.176 55.7089 27.5906 55.2886 28.0577C55.4716 28.0843 55.6539 28.1129 55.8363 28.1436C55.8778 28.1502 55.9194 28.1575 55.961 28.1649C56.5341 27.6797 57.1207 27.2146 57.7053 26.7467C58.4575 26.7381 59.209 26.7261 59.9611 26.7281C59.3732 27.2146 58.8262 27.7682 58.3435 28.3758C58.5326 28.3578 58.7223 28.3405 58.9113 28.3226C59.4322 27.7563 59.9792 27.2166 60.5685 26.7254C61.2784 26.7314 61.987 26.786 62.6963 26.8086C62.2458 27.2305 61.7933 27.6538 61.3763 28.1116C61.5815 28.097 61.7866 28.0837 61.9924 28.0717C62.272 27.8295 62.5495 27.5866 62.819 27.339C63.0114 27.1746 63.2031 27.0049 63.3948 26.8359C64.0277 26.8619 64.6619 26.8652 65.294 26.9104C65.1439 27.0329 65.0118 27.1434 64.9414 27.1813C64.8248 27.2745 64.7095 27.3703 64.5962 27.4681C64.7544 27.4135 64.9133 27.3596 65.0715 27.3051C65.284 27.2319 65.4965 27.158 65.7083 27.0835C65.76 27.0355 65.8216 27.0009 65.8766 26.957C65.9208 26.9637 65.9658 26.9697 66.0107 26.977C66.4753 26.8133 66.9392 26.6476 67.4031 26.4825C67.4976 26.4493 67.5921 26.4147 67.6866 26.3801C67.2911 26.255 66.8849 26.1571 66.4712 26.0892C65.837 25.9715 65.1942 25.9555 64.5506 25.9735L64.5513 25.9728Z" fill="#4C2C0A"/>
<path d="M148.224 11.0497C147.178 10.7529 146.418 9.46654 147.569 8.77045C147.853 8.60342 148.197 8.50893 148.533 8.55551C148.742 8.58612 148.915 8.66598 149.121 8.72121C149.107 8.64468 149.051 8.53953 148.995 8.47432C148.574 8.07903 147.887 8.28 147.402 8.45436C145.74 9.1511 146.035 11.3392 147.556 12.0073C148.459 12.4099 149.397 11.8017 149.814 10.9998C149.317 11.1236 148.741 11.2433 148.224 11.049L148.224 11.0497Z" fill="#4C2C0A"/>
<path d="M156.451 10.6058C156.439 10.9518 156.897 10.8773 156.917 10.5818C156.929 10.2351 156.47 10.3096 156.451 10.6058Z" fill="#4C2C0A"/>
<path d="M138.037 3.51313C137.659 3.43527 137.246 3.38269 136.861 3.49516C135.292 3.96764 133.942 6.44586 136.213 6.98822C137.158 7.19119 138.118 6.77128 138.875 6.26286C138.148 6.59426 135.635 6.38464 135.802 5.27995C136.034 4.48471 136.722 3.7121 137.617 3.76601C137.998 3.77798 138.392 3.81925 138.757 3.94369C138.911 4.00957 139.076 4.05083 139.245 4.01423C139.225 3.95899 139.166 3.90509 139.12 3.8605C138.804 3.64888 138.405 3.58766 138.037 3.51246V3.51313Z" fill="#4C2C0A"/>
<path d="M138.399 8.35392C138.003 8.2694 137.168 8.4371 137.38 8.98745C137.556 8.88696 137.759 8.98146 137.954 8.94486C138.217 8.91491 138.462 8.81043 138.724 8.77982C138.853 8.7878 138.993 8.74921 139.022 8.60547C139.062 8.28271 138.599 8.40516 138.399 8.35325L138.399 8.35392Z" fill="#4C2C0A"/>
<path d="M134.082 15.8811C133.967 15.7493 133.901 15.5756 133.766 15.4532C133.422 14.6959 133.51 13.8181 133.469 13.0042C133.492 11.8936 133.315 10.7283 133.678 9.65558C134.243 9.55177 133.398 8.66536 133.198 10.2365C133.03 11.4217 133.105 12.6282 133.101 13.8234C133.135 14.4962 133.083 15.2522 133.451 15.8445C133.471 16.1359 133.557 16.4141 133.673 16.6823C133.892 17.047 133.935 17.3225 134.092 17.6093C134.506 18.135 135.242 18.1743 135.862 18.2102C136.263 18.2249 136.686 18.2309 137.077 18.1876C136.412 17.7045 135.666 17.3551 134.965 16.9345C134.703 16.5612 134.424 16.1958 134.081 15.8817L134.082 15.8811Z" fill="#4C2C0A"/>
<path d="M73.3118 15.6946C73.3634 15.7439 73.4338 15.7725 73.5049 15.7665C74.613 15.7086 75.7332 15.7346 76.8078 15.4105C76.2836 15.2794 75.7044 15.2461 75.1527 15.2501C74.9428 15.2421 73.051 15.3792 73.3111 15.6946H73.3118Z" fill="#4C2C0A"/>
<path d="M85.8976 17.9266C86.7591 18.0371 87.6916 18.0977 88.5798 18.1709C88.8634 18.1995 89.147 18.2214 89.4299 18.2374C89.6612 18.1509 89.8938 18.0664 90.1271 17.9852C90.2169 17.9539 90.3067 17.9226 90.3959 17.8914C89.8542 17.92 89.3112 17.9339 88.7675 17.924C87.8096 17.9326 86.8536 17.9433 85.897 17.926L85.8976 17.9266Z" fill="#4C2C0A"/>
<path d="M90.7847 16.2571C90.9529 16.4161 91.1507 16.5272 91.376 16.5838C91.9196 16.7269 92.472 16.8214 93.0291 16.8773C93.1934 16.7815 93.3583 16.687 93.5239 16.5931C92.7603 16.5645 92.0792 16.4733 91.5556 16.319C91.3096 16.2491 91.0307 16.2025 90.7847 16.2571Z" fill="#4C2C0A"/>
<path d="M119.539 8.31184C119.264 7.99707 119.147 7.49398 119.34 7.11199C119.806 6.59359 120.583 6.53503 121.227 6.37332C121.478 6.30877 121.723 6.22492 121.964 6.12842C121.949 6.10913 121.892 6.10779 121.86 6.09914C120.997 5.94143 119.339 6.24954 118.839 7.02083C118.136 8.21801 119.065 9.74926 120.432 9.79984C121.343 9.84709 122.496 9.15832 122.49 8.18673C121.912 9.01657 120.228 9.02855 119.54 8.31184H119.539Z" fill="#4C2C0A"/>
<path d="M123.624 9.38602C123.645 9.46122 123.714 9.49117 123.779 9.52377C123.993 9.70478 124.02 10.0136 124.196 10.2245C124.197 10.2252 124.197 10.2258 124.198 10.2258C124.392 9.88646 124.374 9.36273 124.009 9.14246C123.834 9.01336 123.563 9.16841 123.624 9.38669V9.38602Z" fill="#4C2C0A"/>
<path d="M106.502 5.97929C106.729 5.75636 107.092 5.73972 107.399 5.66519C108.174 5.4895 108.924 5.22465 109.658 4.92784C110.1 4.78277 110.587 4.50926 111.095 4.51259C111.225 4.52923 111.329 4.69826 111.468 4.61041C111.672 3.39526 106.5 5.25858 106.501 5.97996L106.502 5.97929Z" fill="#4C2C0A"/>
<path d="M113 5.21749C112.648 5.22747 112.57 5.78647 112.901 5.85435C113.313 5.90027 113.496 5.20352 113 5.21749Z" fill="#4C2C0A"/>
<path d="M104.22 7.5598C104.397 7.7315 104.716 7.48194 104.568 7.27565C104.39 7.04938 103.987 7.34818 104.22 7.5598Z" fill="#4C2C0A"/>
<path d="M75.175 10.9067C76.6613 11.3485 75.7603 8.54823 74.9699 8.24012C74.7286 8.09039 74.4564 7.94532 74.1909 7.87012C74.4276 8.21816 74.6454 8.56953 74.8325 8.95883C75.0175 9.42732 75.1489 9.9191 75.2655 10.4082C75.1596 10.4635 75.0691 10.5453 75.0403 10.6631C75.0155 10.7696 75.0919 10.8548 75.175 10.9073V10.9067Z" fill="#4C2C0A"/>
<path d="M78.109 11.8303C78.6982 12.328 79.5791 11.3511 79.0307 10.8227C78.4421 10.3243 77.5599 11.3025 78.109 11.8303Z" fill="#4C2C0A"/>
<path d="M65.0487 3.91505C65.3651 3.73005 65.5502 3.15708 65.0192 3.13312C63.7602 3.07988 62.4416 3.25956 61.2671 3.69345C62.5127 3.87113 63.767 3.65818 65.0119 3.56767C64.9951 3.68546 64.9951 3.80724 65.0487 3.91505Z" fill="#4C2C0A"/>
<path d="M50.2606 3.98241C50.2774 4.07957 50.4001 4.08489 50.441 4.00104C50.4564 3.93516 50.4825 3.86994 50.4993 3.8034C50.5502 3.16055 49.6352 3.26237 49.2189 3.36685C48.5123 3.54852 47.8292 3.98042 47.5054 4.64655C47.9726 4.40898 48.4607 4.214 48.9963 4.07225C49.4032 3.99106 49.8584 3.80473 50.26 3.98241H50.2606Z" fill="#4C2C0A"/>
<path d="M16.4238 3.49256C17.8678 3.54313 19.3085 3.70618 20.7331 3.94641C22.2937 4.15803 23.7913 4.84147 25.3815 4.79755C26.3502 4.7483 27.1942 4.53735 28.1777 4.42821C29.141 4.3437 30.0225 4.3823 31.0033 4.38829C32.0337 4.29645 32.5378 4.76894 33.2565 5.43574C32.6893 5.58547 32.3045 6.12783 32.2301 6.68949C30.9302 6.9417 29.625 7.17062 28.3292 7.4428C27.6346 7.62248 26.8865 7.64977 26.2376 7.9652C24.7419 7.38491 23.0579 7.54129 21.4752 7.52532C23.0231 7.81813 24.6367 8.03441 26.2208 8.24403C26.3039 8.27531 26.4112 8.1655 26.3589 8.07966C28.3861 7.54795 30.5703 7.63978 32.6169 7.2232C32.7852 7.146 32.9072 6.97364 32.9347 6.79397C33.0393 6.66952 33.1666 6.5504 33.3135 6.47787C33.7586 6.35875 34.2681 6.4446 34.667 6.66819C34.9311 6.86584 35.277 7.33899 35.6088 6.98961C35.8408 6.75404 35.6135 6.46655 35.4808 6.24296C35.1684 5.80973 34.6556 5.59345 34.3572 5.14027C32.9152 3.39074 32.3367 3.13387 30.0722 3.13786C28.6228 3.06466 27.211 3.39939 25.7944 3.6403C24.8995 3.77539 23.977 3.60369 23.0774 3.55777C20.9918 3.42867 18.9103 3.21905 16.8214 3.14518C11.7131 2.9715 6.6168 3.50121 1.51452 3.64296C1.0419 3.67157 0.389617 3.53182 0.00213523 3.77871C0.00146484 3.77871 0.00146484 3.78004 0.00146484 3.78004C1.71429 3.92379 3.44388 3.78936 5.16073 3.71682C8.91488 3.54912 12.665 3.34083 16.4252 3.49256H16.4238Z" fill="#4C2C0A"/>
<path d="M12.9907 6.49573C11.5675 6.78921 11.7183 8.20333 12.0998 9.27475C12.1071 8.69379 12.0776 7.97109 12.498 7.49527C12.6998 7.35552 12.9646 7.37615 13.1999 7.36883C13.9172 7.36883 14.6331 7.45002 15.3196 7.66098C15.6669 7.75946 16.0114 7.88391 16.3761 7.90121C16.6114 7.94779 16.9205 7.84598 17.1035 8.02632C17.3824 8.28119 17.5976 9.03517 18.0695 8.6705C18.4644 8.30781 18.0045 8.02698 17.7611 7.75614C17.5882 7.6104 17.554 7.37615 17.375 7.24106C16.057 6.53566 14.4756 6.11242 12.9907 6.49507V6.49573Z" fill="#4C2C0A"/>
<path d="M34.7049 11.5407C34.0366 10.8959 33.0424 10.8786 32.1662 10.8653C32.065 10.8633 31.953 10.8633 31.8411 10.8639C31.8752 10.9019 31.9564 10.9245 32.0046 10.9604C31.0648 10.9305 30.1356 11.1035 29.1997 11.1707C28.7794 11.208 28.3591 11.2426 27.9394 11.2778C27.5352 11.3125 27.0465 11.3005 26.7783 11.6552C24.9857 11.4382 23.0436 11.5074 21.3583 12.1816C20.5806 12.662 20.2743 14.0655 20.8696 14.7789C21.0117 14.9333 21.251 15.0245 21.43 14.8807C23.2434 14.9965 25.0769 14.9965 26.8869 14.7363C28.158 14.6285 29.427 14.2139 30.7081 14.188C31.8049 14.1061 32.6696 15.1429 33.7966 14.8222C35.0958 14.4488 35.6354 12.5136 34.7049 11.5407ZM33.5773 13.6243C33.1315 13.603 32.726 13.418 32.3405 13.2104C31.8102 12.9821 31.2256 12.9855 30.6578 13.0107C28.7995 13.1724 27.0022 13.7754 25.1587 14.0635C24.1008 14.2365 23.0302 14.3437 21.9596 14.4042C21.7096 14.4322 21.3931 14.3943 21.2162 14.6052C21.2088 14.6025 21.2021 14.5999 21.1947 14.5972C20.7422 14.2705 20.9064 13.6543 21.0928 13.2104C21.2135 12.9142 21.4481 12.6687 21.7699 12.5975C22.5522 12.4258 23.3607 12.3426 24.1598 12.284C24.8724 12.2474 25.575 12.2534 26.2896 12.3286C26.6221 12.33 26.9627 12.467 27.2898 12.3978C27.4795 12.328 27.6243 12.107 27.5586 11.9074C28.646 11.723 29.7307 11.5254 30.812 11.3085C31.3054 11.2439 31.8424 11.0256 32.3304 11.1834C32.3351 11.2013 32.3338 11.2233 32.3291 11.2412C32.3492 11.2519 32.3867 11.216 32.3988 11.198C33.0223 11.6359 33.9259 12.1363 33.8991 12.9981C33.8891 13.2244 33.8596 13.5904 33.578 13.6256L33.5773 13.6243Z" fill="#4C2C0A"/>
<path d="M36.064 9.34212C36.1807 9.44793 36.1941 9.62827 36.302 9.73009C36.5226 9.85121 36.6385 9.5777 36.5561 9.40068C36.5078 9.25428 36.5521 9.02469 36.4234 8.90025C36.3282 8.80575 36.1713 8.77913 36.0439 8.82239C35.8274 8.89426 35.5874 9.1112 35.6155 9.35743C35.761 9.3927 35.9165 9.33081 36.0634 9.34212H36.064Z" fill="#4C2C0A"/>
<path d="M11.861 16.4314C12.2941 16.3535 12.7238 16.2657 13.1481 16.1719C12.648 16.0767 12.1473 16.0128 11.6465 15.9702C11.7256 16.1206 11.7973 16.2743 11.861 16.4314Z" fill="#4C2C0A"/>
<path d="M15.633 15.3792C16.2169 15.3146 16.8102 15.2554 17.3679 15.0664C17.4772 15.0271 17.5852 14.9739 17.6508 14.8727C17.6978 14.8088 17.7025 14.709 17.6415 14.6531C17.504 14.542 17.3934 14.7243 17.2547 14.741C15.397 15.1422 13.5059 15.0451 11.6154 14.9479C11.3781 14.936 11.1414 14.9233 10.9048 14.9127C11.0529 15.075 11.1884 15.2454 11.3124 15.4217C11.3318 15.4217 11.3519 15.4231 11.3714 15.4237C12.0867 15.4477 12.802 15.471 13.5166 15.471C14.2312 15.471 14.9291 15.4484 15.633 15.3792Z" fill="#4C2C0A"/>
<path d="M29.2233 16.032C28.7447 16.1704 27.6305 16.2256 27.5366 16.8132C28.2774 16.6089 29.0483 16.5763 29.8206 16.5357C31.4228 16.4306 33.0069 16.2822 34.5951 16.0479C32.8521 15.7065 30.9831 15.6433 29.2233 16.032Z" fill="#4C2C0A"/>
<path d="M4.85565 9.66357C5.13654 10.2106 5.60849 10.6857 6.09117 11.0684C6.2963 11.1735 6.56312 11.0398 6.57853 10.8069C6.59328 10.6704 6.5182 10.564 6.41965 10.4781C5.98256 10.0728 5.46905 9.71282 4.85498 9.66357H4.85565Z" fill="#4C2C0A"/>
<path d="M136.874 15.137C137.448 14.4741 137.811 13.6237 138.281 12.8724C138.346 12.7752 138.32 12.6275 138.198 12.5922C137.789 12.503 136.963 14.7423 136.874 15.137Z" fill="#4C2C0A"/>
<path d="M139.567 14.4563C139.375 14.8955 139.19 15.3773 139.446 15.8325C139.483 15.348 139.775 14.9481 139.881 14.467C139.921 14.1888 139.585 14.1994 139.567 14.4563Z" fill="#4C2C0A"/>
<path d="M141.852 14.6659C141.827 15.0665 142.332 15.0618 142.366 14.6852C142.391 14.2846 141.886 14.2892 141.852 14.6659Z" fill="#4C2C0A"/>
<path d="M48.8887 16.2403C50.1483 14.6518 51.4153 12.9868 52.5972 11.3091C53.1731 10.4207 53.9232 9.59289 54.2564 8.57738C54.3047 8.29189 53.9715 8.25396 53.8676 8.49086C53.45 9.36796 52.7353 10.1 52.1903 10.9178C50.9648 12.6121 49.8527 14.3856 48.8893 16.241L48.8887 16.2403Z" fill="#4C2C0A"/>
<path d="M51.2648 17.3311C52.1383 17.5074 53.0111 17.6958 53.8987 17.7683C57.2607 17.6345 60.6508 17.2898 64.0034 17.2153C62.0398 17.0143 60.0897 16.6743 58.1161 16.5804C58.0175 16.5751 57.9196 16.5804 57.8211 16.5771C58.3239 15.7632 59.0848 15.0798 59.662 14.3019C60.1634 13.7069 60.6427 13.0894 61.1911 12.535C61.3989 12.3321 61.6389 12.159 61.7864 11.9022C61.3044 11.4629 60.0856 13.2823 59.7344 13.6277C59.0492 14.5734 58.2012 15.4757 57.7822 16.5764C56.841 16.5478 55.9031 16.6064 54.9653 16.6716C55.7389 15.6867 56.5326 14.6978 57.2754 13.6909C57.992 12.8431 58.6088 11.9075 59.5473 11.2713C59.8115 11.3605 60.0488 11.0557 59.9623 10.8108C59.8336 10.4222 59.3429 10.5666 59.0921 10.7509C57.0957 12.2382 55.8401 14.4769 54.7507 16.6869C54.2064 16.7242 53.6627 16.7581 53.117 16.7674C52.6659 16.7641 52.2127 16.7268 51.7602 16.6989C53.6614 14.3338 55.5183 11.8928 57.2379 9.38401C57.3243 9.26157 57.3083 9.06326 57.1748 8.98074C56.9623 8.85763 56.8316 9.12315 56.719 9.26023C56.7264 9.24959 56.7337 9.24094 56.7418 9.22962C54.866 11.5947 53.0721 14.049 51.5999 16.6909C51.3975 16.6769 51.1937 16.6822 50.9926 16.6603C49.9997 16.5571 48.9875 16.2969 47.9966 16.5458C48.3097 15.4065 48.9962 14.3385 49.0217 13.1386C49.0196 12.9217 48.9466 12.728 48.8574 12.5397C49.3575 11.7917 49.8838 11.0677 50.3617 10.311C50.7975 9.62292 51.2091 8.91818 51.6489 8.22542C51.8755 7.8847 52.0685 7.49474 52.4339 7.27313C52.5003 7.22855 52.4983 7.09346 52.4031 7.08813C51.9633 7.21857 51.7099 7.68639 51.431 8.03843C51.1394 8.43571 50.8598 8.84298 50.5783 9.24759C49.9253 10.2212 49.3092 11.2174 48.7099 12.2236C48.6831 12.1664 48.6523 12.1105 48.6301 12.0519C48.5296 11.1735 48.4773 10.2232 48.8232 9.39C49.2596 8.46699 50.2243 7.97853 51.0737 7.49341C51.3593 7.26581 51.0556 6.96502 50.8089 7.22456C49.0847 8.04508 47.9966 9.02466 47.7781 10.9978C47.6983 11.5135 47.5388 12.1218 47.6769 12.6541C47.7372 12.9463 47.9276 13.1918 47.9839 13.4827C47.5622 14.2167 47.1379 14.9487 46.731 15.6907C47.1707 15.0771 47.5776 14.4243 48.01 13.7954C48.0188 14.1907 47.9638 14.5754 47.8967 14.9726C47.8089 15.4724 47.699 15.9775 47.5535 16.474C47.514 16.649 47.3403 16.9271 47.5696 17.0423C47.9859 17.1727 48.4404 16.9318 48.8762 16.9837C49.6733 17.0223 50.4563 17.17 51.2379 17.3271C51.2131 17.3743 51.1836 17.4189 51.1588 17.4655C51.1944 17.4216 51.2286 17.3757 51.2641 17.3317L51.2648 17.3311Z" fill="#4C2C0A"/>
<path d="M63.4732 13.6908C63.7896 13.4812 63.8211 12.8264 63.3599 12.7898C62.9402 12.8277 62.725 13.2862 62.4502 13.5564C61.7309 14.4655 61.0109 15.487 60.8936 16.6668C61.4855 15.5109 62.5467 14.6172 63.4732 13.6908Z" fill="#4C2C0A"/>
<path d="M64.9595 16.0467C65.3128 15.6355 65.7197 15.1936 66.0656 14.7624C65.662 14.4463 65.1271 15.7679 64.9595 16.0467Z" fill="#4C2C0A"/>
<path d="M79.1138 6.62751C79.1138 6.62751 79.1138 6.63217 79.1158 6.63217C79.5093 6.36931 79.8418 6.0246 80.2078 5.74044C80.2326 5.70318 80.2554 5.66857 80.2641 5.62398C80.2125 4.73225 79.1681 6.36731 79.1138 6.62751Z" fill="#4C2C0A"/>
<path d="M83.3301 4.89792C82.7053 5.43895 82.0933 5.96667 81.6991 6.7293C81.6971 6.73196 81.6991 6.73462 81.7011 6.73462C82.399 6.31205 83.0264 5.77501 83.5607 5.16943C83.6439 5.02037 83.5011 4.79011 83.3295 4.89792H83.3301Z" fill="#4C2C0A"/>
<path d="M83.5203 14.3106C83.6343 14.2753 83.7161 14.1222 83.6142 14.0311C83.1919 13.699 80.816 16.7169 80.5137 17.1641C81.0895 16.653 81.6922 16.0847 82.2439 15.5324C82.2426 15.5337 82.2419 15.535 82.2406 15.5364C82.2439 15.533 82.248 15.5291 82.2513 15.5257C82.5416 15.2369 82.8493 14.9301 83.1443 14.6367C83.2643 14.5242 83.3755 14.4024 83.5203 14.3112V14.3106Z" fill="#4C2C0A"/>
<path d="M84.465 14.9213C83.9488 15.4377 83.4353 16.008 83.0371 16.6282C83.7678 16.1298 84.4878 15.4842 85.0516 14.7955C85.0335 14.3163 84.6085 14.7569 84.465 14.9213Z" fill="#4C2C0A"/>
<path d="M87.2797 14.6198C87.0458 14.5173 86.9479 14.874 86.8138 15.0051C86.2882 15.6752 85.8284 16.4026 85.4932 17.1845C86.1743 16.537 86.785 15.7611 87.3045 14.9585C87.3964 14.8674 87.397 14.6904 87.2797 14.6198Z" fill="#4C2C0A"/>
<path d="M90.3168 15.5643C89.5311 15.9516 88.8353 16.5466 88.3901 17.3025C89.1577 16.872 89.8724 16.273 90.6426 15.8232C90.8994 15.5277 90.5628 15.3973 90.3168 15.5643Z" fill="#4C2C0A"/>
<path d="M38.5915 26.0573C38.5593 26.1005 38.5258 26.1504 38.4956 26.205C38.6505 26.1937 38.8047 26.1824 38.9588 26.1691V26.1677C38.9756 25.9335 38.7276 25.9355 38.5915 26.0573Z" fill="#4C2C0A"/>
<path d="M50.4076 25.8696C50.4076 25.8696 50.4048 25.8732 50.4034 25.8753C50.4012 25.8781 50.3976 25.8816 50.3955 25.8852C50.3991 25.8809 50.4034 25.8753 50.4076 25.8696Z" fill="#4C2C0A"/>
<path d="M129.039 16.3907C129.466 16.6183 129.969 16.6462 130.444 16.6163C130.918 16.6196 131.523 16.7234 132 16.8279C133.265 17.134 133.981 18.3452 134.789 19.2576C135.274 19.8379 135.791 20.4042 136.302 20.9658C136.242 21.1295 136.169 21.2892 136.114 21.4543C136.102 21.5441 136.137 21.6366 136.23 21.6679C136.25 21.6752 136.271 21.6786 136.291 21.6786C136.363 21.6786 136.432 21.6353 136.481 21.5794C136.538 21.5055 136.586 21.4243 136.643 21.3498C136.715 21.427 136.783 21.5142 136.855 21.59C136.808 21.4809 136.749 21.3764 136.701 21.2673C137.375 20.3769 138.036 19.4705 138.63 18.5249C139.883 17.9699 141.234 17.7403 142.568 17.4575C145.297 16.9151 148.008 16.3155 150.713 15.6228C152.302 15.4184 153.971 15.5269 155.471 14.8894C156 14.6851 156.414 14.2865 156.851 13.9371C158.431 12.6275 159.959 11.2559 161.403 9.79654C162.136 9.14903 162.539 8.16613 163.376 7.63375C165.566 6.69943 167.681 5.56281 169.949 4.82546C170.936 4.52401 171.939 4.26114 172.899 3.87983C174.146 3.32283 175.361 2.69994 176.627 2.18221C179.392 0.938438 182.464 0.589066 185.203 -0.721916C186.008 -0.969471 186.834 -1.1558 187.672 -1.24764C188.567 -1.22701 189.464 -1.16512 190.36 -1.21836C192.616 -1.29356 194.87 -1.35478 197.129 -1.46591C197.23 -1.4719 197.332 -1.47789 197.434 -1.48322C197.754 -1.43597 198.073 -1.38872 198.4 -1.34081L198.382 -1.34413C198.707 -1.29888 199.044 -1.27293 199.376 -1.27293C199.588 -1.27293 199.797 -1.28291 200.003 -1.30554C199.543 -1.41135 199.076 -1.47789 198.61 -1.5491C198.746 -1.55775 198.887 -1.56041 199.02 -1.57239C197.993 -1.72545 196.964 -1.87318 195.935 -2.01027C195.112 -2.16533 194.296 -2.347 193.481 -2.53599C193.662 -2.5513 193.843 -2.5726 194.023 -2.58657C193.737 -2.59655 193.447 -2.60054 193.161 -2.6092C191.754 -2.93661 190.347 -3.26668 188.915 -3.47165C188.001 -3.59609 187.131 -3.76778 186.245 -3.90487C185.858 -4.08322 185.477 -4.27354 185.089 -4.44856C184.141 -4.86914 183.273 -5.46939 182.343 -5.92724C180.149 -6.99665 177.749 -7.57295 175.336 -7.89504C172.284 -8.291 169.278 -9.19338 166.173 -8.94383C165.999 -8.94582 165.823 -8.94382 165.648 -8.94249C164.998 -8.93717 164.342 -8.93318 163.709 -9.06228C162.191 -9.7191 160.838 -10.7612 159.82 -12.0582C159.098 -12.9832 158.675 -13.9928 157.925 -14.9191C157.161 -15.7556 156.057 -16.262 155.023 -16.6959C153.744 -17.1231 152.352 -17.0466 151.053 -17.4239C149.131 -17.957 147.013 -18.0615 145.11 -18.2924C144.39 -18.4182 143.652 -18.5619 142.981 -18.866C141.932 -19.4516 141.014 -20.2615 139.939 -20.8005C139.159 -21.2091 138.268 -20.8218 137.473 -21.1905C137.064 -21.3123 136.619 -21.4594 136.214 -21.6331C135.986 -21.7402 135.744 -21.8586 135.487 -21.7715C133.891 -22.196 132.401 -22.9094 130.885 -23.5456C131.099 -23.7659 131.297 -23.9995 131.475 -24.2477C131.923 -24.4793 132.385 -24.6956 132.794 -24.985C133.674 -25.7676 134.676 -26.3513 135.76 -26.8124C137.529 -28.1427 139.281 -29.5475 141.025 -30.9277C139.857 -30.1904 138.634 -29.4158 137.468 -28.6352C137.028 -28.339 136.59 -28.0362 136.165 -27.7161C135.954 -27.4945 135.753 -27.2643 135.455 -27.1498C134.873 -26.8304 134.142 -26.8537 133.52 -26.6307C133.027 -26.4225 132.554 -26.1636 132.093 -25.8914C131.921 -25.773 131.779 -25.6199 131.639 -25.4662C131.283 -25.2778 130.946 -25.0576 130.603 -24.8453C130.025 -24.9997 129.434 -25.1268 128.844 -25.2086C128.651 -25.2612 128.308 -25.2253 128.132 -25.3976C127.599 -26.0185 127.302 -26.8158 126.716 -27.3974C125.654 -28.4402 124.407 -29.4071 123.122 -30.1777C122.585 -30.4612 122.1 -30.921 121.456 -30.9097C119.286 -30.784 117.102 -30.6209 114.944 -30.9683C112.392 -31.1746 109.841 -31.1573 107.286 -30.949C104.421 -30.8312 101.59 -31.5007 98.7366 -31.6564C96.7462 -31.7768 94.7492 -31.8387 92.7722 -32.1142C91.3845 -32.2779 89.962 -32.5721 88.5582 -32.636C87.8114 -32.6786 87.0666 -32.6306 86.3211 -32.5847C85.5857 -32.5381 84.8496 -32.4916 84.1135 -32.5302C82.0575 -32.626 80.0242 -33.0758 77.9601 -32.986C77.1194 -32.9674 76.3746 -32.5681 75.6232 -32.238C74.9179 -31.9266 74.2147 -31.5872 73.6314 -31.0768C73.0442 -30.6083 72.5716 -30.0287 72.0587 -29.4876C71.3562 -28.8009 70.5416 -28.2345 69.9142 -27.4732C69.156 -26.7079 68.2456 -26.115 67.2494 -25.6671C66.6353 -25.5354 65.9951 -25.57 65.3743 -25.5034C64.7167 -25.4475 64.0973 -25.1973 63.4718 -25.0156C62.3999 -25.9307 61.1891 -26.6647 59.9945 -27.408C59.8718 -27.4819 59.7431 -27.5398 59.6037 -27.5611C59.6117 -27.8399 59.6037 -28.1108 59.5769 -28.3656C59.6057 -28.4495 59.6432 -28.5307 59.6687 -28.6152C60.1601 -30.0227 60.4839 -31.4814 60.7936 -32.9388C59.965 -31.2085 59.3939 -29.3332 58.7134 -27.5238C58.631 -27.416 58.523 -27.3302 58.4473 -27.219C58.1181 -27.1884 57.8325 -27.0214 57.5664 -26.8377C57.2091 -26.6367 56.8142 -26.517 56.4234 -26.3938C54.8487 -26.0132 53.2538 -25.7517 51.6295 -25.6099C49.9059 -25.6718 48.2146 -26.0691 46.495 -26.1816C46.4897 -26.1816 46.4836 -26.1822 46.4783 -26.1822C46.5225 -26.2115 46.5668 -26.2401 46.6103 -26.2694C46.5131 -26.2428 46.4106 -26.2175 46.312 -26.1915C45.4486 -26.2428 44.5603 -26.298 43.723 -26.0505C42.2435 -25.6758 40.841 -24.9584 39.3668 -24.5385C38.73 -24.3302 38.0542 -24.2557 37.4207 -24.0467C37.1492 -24.5332 36.8697 -25.0156 36.5626 -25.4788C36.4038 -25.7104 36.2388 -25.9839 36.0719 -26.1949C36.3642 -25.4036 36.6618 -24.6317 37.0406 -23.8817C35.7166 -22.9973 34.7016 -21.7162 33.4675 -20.718C32.5866 -20.0818 31.7935 -19.2081 30.9301 -18.518C30.2966 -18.0335 29.6255 -17.601 28.9987 -17.1085C27.721 -16.1163 26.7476 -14.8106 25.6837 -13.6068C25.4349 -13.1822 23.4325 -11.4952 23.2763 -10.7453C22.8741 -10.3027 22.439 -9.89612 21.896 -9.6246C21.8645 -9.60065 21.8444 -9.56737 21.8142 -9.54209C21.4442 -9.79962 21.0795 -10.0645 20.6994 -10.3074C19.8741 -10.8178 19.0026 -11.3089 18.1372 -11.7288C19.1126 -10.7273 20.1557 -9.78964 21.3014 -8.97976C20.9219 -8.44605 20.6491 -7.82317 20.2241 -7.32007C19.3412 -5.9878 17.6317 -5.82143 16.303 -5.12135C15.1493 -4.56169 14.135 -3.77643 13.0905 -3.04042C12.6032 -2.76824 12.1292 -2.46945 11.6586 -2.16599C11.6774 -2.1773 11.6948 -2.18862 11.7136 -2.20126C11.7384 -2.21657 11.7625 -2.23254 11.7886 -2.24851C10.0611 -1.10656 8.00969 -0.565529 6.18222 0.394081C4.81598 0.953079 3.4236 1.38097 2.19814 2.24343C1.7215 2.53224 1.23882 2.81174 0.770894 3.11187C0.313693 3.33148 -0.0335651 3.86785 0.120623 4.42817C0.197717 4.72764 0.207102 5.06038 0.368665 5.32856C0.380731 5.40309 0.390117 5.47763 0.404865 5.55216C0.447099 5.5455 0.490674 5.53552 0.533579 5.52953C1.1443 5.87624 1.59949 6.29682 2.11233 6.87245C4.12415 9.167 6.13731 11.4828 7.81863 14.0323C8.64454 15.2913 9.79693 16.2776 10.6604 17.5087C11.1444 18.1881 11.5822 18.9282 12.1587 19.5304C12.6407 19.8292 13.1562 20.0688 13.6758 20.2997C13.8212 20.488 13.9754 20.6684 14.2101 20.7369C14.2804 20.7595 14.3475 20.7695 14.4105 20.7695C14.4889 20.7695 14.5513 20.7382 14.6143 20.7096C16.5939 21.5208 18.6024 22.4292 20.7972 22.2655C22.7273 22.1916 24.7331 22.34 26.5994 21.781C26.9534 21.6533 27.2872 21.4889 27.6271 21.3285C27.9489 21.1821 28.2941 20.8986 28.6756 20.9099C29.1556 21.1289 29.4686 21.626 29.8943 21.9374C30.2443 22.2655 30.6659 22.5204 30.9938 22.8697C31.6494 23.8839 32.1334 24.9946 32.7166 26.0487C32.5014 26.3601 32.2849 26.6696 32.1133 27.0083C31.4067 28.5808 31.3383 30.3357 31.0038 32.004C31.8445 30.3457 32.5055 28.513 33.5908 26.973C33.623 26.9225 33.625 26.8679 33.6451 26.8153C33.8302 26.832 34.0158 26.8419 34.2009 26.8539C34.6172 26.9631 35.0657 26.9764 35.5074 26.9451C35.5182 26.9458 35.5289 26.9464 35.5403 26.9471C35.6221 26.9504 35.7139 26.9551 35.8064 26.9551C35.9392 26.9551 36.0686 26.9344 36.1859 26.8912C37.3624 26.7867 38.5369 26.6756 39.7121 26.5751C41.2962 26.4387 42.8931 26.3122 44.4778 26.5039C46.0251 26.6969 47.5107 27.1793 48.9741 27.6918C50.2874 28.1443 51.61 28.6594 53.0178 28.6594C53.048 28.6594 53.0782 28.658 53.1083 28.658C55.6819 28.6221 58.2562 28.493 60.8224 28.3106C62.9844 28.2015 65.1049 27.8036 67.114 26.985C69.1687 26.2603 71.2429 25.5855 73.3184 24.9194C73.5939 24.8023 73.9117 24.7371 74.212 24.6439C74.566 25.9542 74.9588 27.2492 75.4616 28.5149C75.416 28.1316 75.1358 25.7645 74.7041 24.4383C74.8381 24.3597 74.9595 24.2619 75.058 24.1321C75.1432 24.027 75.2531 23.9445 75.3718 23.8786C76.8614 23.0461 78.5091 22.5902 80.1241 22.0685C81.6921 21.5268 83.2635 20.7908 84.8651 20.2564C86.4264 19.748 87.9977 19.2749 89.5537 18.7518C95.1467 16.8319 100.687 14.7244 106.198 12.5922C106.47 12.5023 106.736 12.4005 107.008 12.3127C107.935 12.0166 108.904 11.9167 109.872 11.8548C112.388 11.566 114.959 11.4868 117.444 12.0372C119.84 12.718 122.252 13.4573 124.478 14.5859C125.931 15.3572 127.573 15.6687 129.042 16.394L129.039 16.3907ZM130.447 -24.265C130.438 -24.2683 130.43 -24.271 130.422 -24.2743C130.453 -24.285 130.483 -24.2963 130.513 -24.3069C130.491 -24.2916 130.469 -24.281 130.447 -24.265ZM29.7294 -15.2259C29.7006 -15.1986 29.6724 -15.1707 29.6436 -15.1434C29.6704 -15.1733 29.7026 -15.1966 29.7294 -15.2259ZM186.274 -2.4974C186.428 -2.47477 186.583 -2.45214 186.737 -2.42952C186.698 -2.42286 186.659 -2.41488 186.62 -2.40756C186.506 -2.44017 186.389 -2.46745 186.274 -2.4974ZM59.4039 -26.4557C59.3751 -26.4511 59.351 -26.4524 59.3208 -26.4464C59.3315 -26.463 59.3523 -26.473 59.3624 -26.4903C59.3758 -26.4784 59.3905 -26.467 59.4039 -26.4557ZM117.398 10.6137C114.099 10.0235 110.677 10.2743 107.388 10.8759C104.251 11.8063 101.255 13.1472 98.1923 14.2838C95.0522 15.5416 91.8504 16.6303 88.6621 17.7583C88.0132 17.9639 87.3636 18.1668 86.7146 18.3725C85.6078 18.7059 84.5171 19.0819 83.4358 19.4825C83.2561 19.5377 83.0805 19.6043 82.9002 19.6582C82.2452 19.8898 80.2186 20.4155 79.3578 21.0184C77.9092 21.4909 76.4457 21.9228 75.0956 22.6448C74.7161 22.8305 74.3488 23.0634 74.0712 23.3835C73.4424 23.5978 72.8049 23.7908 72.1734 23.9964C70.0858 24.6659 68.0069 25.3599 65.9442 26.0979C63.8445 26.9151 61.5713 26.985 59.3476 27.1394C57.0683 27.2293 54.7763 27.4635 52.497 27.3237C49.8811 26.808 47.4631 25.4804 44.7755 25.2455C41.8399 24.9107 38.915 25.5143 35.9895 25.6913C35.5329 25.6601 35.0757 25.6315 34.6219 25.5815C34.5522 25.1869 34.1868 24.9347 33.8925 24.6985C33.5338 24.218 33.3917 23.4434 32.9613 22.8857C32.2749 21.9328 31.3719 21.1242 30.4427 20.4075C29.9118 19.947 29.1918 20.0122 28.5281 20.0628C28.4604 20.0628 28.3974 20.0428 28.3276 20.0515C28.2854 20.0595 28.2459 20.0761 28.2043 20.0854C28.1285 20.0901 28.0508 20.0954 27.969 20.0994C27.9858 20.112 28.0166 20.1207 28.0401 20.1307C26.9279 20.4088 25.8968 21.0071 24.7069 20.9605C22.7789 20.9831 20.8287 21.2021 18.9108 20.9432C17.3039 20.522 15.7935 19.8631 14.2798 19.183C13.7911 18.5096 13.2414 17.882 12.7305 17.2179C12.1654 16.4486 11.5687 15.7006 10.9714 14.9573C10.1415 13.8726 9.42621 12.706 8.54867 11.6559C7.7174 10.5918 6.88344 9.52436 6.1239 8.41036C5.59229 7.50199 5.10559 6.74269 4.44928 5.85495C4.2227 5.54218 3.98605 5.23539 3.77086 4.91463C3.75008 4.78553 3.69711 4.67973 3.65354 4.56659C4.80526 4.08479 5.89195 3.42398 7.01752 2.87563C8.57884 2.08638 10.1589 1.35968 11.7283 0.561115C12.1647 0.325539 14.4454 -0.736557 16.0958 -1.74208C17.2945 -2.34833 18.4563 -3.02245 19.6683 -3.59609C20.3146 -3.79972 20.987 -3.97807 21.5226 -4.40264C21.5983 -4.33543 21.715 -4.44191 21.713 -4.55171C22.6294 -5.32033 23.214 -6.36645 23.9273 -7.30543C24.8383 -8.16855 25.6227 -9.15145 26.4727 -10.0711C27.9428 -11.5212 29.4096 -12.9673 30.7759 -14.5152C32.5423 -16.0764 34.1687 -17.7946 36.0297 -19.25C36.9722 -19.968 37.8793 -20.7147 38.8734 -21.3642C39.5271 -21.6457 40.2799 -21.6457 40.9677 -21.8307C41.9619 -22.0523 42.9634 -22.1914 43.9804 -22.2606C44.7359 -22.2992 45.464 -22.4815 46.19 -22.6665C47.2385 -22.2752 48.4103 -22.3764 49.5319 -22.3251C51.8199 -22.1322 54.2634 -22.7457 56.5273 -23.1277C56.9389 -23.2621 57.3318 -23.4405 57.7233 -23.6228C57.856 -23.6488 57.9887 -23.6634 58.1208 -23.6967C58.8656 -23.8857 59.6191 -23.9482 60.378 -24.0387C61.6423 -22.9314 63.449 -22.6186 65.0318 -22.1701C65.1364 -22.1508 65.2416 -22.1415 65.3455 -22.1415C65.8959 -22.1415 66.4282 -22.3904 66.9363 -22.5847C66.9062 -22.572 66.878 -22.5621 66.8458 -22.5487C68.5808 -22.9873 70.0188 -24.0547 71.2395 -25.3238C72.345 -26.2714 73.5161 -27.1864 74.6632 -28.0901C75.5125 -28.6857 76.4316 -29.2381 77.2234 -29.9195C77.2837 -29.9481 77.3413 -29.9781 77.4017 -30.004C77.7302 -29.9714 78.0593 -29.9515 78.3885 -29.9435C79.1098 -29.9228 79.8318 -29.9228 80.5525 -29.9169C83.1924 -29.9561 85.815 -29.666 88.4348 -29.3752C90.501 -29.0391 92.5885 -29.0398 94.6674 -28.8355C96.4761 -28.6345 98.504 -28.6105 100.361 -28.4635C101.491 -28.3563 102.651 -28.2612 103.789 -28.2192C105.507 -28.172 107.208 -27.955 108.911 -27.7434C110.625 -27.5671 112.363 -27.5112 114.08 -27.3681C115.228 -27.2363 116.396 -27.2456 117.557 -27.255C117.971 -27.2583 118.384 -27.261 118.795 -27.257C120.012 -27.233 121.233 -27.2417 122.448 -27.3355C122.485 -27.3381 122.524 -27.3428 122.562 -27.3455C123.003 -27.0001 123.391 -26.6853 123.566 -26.5755C124.426 -25.9886 125.055 -25.1707 125.856 -24.5219C126.769 -23.6761 127.831 -23.0292 129.09 -22.8728C129.106 -22.7976 129.127 -22.7417 129.145 -22.6712C129.153 -22.5467 129.169 -22.425 129.24 -22.3218C129.733 -20.7407 130.615 -20.4824 132.338 -20.1045C133.699 -19.8509 134.929 -19.2393 136.165 -18.6484C137.049 -18.2079 138.049 -18.2431 138.986 -18.0328C140.15 -17.6442 141.14 -16.8922 142.319 -16.5375C144.284 -15.6584 146.461 -15.6977 148.527 -15.2166C149.806 -14.8226 151.1 -14.4786 152.425 -14.2709C153.122 -14.1265 153.779 -13.9948 154.482 -13.7885C154.711 -13.6973 154.937 -13.6075 155.146 -13.493C155.49 -12.928 155.824 -12.355 156.171 -11.7927C156.829 -10.7253 157.602 -9.73507 158.37 -8.74618C159.028 -7.96358 159.883 -7.38795 160.632 -6.70717C160.842 -6.46095 161.048 -6.19676 161.36 -6.07631C162.441 -5.87733 163.57 -5.88066 164.699 -5.88265C165.167 -5.88399 165.634 -5.88066 166.099 -5.86735C166.138 -5.86402 166.176 -5.85936 166.215 -5.85537C167.755 -5.70897 169.299 -5.59118 170.833 -5.3922C170.851 -5.39087 170.868 -5.38621 170.886 -5.38421C171.249 -5.31966 171.613 -5.25844 171.973 -5.17991C172.171 -5.12402 172.377 -5.08009 172.577 -5.02553C173.096 -4.86248 173.609 -4.67282 174.129 -4.50646C174.628 -4.35872 175.128 -4.20633 175.629 -4.0546C176.207 -3.97009 176.785 -3.88557 177.364 -3.80172C177.399 -3.7964 177.436 -3.79107 177.471 -3.78575C177.635 -3.71654 177.803 -3.65865 177.966 -3.58877C179.746 -2.82747 181.558 -2.07083 183.491 -1.80264C183.759 -1.73809 184.031 -1.71813 184.302 -1.71014C183.764 -1.49985 183.228 -1.28091 182.684 -1.0826C181.245 -0.630745 179.768 -0.318638 178.339 0.166492C176.427 0.796692 174.626 1.69375 172.808 2.54289C171.643 3.03401 170.404 3.31351 169.211 3.72144C167.93 4.13204 166.744 4.77156 165.513 5.30061C164.319 5.88955 162.896 6.20299 161.986 7.22316C160.742 8.83826 159.246 10.2544 157.712 11.6026C154.691 14.347 154.856 13.8712 150.928 14.353C148.85 14.912 146.773 15.469 144.633 15.7512C142.692 16.1578 140.681 16.4 138.83 17.128C138.537 17.2931 138.185 17.347 137.929 17.5693C137.743 17.7682 137.635 18.0158 137.501 18.248C137.088 19.0313 136.735 19.8478 136.417 20.6744C136.072 19.9217 135.73 19.1671 135.344 18.4337C134.667 17.1274 133.743 15.6534 132.124 15.5103C131.602 15.4358 131.084 15.3872 130.557 15.4497C130.251 15.489 129.945 15.5515 129.633 15.5582C129.327 15.457 129.062 15.2434 128.769 15.1043C127.924 14.6452 127.038 14.2692 126.169 13.8566C125.038 13.3122 123.948 12.6854 122.756 12.2748C120.987 11.6805 119.234 10.9824 117.399 10.6151L117.398 10.6137Z" fill="#05030E"/>
</svg>
