<svg width="25" height="25" viewBox="0 0 25 25" fill="none" xmlns="http://www.w3.org/2000/svg">
<path fill-rule="evenodd" clip-rule="evenodd" d="M5.96819 5.19343C7.33258 2.59726 10.2285 1.36632 13.0302 1.34382C15.4089 1.32474 17.7183 2.17791 18.9656 3.80616L19.6353 5.77641L19.3891 8.17444L17.5243 8.60944L18.5103 9.01951V9.01515L20.4936 9.75343L19.1635 10.3759L17.9126 22.5854L17.8231 23.4616V23.4644H4.09619L5.96819 5.19343ZM17.1172 5.99321C16.9008 4.25504 14.9383 2.95693 12.6303 2.95224C12.4765 2.95191 12.3212 2.95688 12.1646 2.96832C9.66025 3.15151 7.8176 4.80291 8.04832 6.65682C8.15908 7.54637 8.72829 8.31943 9.56594 8.86435L8.60641 11.3487L10.7392 10.5255L11.8056 12.3257L13.0859 10.9033L14.9346 11.7397L14.4805 9.38143C16.1878 8.79291 17.2993 7.45665 17.1172 5.99321ZM13.3393 6.50883C13.3393 5.82587 13.8926 5.27255 14.5756 5.27255C15.2586 5.27255 15.812 5.82577 15.812 6.50883C15.812 7.19185 15.2586 7.74516 14.5757 7.74516C13.8927 7.74516 13.3393 7.1918 13.3393 6.50883ZM9.17918 6.34327C9.17918 5.80777 9.61343 5.37362 10.1489 5.37362C10.6844 5.37362 11.1186 5.80768 11.1186 6.34327C11.1186 6.87877 10.6844 7.31302 10.1489 7.31302C9.61343 7.31302 9.17918 6.87877 9.17918 6.34327ZM11.1025 9.06788L12.1308 7.60744L12.8178 9.26569L11.1025 9.06788ZM17.4628 17.9874C14.0462 16.8888 9.60213 14.0608 7.04346 11.3194C6.45475 11.8392 6.05903 12.7321 6.09269 13.7261C9.30349 14.5035 13.7695 17.4369 16.5165 19.9077C16.9899 19.5351 17.3839 18.8039 17.4628 17.9874ZM17.8466 13.8081C17.9547 12.8328 17.543 12.1496 16.871 11.6153C15.7488 12.5511 14.2497 13.6353 12.604 14.6387C13.007 14.8926 13.4158 15.1373 13.83 15.3726C15.2967 14.7124 16.697 14.158 17.8466 13.8081ZM10.8138 16.8315C10.4585 16.6176 10.099 16.4106 9.73572 16.2104C8.37368 16.8671 6.99949 17.394 5.72355 17.6797C5.72425 18.4766 5.97133 18.9749 6.46479 19.3262C7.68977 18.5281 9.21808 17.6559 10.8138 16.8315Z" fill="#DBDEFF"/>
<path opacity="0.4" fill-rule="evenodd" clip-rule="evenodd" d="M18.9658 3.80615L19.6354 5.7764L21.4181 7.647L20.0646 22.5854H17.9128L17.8232 23.4615H20.8642L20.9009 23.0631L22.3072 7.52836L22.3261 7.33064L22.1884 7.18556L18.9658 3.80615Z" fill="#DBDEFF"/>
</svg>
