<svg xmlns="http://www.w3.org/2000/svg" width="136" height="136" fill="none"><path fill="#DBDEFF" fill-rule="evenodd" d="M97.196 24.025c-.268.125-.413.316-.413.542 0 .165.052.289.235.564.08.12.146.236.146.256 0 .02-.123.157-.273.304-.653.64-1.156 1.43-1.57 2.467l-.156.388-.58.117c-1.478.297-2.863.748-4.65 1.516-1.657.712-2.41 1.152-3.064 1.79-.28.274-.313.297-.46.316-.234.03-.448.149-.95.525-.96.72-1.658 1.338-2.593 2.296a25.585 25.585 0 0 0-3.057 3.785c-.871 1.298-.929 1.423-.686 1.48.122.03.165.084.132.169-.016.04-.04.03-.134-.06-.192-.183-.197-.181-.403.18-2.007 3.519-2.968 7.538-3.194 13.353-.125 3.24.366 6.022 1.637 9.272 1.153 2.947 2.476 5.294 4.146 7.353 1.947 2.403 4.418 4.417 7.022 5.725 3.146 1.58 7.067 2.441 11.724 2.574l.715.02.808-.163c5.948-1.202 10.385-3.68 13.602-7.596a37.48 37.48 0 0 0 3.338-4.854c1.957-3.437 2.993-6.928 3.203-10.796.042-.766.042-2.819 0-3.597-.15-2.766-.611-5.296-1.396-7.657-1.326-3.986-3.578-7.498-6.492-10.122-3.053-2.75-6.954-4.604-11.697-5.561-.635-.128-.705-.149-.767-.226-.105-.13-.334-.587-.562-1.12a18.842 18.842 0 0 0-.34-.752c-.52-1.048-1.15-1.5-2.035-1.459l-.272.013.072-.108c.239-.354.15-.706-.228-.903-.217-.112-.603-.127-.808-.03Zm.892.213c.015.015-.008.14-.052.278-.062.196-.073.273-.05.357.033.118.022.142-.066.142-.076 0-.242.084-.334.168-.054.05-.096.06-.185.046a.427.427 0 0 1-.165-.06c-.077-.064-.158-.277-.181-.477l-.022-.18.21-.118c.314-.177.422-.21.632-.196a.608.608 0 0 1 .213.04Zm-.43 1.623c.06.026.11.061.11.08 0 .047-.1.063-.467.073-.307.008-.32.006-.272-.048.057-.063.295-.146.43-.149a.587.587 0 0 1 .199.044Zm.89.64a.608.608 0 0 1 .066.176l.022.108-.081-.062a.923.923 0 0 1-.264-.377l-.051-.125.131.105c.073.058.152.136.177.174Zm-1.45-.186c.008.007 0 .028-.02.046-.053.055-.238.085-.389.064-.12-.016-.132-.024-.088-.061.09-.075.432-.108.498-.05Zm-.139.36c-.011.019-.138.07-.283.114-.275.085-.401.17-.401.272 0 .047.026.063.119.07.098.009.12.024.13.087.009.065 0 .074-.059.058a.55.55 0 0 0-.225.033c-.086.027-.165.042-.176.031-.03-.03.044-.214.134-.333.118-.156.308-.27.549-.332.219-.056.247-.056.212 0Zm1.52.27a.783.783 0 0 1 .168.181c.046.08.076.095.176.095.105 0 .13-.015.2-.127.124-.199.172-.174.357.183.089.172.22.452.29.624l.128.311-.086.019a1.13 1.13 0 0 0-.133.038c-.026.01-.605.029-1.287.042-.681.013-1.279.034-1.327.046-.086.023-.087.02-.054-.066.068-.181.292-.604.42-.794.187-.277.363-.46.547-.568.207-.122.43-.116.6.016Zm-2.126.65c-.069.046-.233.187-.364.311-.255.243-.445.392-.445.348 0-.038.153-.265.25-.372a1.13 1.13 0 0 1 .446-.298c.234-.097.268-.094.114.01Zm2.082.969c0 .034-.035.086-.079.114-.067.045-.108.047-.293.017a4.584 4.584 0 0 0-.343-.045l-.127-.008.143-.07c.113-.056.2-.07.421-.071.256 0 .278.004.278.063Zm.667-.034c0 .034-.144.14-.234.173-.078.029-.147-.031-.147-.127 0-.071.011-.076.19-.076.105 0 .191.014.191.03Zm.667-.01c0 .048-.142.134-.306.185-.08.025-.17-.05-.17-.143 0-.055.024-.062.238-.062.131 0 .238.01.238.02Zm-.016.601c.634.088.779.118.779.163 0 .068-.182.203-.327.242-.31.085-.914-.047-1.258-.275l-.166-.11-.05.118c-.04.097-.044.196-.026.559.013.242.029.44.036.44.008 0 .095-.04.195-.091.232-.118.586-.245.848-.306.382-.09 1.299-.152 1.193-.081-.027.017-.32.12-.652.226-.688.223-1.023.383-1.22.586-.118.12-.135.154-.116.23.052.208.345.395.619.396h.109l-.075.08c-.153.164-.463.167-.743.007-.183-.105-.2-.149-.137-.352.03-.095.054-.229.054-.297v-.125h-.294c-.22 0-.35-.019-.516-.074-.216-.07-1.487-.679-1.465-.7.029-.03 1.12.058 1.294.103.25.065.34.112.463.239l.097.1.09-.079.092-.078-.042-.188a4.612 4.612 0 0 1-.06-.325l-.017-.14-.147.022a6.43 6.43 0 0 0-.416.087c-.365.087-.671.087-.866 0a.542.542 0 0 1-.15-.083c0-.01.06-.052.134-.095.17-.1.514-.203.802-.242.31-.042 1.516-.015 1.938.043Zm-3.729.107c.02.293-.225.43-.764.428-.323-.002-.354.014-.473.236l-.085.159-.46.021c-.52.024-.815.085-1.668.346-.903.277-1.58.567-3.034 1.306-1.4.71-1.685.883-2.59 1.567a24.488 24.488 0 0 0-5.607 6c-.164.246-.386.564-.494.707-.203.268-.332.547-.332.721 0 .08-.047.149-.247.359-.446.468-.662.893-1.083 2.133-.308.907-.44 1.227-.645 1.571-.137.229-.18.35-.333.919-.912 3.41-1.245 5.818-1.12 8.101.024.46.045 1.353.046 1.986 0 1.084.006 1.19.092 1.838.111.841.127 1.628.04 2.013-.062.278-.036.343.09.224.143-.135.18-.07.243.42.208 1.612.738 3.053 1.74 4.728.245.41.296.517.291.614a.654.654 0 0 0 .043.236c.064.153.062.174-.015.174-.035 0-.063.014-.063.032 0 .017.011.032.026.032.038 0 .43.407.566.589.065.086.316.479.557.872.466.759.608.967.866 1.27.185.218.538.509.757.626.113.06.15.098.15.152 0 .04.022.125.048.188a.731.731 0 0 1 .048.234c0 .111.01.123.167.2.091.045.225.1.297.121.113.034.141.062.217.218.404.828 1.215 1.644 2.587 2.603.923.644 1.328.939 1.65 1.2.179.146.34.257.357.246.017-.01.03-.048.03-.083 0-.055.021-.046.151.064.083.07.337.237.564.372.227.135.48.301.562.37.14.117.161.125.355.125.148 0 .307.032.566.114.244.078.394.11.467.098.09-.015.13.002.254.106.173.146.406.268.856.447.505.202.703.315.885.502.151.156.18.172.305.172.165 0 .454.137.536.256.071.1.1.227.064.282-.062.095-1.95-.601-3.102-1.144l-.35-.165-.15.07c-.081.04-.156.091-.166.117-.013.034-.06.009-.184-.097-.23-.197-.43-.32-1.066-.657-.629-.335-.965-.553-1.214-.79l-.174-.168-.202.05c-.143.036-.234.042-.317.02-.112-.027-.116-.033-.106-.15.01-.11-.005-.137-.144-.272a7.509 7.509 0 0 0-.39-.342c-.13-.105-.257-.238-.285-.294-.048-.101-.055-.104-.258-.104-.204-.001-.21-.003-.258-.106-.088-.186-.215-.305-.577-.546-.405-.27-.5-.361-.59-.568l-.066-.147-.302.003c-.291.004-.302.002-.302-.066 0-.111-.14-.47-.25-.644a1.602 1.602 0 0 0-.847-.645c-.019 0-.027-.054-.02-.13.011-.12.002-.14-.124-.248-.283-.245-.37-.355-.57-.726-.268-.497-.836-1.349-1.512-2.269-.817-1.111-.837-1.143-.938-1.44-.125-.367-.287-.715-.591-1.264-.564-1.018-.75-1.512-.835-2.214-.028-.237-.06-.335-.19-.597-.316-.633-.486-1.283-.746-2.845a69.816 69.816 0 0 0-.27-1.519c-.278-1.427-.36-2.307-.361-3.82 0-1.413.08-2.422.315-3.965.175-1.143.541-2.807.892-4.044.646-2.283 2.123-5.175 3.757-7.353 1.15-1.534 3.045-3.423 4.816-4.799 3.166-2.46 6.117-3.78 9.673-4.326.514-.08.54-.08.544-.011Zm6.042.114c.083.036.131.081.154.148l.033.097h.434c1.433.002 2.982.46 3.769 1.116.202.167.271.171.271.014 0-.042.02-.084.044-.094.068-.026.475.175.864.426.56.362.679.42 1.001.489.164.035.334.09.378.123.077.057.155.21.124.242-.009.009-.229-.07-.491-.176-.636-.258-1.637-.599-3.604-1.228-.9-.288-1.843-.598-2.097-.688-.4-.143-.483-.162-.631-.148-.115.011-.195.04-.244.086-.089.084-.141.059-.141-.068 0-.054-.017-.093-.04-.093-.09.002-.309.127-.36.207l-.056.085-.041-.074c-.044-.08-.056-.343-.022-.47.019-.075.027-.076.277-.06.142.008.312.039.378.067Zm.592 1.187c.099.052.137.12.109.193-.029.076.113.058.259-.033.154-.095.21-.098.285-.015.032.035.197.15.368.256.17.105.336.228.368.272.049.066.142.103.535.206 1.82.48 3.293 1.23 5.838 2.979.714.49.795.527.927.427.104-.08.191-.056.3.08.077.097.125.129.195.129.083 0 .118.036.321.343.58.875 1.23 1.666 1.952 2.374.322.315.441.457.564.671.086.15.325.51.53.8.408.574.742 1.122 1.316 2.158.295.53.408.705.541.831a1 1 0 0 1 .191.224c.012.035.041.26.065.5.048.51.09.623.342.93.211.258.267.403.29.757.02.298.064.395.219.478.292.154.379.347.434.966.039.44.093.637.216.793.13.164.137.2.068.354-.132.299-.047.514.223.557.122.02.135.03.116.093a2.157 2.157 0 0 0-.039.175c-.011.057-.03.104-.042.104-.065 0-.194-.146-.227-.257-.073-.245-.211-.308-.452-.207-.153.064-.157.063-.101-.046.063-.122.061-.18-.012-.34a1.01 1.01 0 0 0-.449-.446.7.7 0 0 1-.157-.095c0-.008.023-.073.051-.143.067-.17.043-.225-.098-.225h-.112l-.001-.184c-.001-.21-.072-.405-.291-.797-.299-.534-.337-.764-.2-1.209a1.8 1.8 0 0 0 .079-.394c0-.198-.129-.557-.397-1.108-.342-.7-.485-.89-.916-1.212-.444-.33-.665-.569-.737-.794-.05-.154-.134-.248-.996-1.114-1.25-1.255-2.08-1.99-2.929-2.593-.252-.178-.316-.246-.608-.648-.47-.646-.735-.955-1.004-1.172-.244-.198-.559-.375-.789-.445-.114-.034-.157-.076-.302-.29-.162-.24-.176-.252-.29-.252-.163-.001-.309-.067-.528-.24-.195-.155-.328-.208-.515-.208-.07 0-.232-.056-.415-.144-.428-.203-.809-.336-1.787-.623-1.672-.49-2.203-.73-2.654-1.197-.166-.172-.241-.182-.367-.05-.132.139-.174.125-.174-.06 0-.236-.222-.655-.317-.597-.055.035-.037.142.047.266.09.134.101.199.032.199-.026 0-.079-.069-.119-.152-.07-.149-.075-.152-.213-.149-.149.003-.256.09-.256.206 0 .084-.038.097-.17.06-.133-.037-.13-.03-.072-.169.09-.217.261-.302.915-.453.51-.117.634-.167.712-.287.06-.093.189-.105.328-.033Zm-2.73.175c0 .07-.135.243-.23.294-.115.062-.23.084-.302.057-.114-.043-.054-.113.198-.234.128-.06.242-.126.253-.145.034-.055.081-.039.081.028Zm-2.893-.01c.077.016.126.06.207.187.115.181.276.281.344.213.029-.029.027-.054-.007-.109-.13-.206-.144-.244-.109-.28.068-.068.252.045.348.214.048.085.117.188.153.229.056.063.058.078.018.103-.069.044-.208.037-.337-.017a1.332 1.332 0 0 0-.124-.048c-.005 0-.009.11-.007.245.002.218-.006.252-.07.304-.11.09-.16.074-.16-.048a.849.849 0 0 0-.502-.76c-.247-.117-.206-.21.11-.248a.65.65 0 0 1 .136.016Zm-1.298.077c.094.018.231.062.305.098l.136.066-.1.197a1.038 1.038 0 0 0-.118.453l-.019.255-.102-.223a1.808 1.808 0 0 1-.123-.36c-.024-.15-.032-.155-.189-.089-.083.035-.11.066-.11.125 0 .043.022.087.05.097.026.01.076.081.11.158.068.156.167.683.152.814-.01.086-.011.086-.173-.076-.13-.129-.17-.195-.196-.32a.835.835 0 0 1-.016-.253c.017-.094.015-.094-.147.064-.201.195-.352.417-.352.517 0 .07-.013.075-.171.075-.275 0-.802.059-1.18.132-.808.157-1.585.437-3.112 1.122-.49.22-1.017.448-1.172.507-.315.12-.365.161-2.114 1.724-.443.395-1.043.918-1.333 1.162-.385.322-.529.462-.531.515a.76.76 0 0 1-.064.206c-.055.121-.069.132-.153.116-.185-.035-.305.016-.507.213-.137.135-.233.2-.332.227l-.139.038.022.258c.022.274-.01.358-.123.315-.063-.025-.066-.128-.005-.245.042-.08.04-.085-.008-.058-.08.045-.891.88-1.102 1.134a5.366 5.366 0 0 0-1.084 2.142c-.056.243-.064.257-.202.346-.098.062-.177.09-.247.083l-.104-.008-.17.494a25.34 25.34 0 0 1-.417 1.102c-.569 1.394-.69 1.708-.84 2.173a9.356 9.356 0 0 0-.335 1.408c-.02.147-.032.165-.144.218-.186.087-.286.31-.286.636 0 .23-.005.25-.065.25-.046 0-.079-.036-.112-.12-.094-.243-.137-.272-.261-.175-.063.049-.085.126-.151.534a5.984 5.984 0 0 0-.078.678c0 .19.004.201.076.201.085 0 .123-.089.096-.223-.015-.071-.013-.074.02-.022.101.162-.099.45-.441.636l-.16.087-.022-.144c-.047-.314.08-1.106.378-2.364.094-.394.151-.578.182-.584.083-.015.255.12.304.238a.47.47 0 0 1 .023.279c-.035.23-.035.228.052.216.112-.016.187-.092.219-.226.118-.488.117-.486.035-.554-.078-.063-.116-.063-.41-.004l-.107.022.019-.413c.039-.826.21-1.337 1.037-3.109.143-.305.31-.707.373-.895.073-.222.16-.408.248-.533.075-.105.296-.472.493-.815.557-.972.862-1.382 1.25-1.683.114-.088.12-.102.084-.17-.032-.061-.031-.11.002-.25.05-.213.145-.293.274-.234.1.046.116.03.169-.167.061-.231.253-.504.547-.781.545-.513.715-.703.816-.91.09-.184.114-.208.251-.257.18-.064.265-.149.435-.434.098-.166.159-.23.269-.285a.661.661 0 0 1 .227-.073c.091 0 .09.004.14-.302.033-.205.099-.305.2-.305.049 0 .106.018.128.04.03.031.056.016.124-.072.145-.19.294-.313.756-.623.409-.273.582-.422.716-.615.038-.054.103-.079.285-.107.445-.069.714-.214 1.274-.688.382-.324.638-.499.847-.576.082-.03.153-.059.158-.063a1.39 1.39 0 0 0 .04-.21c.015-.112.05-.276.076-.365l.048-.162h.152c.083 0 .23-.027.326-.06a1.39 1.39 0 0 1 .359-.062c.169-.002.182-.007.163-.066a1.303 1.303 0 0 1-.036-.161c-.028-.18.015-.19.798-.193.82-.002.888-.014 2.093-.36.664-.192 1.021-.28 1.356-.335.16-.026.505-.02.67.01Zm4.628.193-.161.32c-.118.232-.158.349-.171.502l-.019.2.126.12c.132.127.31.199.49.199.096 0 .101.005.057.05-.057.057-.09.059-.403.028-.202-.02-.241-.035-.309-.116a.709.709 0 0 1-.113-.227c-.069-.255.01-.761.156-.998.051-.084.077-.096.207-.097.082 0 .145.008.14.019Zm-54.414.061c-1.3.128-2.503.708-3.504 1.692-1.095 1.075-1.631 2.316-1.512 3.497.053.517.22.955.515 1.35.36.482.755.637 1.307.513.673-.15 1.257-.655 1.631-1.408.173-.348.211-.472.34-1.105.156-.758.26-1.155.361-1.383l.087-.195-.01 3.052c-.013 4.076-.04 4.681-.247 5.75-.086.444-.188.692-.404.979-.33.439-.72.619-1.024.473-.145-.07-.142-.106.007-.106.142 0 .409-.12.507-.228.114-.125.209-.38.224-.602.012-.18.004-.224-.061-.32-.185-.272-.568-.404-.936-.323-.158.035-.211.066-.35.209-.438.451-.387 1.088.128 1.6.421.418.958.562 1.45.39.136-.05.51-.273 1.111-.666a280.724 280.724 0 0 0 2.804-1.848c.014-.012-.15-.022-.365-.021-.332 0-.416-.01-.569-.07-.31-.126-.54-.44-.611-.841l-.02-.115.166-.037c.306-.068 1.299-.226 2.36-.375.622-.087 1.11-.171 1.2-.206l.15-.06.077.15c.086.17.223.31.428.438.172.106.124.125.93-.372 1.363-.839 2.39-1.567 2.311-1.638a2.492 2.492 0 0 0-.369.142c-1.109.48-1.744.567-2.078.287-.139-.117-.107-.191.137-.322.147-.08 1.559-1.103 1.72-1.248.028-.025-.365-.835-.719-1.485-.501-.92-.856-1.295-1.225-1.295-.268 0-1.01.448-1.266.764a1.832 1.832 0 0 0-.367.734c-.058.211-.067.334-.068.9-.002.694.046 1.119.22 1.95.043.203.078.396.078.43 0 .061-.125.273-.161.274-.024 0-.082-.2-.106-.368-.01-.07-.047-.48-.083-.911-.136-1.667-.277-2.38-.541-2.747-.243-.338-.549-.339-.928-.003l-.14.125-.021-.915c-.024-1.054-.027-1.927-.007-1.927.014 0 .526.18 1.638.575.888.315 1.332.42 1.843.439.524.018.795-.032 1.16-.213.304-.15.632-.439.752-.662.103-.19.167-.535.143-.77a.77.77 0 0 0-.035-.192c-.009-.009-.054.028-.1.082a1.093 1.093 0 0 1-.286.2c-.173.086-.252.105-.499.117-.667.035-1.484-.258-2.837-1.017-1.063-.597-1.966-.934-2.864-1.07a7.89 7.89 0 0 0-1.472-.048Zm52.916.614c.044.07.013.251-.069.413a1.612 1.612 0 0 0-.11.269l-.022.096-.065-.144c-.073-.161-.15-.605-.111-.642.058-.056.342-.05.377.008Zm-1.417.507c0 .139-.26.254-.573.255-.196 0-.534-.078-.593-.138-.03-.03.048-.036.355-.027.43.011.57-.025.678-.174.049-.067.057-.069.093-.021.022.029.04.076.04.105Zm12.688.227c3.137 2.03 5.388 4.314 6.588 6.685.148.293.219.397.358.52.587.521.877 1.058.782 1.447-.022.09-.017.104.036.104.075 0 .127.06.258.294.056.1.137.208.18.24.058.042.086.103.107.233.04.249.11.412.358.831.268.454.344.652.367.96a.773.773 0 0 0 .146.447c.867 1.417 1.426 4.128 1.593 7.721l.036.71c.018.322.017.324-.056.335-.054.008-.079.036-.091.106-.015.084-.025.067-.087-.144-.137-.467-.169-.795-.2-2.046-.026-1.075-.064-1.698-.115-1.911-.026-.104-.087-.07-.106.058l-.016.109-.058-.09c-.126-.194-.148-.33-.148-.905 0-.617-.009-.651-.207-.841a1.033 1.033 0 0 1-.151-.176c-.019-.035-.045-.244-.057-.464-.02-.364-.041-.464-.23-1.119-.509-1.752-1.008-2.984-1.689-4.17l-.183-.317.073-.055.073-.055-.319-.395c-.87-1.08-1.481-2.019-2.03-3.12-.192-.384-.301-.57-.322-.55-.02.022-.082.019-.181-.008-.122-.033-.154-.033-.175.001-.018.03-.088-.034-.236-.213-.116-.14-.522-.556-.902-.926-.381-.37-.799-.803-.929-.963l-.237-.291h-.168c-.157 0-.168-.005-.168-.078 0-.088-.059-.157-.197-.23-.08-.04-.093-.063-.078-.136.017-.085-.004-.1-.624-.453-.847-.483-1.253-.758-1.571-1.065-.144-.139-.262-.266-.262-.281 0-.016.036-.042.08-.06.044-.016.089-.053.1-.08.01-.028.037-.043.06-.035.022.01.292.178.598.377Zm-9.892.585c.167.048.413.155.413.179 0 .041-.443.104-.592.084a.645.645 0 0 1-.2-.06c-.07-.043-.145-.197-.119-.24.018-.03.358-.004.498.037Zm-55.135.123c-.272.204-.928.747-1.473 1.219-1.02.884-1.61 1.356-1.646 1.32-.028-.029.196-.664.328-.929.225-.45.565-.875.897-1.12.442-.327 1.154-.554 1.75-.559l.239-.002-.095.071Zm2.115.053c.475.14.974.316.996.351.017.028-.352.627-.533.864a2.573 2.573 0 0 1-.333.34c-.193.16-.533.365-.606.365-.025 0-.035-.294-.035-1.023 0-.837.008-1.023.043-1.023.023 0 .234.057.468.126Zm55.53.111c.183.042.626.173.984.29.664.218 1.24.368 1.417.368.198 0 1.612.804 2.761 1.569 2.846 1.894 4.882 4.151 6.182 6.856.312.648.448.975.407.975-.135 0-.221-.165-.283-.543l-.039-.24-.25-.236c-.272-.257-.379-.412-.714-1.04-.2-.377-.251-.446-.571-.768a4.821 4.821 0 0 1-.586-.706c-.78-1.172-1.467-1.853-3.355-3.327-.491-.383-.721-.585-.853-.75-.261-.325-.357-.38-.77-.435-.429-.059-.65-.159-1.274-.576-.625-.418-.735-.465-1.149-.49-.321-.02-.364-.032-1.071-.299-.819-.309-1.406-.482-1.818-.537-.378-.05-.395-.06-.194-.127.265-.087.757-.08 1.176.016Zm-7.021.019c-.044.015-.323.094-.62.176a25.122 25.122 0 0 0-4.432 1.712c-.39.2-1.292.706-1.513.85l-.09.06.092-.122c.532-.704 2.815-1.91 4.497-2.376.654-.181 1.5-.317 2.018-.325.11-.002.116.002.048.025Zm-.609.717c.046.046.045.055-.005.106-.043.044-.123.059-.36.067-.358.014-.38-.022-.105-.165.19-.099.377-.102.47-.008Zm3.13.045c.043.067.123.16.178.208.2.168.5.09.777-.2.114-.12.156-.122.801-.035 3.531.476 6.366 1.668 8.827 3.712.424.352 1.611 1.552 1.991 2.012.865 1.047 1.595 2.152 2.299 3.478.304.574.309.587.274.707-.06.202-.044.265.134.522.171.248.24.42.253.636.005.086.041.154.138.26.332.362.453.64.664 1.515.165.685.258.99.424 1.392.213.514.252.682.382 1.604.175 1.253.203 1.605.184 2.377l-.015.664-.151.48c-.191.608-.222.93-.11 1.131l.073.13-.1.553c-.15.833-.17 1.04-.162 1.658l.007.567-.086.103c-.197.235-.297.556-.401 1.277-.084.588-.096.62-.232.595l-.104-.02.013.21c.019.297-.036.536-.254 1.097-.2.518-.281.849-.281 1.152 0 .164-.01.193-.104.284a.506.506 0 0 1-.204.122c-.095.02-.105.037-.231.408-.313.924-.812 1.754-1.61 2.679l-.298.344.096.072c.118.087.138.25.031.25-.1 0-.307.119-.467.267-.079.073-.281.342-.447.597-.419.64-.462.69-.702.805-.299.144-.482.334-.76.792-.394.649-.701.906-1.011.847-.084-.016-.095-.005-.165.159-.135.317-.415.522-1.028.753-.295.111-.336.155-.28.302.047.126.041.146-.044.146-.16 0-.819.192-1.078.314a2.95 2.95 0 0 0-.773.507c-.216.189-.278.207-.318.094l-.026-.075-.297.173c-.705.41-1.48.668-2.923.97-.321.067-.599.137-.617.156-.024.024-.018.052.02.094.053.059.044.063-.288.131-.189.04-.496.107-.682.151l-.34.08-.1-.074c-.078-.059-.097-.093-.087-.163.011-.072.001-.087-.053-.087-.117 0-.158.054-.176.227-.02.203-.076.234-.13.07a1.786 1.786 0 0 0-.082-.21l-.044-.086-.145.11c-.357.275-.79.276-1.88.004-.388-.097-.787-.18-.886-.184-.177-.007-.184-.004-.302.13-.078.088-.122.17-.122.225 0 .117-.11.166-.415.185-.277.018-.42-.016-.983-.235-.532-.207-.547-.22-.366-.328.062-.036.112-.088.112-.114 0-.026-.071-.115-.159-.197-.127-.12-.158-.17-.158-.253 0-.099-.007-.104-.148-.124-.277-.038-.615-.023-.733.033a.55.55 0 0 0-.241.28c-.006.017-.13-.018-.276-.077-.296-.12-.489-.283-.524-.444-.02-.097-.026-.1-.204-.1-.28 0-.484-.074-.62-.226-.065-.071-.111-.147-.104-.168.021-.06.156-.026.248.062.054.052.112.078.16.071.064-.009.073-.026.066-.12-.012-.15-.082-.218-.282-.277-.218-.063-.289-.04-.315.102-.024.126-.021.126-.347-.01-.343-.144-.63-.35-1.24-.887-.14-.124-.31-.269-.377-.322l-.121-.098.085-.102c.116-.139.639-.55.699-.55.027 0 .135.08.24.177.173.16.3.238.383.238.057 0-.105-.267-.268-.44a6.775 6.775 0 0 0-.608-.513c-.245-.186-.53-.418-.632-.516-.165-.156-.181-.165-.135-.075.088.174.393.478.67.666l.264.181-.237.22c-.227.213-.398.295-.342.166.09-.207.02-.371-.206-.487-.163-.084-.747-.238-.81-.214-.035.014-.05.061-.05.166v.147L87 68.814c-.596-.463-1.204-1.284-1.37-1.848-.034-.117-.062-.149-.17-.196-.3-.132-.408-.356-.54-1.128l-.02-.121-.083.065c-.211.167-.364.033-.697-.612-.172-.334-.303-.543-.42-.67l-.17-.186.12-.11c.087-.08.113-.126.1-.176-.02-.077.004-.085.083-.027.033.024.07.127.095.262.04.222.04.222.094.145.086-.123.066-.252-.072-.478a1.433 1.433 0 0 1-.146-.298l-.02-.093-.102.1c-.104.101-.275.171-.35.142-.022-.008-.156-.256-.297-.55-1.531-3.195-2.158-7.725-1.672-12.09.414-3.729 1.59-6.98 3.286-9.08.319-.396.365-.437.428-.385a.153.153 0 0 1 .048.103c0 .077.075.06.09-.021a.732.732 0 0 0-.042-.228c-.07-.224-.047-.286.12-.328.184-.047.276-.14.276-.278v-.11H85.91l.302-.36c.957-1.141 2.104-2.245 3.17-3.049.78-.589 1.435-.99 2.357-1.446.764-.377.69-.31.775-.69l.028-.124.302.006c.379.008.68-.05 1.32-.253 1.195-.378 2.634-.68 3.653-.763l.34-.031c.013-.002.058.05.1.118Zm4.445.021c.116.062.232.112.259.112.027 0 .05.017.05.037 0 .024-.043.029-.135.014l-.374-.062-.238-.04.086-.086c.047-.047.099-.087.114-.087.016 0 .123.05.238.112Zm1.543.31c.239.12.26.138.209.176-.099.072-.192.047-.432-.118a1.356 1.356 0 0 0-.273-.16c-.021 0-.039-.016-.039-.036 0-.067.262 0 .535.138Zm-10.686.122c.07.027.077.04.049.095-.07.13-.28.168-.573.102l-.111-.024.088-.059c.193-.128.398-.171.547-.114Zm11.982.381c.119.055.204.17.159.217-.033.032-.175-.023-.274-.107a.86.86 0 0 0-.217-.126l-.117-.043h.158c.09 0 .217.026.291.06Zm-6.676.054a3.922 3.922 0 0 0-.909.274c-.201.09-.218.107-.279.261-.126.323-.177.595-.306 1.652-.044.36-.099.741-.121.847l-.04.192-.09-.137c-.153-.23-.331-.222-.442.02-.06.131-.069.204-.068.612.002.636.048.77.317.92.653.367.816 1.02.464 1.863-.184.441-.585.938-.94 1.167-.272.174-.27.174-.412-.105-.274-.535-.657-.945-1.066-1.14-.175-.082-.253-.099-.512-.11a1.472 1.472 0 0 0-.886.209c-.593.324-1.137.957-1.525 1.776-.46.97-.614 2.04-.425 2.946.019.09.015.088-.135-.058-1.535-1.494-4.894-.823-5.801 1.159a6.466 6.466 0 0 1-.106.223.833.833 0 0 1-.18-.087c-.177-.101-.36-.125-.594-.078-.21.042-.39.472-.395.939-.005.534.114.768.541 1.058.25.17.36.308.36.45 0 .111-.186.272-.627.542-.585.358-.878.557-1.032.702a1.32 1.32 0 0 0-.41 1.189l.033.226-.183.21c-.1.116-.245.29-.321.386a7.16 7.16 0 0 1-.17.208c-.036.039-.007-.695.06-1.487.198-2.377.736-4.817 1.426-6.473.204-.489.126-.382-.104.143-.826 1.883-1.304 3.877-1.532 6.378-.055.609-.074 2.312-.034 3.022.07 1.21.22 2.377.501 3.868.594 3.16 3.016 6.947 6.098 9.537 1.89 1.588 4.053 2.74 6.138 3.268.801.203 1.907.367 2.466.367h.205l-.065-.148a2.144 2.144 0 0 1-.109-.391c-.105-.594-.015-1.174.25-1.612.077-.126.105-.15.161-.133.072.022.349.197.796.504l.27.186-.111.146c-.253.333-.28.523-.115.814.056.097.137.272.18.389l.079.21-.198.014c-.108.007-.053.008.124.002.334-.012 1.209-.095 1.346-.128.064-.015.036-.03-.143-.076a3.627 3.627 0 0 1-.5-.187l-.278-.129v-.604l.23.123c.552.295.986.381 2.057.408l.811.02-.525.123c-.288.067-.76.162-1.048.212-.395.068-.502.096-.436.114.244.064 2.101-.325 2.279-.478.026-.022.24-.102.476-.176 2.972-.937 5.546-2.75 7.508-5.286 1.053-1.36 2.043-3.197 2.703-5.011.099-.273.208-.554.242-.627a.64.64 0 0 0 .063-.182c0-.028.071-.29.159-.581.267-.894.603-2.297.603-2.523 0-.144-.266-.54-.71-1.058-.595-.694-.688-.874-.687-1.325 0-.133.029-.414.064-.625.082-.505.079-.741-.015-1.115-.133-.529-.348-.944-.799-1.544-.214-.285-.267-.378-.267-.465 0-.207-.069-.49-.163-.665a3.978 3.978 0 0 0-.373-.501c-.26-.304-.309-.382-.43-.688-.042-.108-.084-.137-.46-.324-.904-.45-1.797-.626-2.974-.587-.51.016-.984.057-1.18.102-.063.014-.072-.004-.105-.2-.061-.363-.187-.765-.43-1.367a17.727 17.727 0 0 1-.319-.847c-.048-.15-.11-.295-.139-.323a10.146 10.146 0 0 0-.655-.412c-2.152-1.288-3.214-2.288-3.91-3.682-.117-.235-.142-.313-.126-.397.036-.195.242-.555.58-1.013.345-.467.54-.829.616-1.143.045-.185.058-.85.019-.999-.019-.07-.042-.088-.114-.088a.645.645 0 0 0-.203.047c-.096.04-.114.041-.129.002-.024-.063-.076-.604-.115-1.19a7.384 7.384 0 0 0-.068-.655c-.048-.229-.173-.49-.273-.569-.106-.084-.604-.243-.951-.304-.344-.06-1.11-.06-1.457.003Zm-6.884.277c.012.106-.048.138-.309.16l-.203.018.095-.095c.09-.092.31-.194.375-.176.018.005.036.047.042.093Zm7.505.034c.098.04.285.139.416.219.277.17.443.236.516.208.089-.035.056-.11-.081-.188-.148-.083-.259-.218-.179-.218.088 0 .33.19.398.311a.985.985 0 0 1 .09.29c.026.197.085.207.109.02.013-.098.03-.125.079-.125.052 0 .075.052.147.336.047.184.151.548.231.807.149.48.242.922.242 1.147 0 .12.004.124.108.124.115 0 .244-.117.293-.264l.023-.072.023.08c.042.144.03.713-.019.92-.09.385-.271.617-.544.697-.162.048-.177.06-.266.238-.122.244-.216.53-.393 1.198-.343 1.296-.597 1.759-1.09 1.992-.168.078-.218.086-.56.086h-.377l-.077-.096c-.191-.238-.303-.621-.345-1.183a4.445 4.445 0 0 0-.163-.926 12.083 12.083 0 0 0-.35-.79c-.446-.945-.537-1.329-.444-1.871.028-.161.084-.384.126-.495.08-.212.11-.23.29-.172.062.02.064.005.07-.42.004-.328.022-.507.071-.697.105-.408.387-.92.475-.865.06.037.04.204-.046.373a.59.59 0 0 0-.071.244l.01.082.106-.09c.068-.058.162-.208.26-.416.167-.35.232-.433.292-.372.028.027.023.064-.017.15a.685.685 0 0 0-.054.245v.133l.077-.072c.047-.045.096-.152.129-.285.094-.383.162-.421.496-.283Zm-52.41 1.244c.011.673.02 1.885.02 2.694 0 1.358-.005 1.48-.059 1.598-.06.13-.18.264-.212.233-.018-.019-.075-3.6-.076-4.844l-.001-.774.119-.064a.657.657 0 0 1 .153-.064c.024-.001.041.373.056 1.221Zm-3.58-.73c.148.172.127.536-.052.903-.117.24-.29.402-.568.533-.269.128-.416.13-.619.01-.198-.117-.271-.275-.297-.644-.022-.314-.015-.328.276-.527.41-.28.697-.389.984-.371.174.01.217.026.277.096Zm45.34.51c.014.118-.144.276-.278.276-.144 0-.127-.099.037-.229a.908.908 0 0 0 .147-.132c.023-.053.084.002.094.084Zm16.479-.078c-.026.043.712.432.749.395.047-.047-.003-.137-.075-.137-.036 0-.183-.065-.327-.144-.273-.15-.316-.163-.347-.114Zm-16.06.626v.144h-.143c-.172 0-.181-.038-.042-.183.141-.146.185-.137.185.039Zm-1.208.091c0 .125-.363.468-.494.468-.066 0 .01-.183.103-.249.043-.03.138-.1.21-.156.15-.114.181-.125.181-.063Zm-36.294.311c.045.072.204.356.354.632.15.275.298.545.331.6l.06.1-.335.268c-.481.384-.467.38-.587.203-.424-.62-.46-1.394-.083-1.79a.854.854 0 0 1 .157-.143c.012 0 .058.058.103.13Zm55.426.083c-.023.01.117.128.318.27.197.14.43.307.516.372.129.097.102.06-.143-.195-.335-.35-.562-.498-.691-.447Zm-8.951.116a1.978 1.978 0 0 1-.15.142c-.097.08-.113.182-.035.226.039.022.073.007.135-.06.146-.159.257-.14.57.098.247.187.323.225.323.16 0-.094-.307-.362-.635-.553l-.143-.083-.065.07Zm-49.326.503c.14.15.228.736.228 1.513 0 .588-.06 1.152-.143 1.354-.073.175-.204.127-.366-.137-.056-.09-.062-.198-.083-1.417-.024-1.461-.035-1.377.186-1.378.078 0 .138.022.178.065Zm51.218.082c-.128.056-.254.166-.254.223 0 .028.062.022.23-.023a.948.948 0 0 1 .321-.04c.083.017.089.013.068-.056-.046-.155-.168-.19-.365-.104Zm-79.185.014c-1.057.077-2.776.885-2.895 1.361a.341.341 0 0 0 .01.169c.022.063.014.118-.034.227-.11.246-.067.99.054.951.02-.007.078-.115.128-.24.05-.124.11-.234.133-.243.024-.01.08.013.125.048.076.06.11.064.41.043.223-.015.35-.01.395.014.066.035.066.037-.035.2-.087.14-.103.2-.113.409-.008.175.004.28.042.37l.052.127.095-.199c.1-.209.301-.413.441-.446.127-.03.163-.074.286-.342l.116-.252.037.444c.071.853.255 1.348.652 1.752.403.41.88.583 1.516.551.779-.039 1.445-.47 1.386-.898-.018-.135-.018-.136.195-.31a2.13 2.13 0 0 0 .34-.36c.11-.164.127-.21.138-.41.007-.122 0-.236-.016-.252-.017-.017-.092.017-.183.082-.166.12-.32.164-.433.128a.849.849 0 0 1-.21-.151c-.113-.106-.138-.15-.138-.242 0-.155-.175-.315-.635-.58-.754-.435-.784-.521-.214-.608.21-.032.414-.023 1.585.076.74.062 1.595.127 1.9.144.813.045 1.197.183 1.573.562.47.473.605 1.179.382 1.998-.115.423-2.468 8.162-2.575 8.467-.017.05-1.281-1.167-1.693-1.63-.378-.425-.492-.622-.508-.875-.015-.247.02-.316.206-.401.14-.064.152-.065.284-.014.2.076.43.348.605.709.08.166.152.296.159.289.026-.026.134-.592.154-.806.045-.491-.103-.905-.438-1.22-.327-.307-.747-.491-1.117-.49-.672.002-1.468.534-1.751 1.17-.275.62-.213 1.553.163 2.451.06.144.11.264.11.267 0 .004-.069.049-.152.1-.24.148-.534.41-.725.641-.24.291-.456.733-.48.981a.713.713 0 0 1-.079.279c-.033.047-.098.17-.144.271-.113.247-.141.762-.058 1.05.063.219.203.502.314.638l.079.096.021-.096c.107-.478.155-.606.296-.803.12-.165.32-.264.581-.288l.203-.018.06.15c.066.164.085.176.425.26.127.03.23.066.23.077 0 .011-.043.099-.095.194-.111.204-.117.265-.032.405l.063.104-.108.141c-.17.225-.225.407-.223.737.002.35.084.645.29 1.047.13.253.2.324.2.199 0-.025.045-.186.1-.358.107-.337.244-.634.37-.8.07-.092.09-.101.195-.084.124.02.218-.009.903-.274.19-.073.352-.126.36-.117.024.023-.63 2.33-.87 3.073-.371 1.147-.668 1.828-1.047 2.403-.568.86-1.102 1.317-1.981 1.696-.383.165-1.953.67-2.858.919-.29.08-.534.184-1.176.504-.838.418-1.096.587-1.274.833-.098.136-.11.254-.048.455.015.048-.038.133-.215.344-.245.295-.406.581-.462.823-.035.155-.046.68-.015.712.01.01.105-.097.21-.24.216-.293.332-.408.523-.521.169-.1.185-.1.233.017.025.061.062.096.102.096.055 0 .06.012.036.088a2.155 2.155 0 0 0-.027.397v.309l-.164.218c-.358.48-.488.805-.443 1.108.027.175.239.614.297.614.02 0 .095-.12.165-.264a4.37 4.37 0 0 1 .253-.452c.236-.349.438-.467.86-.5.957-.074 1.404-.242 2.047-.765.898-.73 1.541-1.165 2.243-1.516 1.078-.54 1.721-.695 3.065-.739.674-.022.872-.039 1.075-.093.665-.177 1.102-.61 1.28-1.266.03-.117.057-.378.067-.66l.016-.468-.36.002c-.547.004-.835-.107-.972-.373-.098-.19-.066-.393.227-1.443.754-2.71 1.588-5.54 1.65-5.602.018-.018.656.449 1.036.759 1.49 1.216 2.36 2.454 2.738 3.9.253.966.05 1.978-.588 2.949-.228.347-.3.592-.264.898.05.43.538 1.063 1.003 1.3.969.493 1.91 1.432 2.678 2.67.13.211.364.612.518.891l.28.508-.077.06c-.33.262-1.083.66-1.41.745-.483.127-.825-.003-.94-.357-.037-.111-.026-.447.021-.658l.02-.09-.123.051c-.403.169-.87.58-1.068.944-.31.567-.376 1.302-.19 2.109l.056.239-.144.072c-.352.178-.705.544-.895.929-.127.257-.159.586-.075.774l.056.124-.186.342c-.211.386-.37.571-.514.6-.23.046-.571-.143-1.007-.558l-.262-.25-.02.12c-.029.176-.024.412.014.646.114.716.608 1.034 1.522.981.184-.01.378-.028.431-.04.09-.017.106-.005.233.176.123.177.164.209.427.336.38.183.595.243.848.237.13-.002.29.02.429.062.683.205 1.464-.055 1.908-.636.116-.151.17-.193.307-.238.092-.03.185-.062.207-.07.023-.009.04.01.04.044 0 .117.151.381.289.508.144.132.488.331.518.3.01-.01-.003-.117-.029-.239-.057-.27-.059-.4-.01-.563.046-.157.26-.404.397-.462.2-.084.24-.214.42-1.39.14-.905.247-1.388.385-1.73.143-.353.153-.355.332-.082.503.766 1.258 1.55 2.078 2.161 2.27 1.69 5.722 2.497 7.93 1.855.479-.14.877-.401 1.176-.773.74-.92.891-2.502.349-3.658-.845-1.802-2.804-3.04-5.548-3.507-.992-.169-1.32-.192-2.696-.192-1.314 0-1.732.027-2.479.159a2.27 2.27 0 0 1-.272.039 54.49 54.49 0 0 1-.25-1.063c-.348-1.518-.826-3.371-.988-3.836-.012-.035.05.056.14.202.45.742.951 1.138 1.365 1.078.327-.048.87-.266 1.72-.69l.879-.437.382.375c.45.44.528.48.782.398.464-.152 1.177-.594 1.8-1.12l.306-.256.222.303c.122.167.36.448.527.625.866.908 1.396.838 2.941-.388.251-.199.462-.362.468-.362.006 0 .093.145.192.322.258.458.521.797.734.944.169.117.194.125.406.124.191-.001.258-.017.421-.102.24-.126.61-.405.965-.73.363-.331.48-.407.635-.407.169 0 .297.102.575.458.28.357.469.526.723.646.182.087.223.095.444.081.421-.025.875-.27 1.748-.943.387-.298.393-.301.461-.244.038.032.3.285.58.562.573.563.713.654.958.62.323-.045.645-.275 1.187-.849l.378-.399v.127c-.001.226-.086.702-.153.855a.834.834 0 0 1-.152.23l-.086.08h3.531c2.369 0 3.531.01 3.531.032 0 .018-.085.248-.189.51-.82 2.07-1.751 3.402-3.086 4.413a9.391 9.391 0 0 1-1.306.819c-.271.137-.271.138.228.222.459.077 1.19.05 1.653-.06 1.834-.438 3.66-1.972 4.838-4.067.333-.593.664-1.418.8-1.997.031-.132.066-.25.076-.262.011-.012.142.05.29.138 1.203.713 2.348 1.062 3.317 1.01 1.048-.058 1.73-.47 2.372-1.436.581-.876.834-1.557.875-2.36a3.624 3.624 0 0 0-.693-2.317c-.223-.304-.798-.871-1.202-1.188-.36-.281-1.083-.78-1.714-1.181l-.396-.253.237-.04c1.322-.225 2.296-.667 2.935-1.332.34-.355.623-.858.731-1.302.075-.308.098-.77.053-1.085-.046-.33-.13-.65-.162-.615a3.405 3.405 0 0 0-.14.383c-.247.755-.483 1.12-.834 1.295-.19.094-.245.106-.47.106-.214 0-.283-.014-.43-.087-.222-.111-.489-.316-.968-.743l-.382-.34-.173.186c-.242.259-1.11 1.314-2.066 2.513l-.81 1.016-.023-1.017c-.028-1.285-.054-1.518-.203-1.824-.258-.533-.745-.696-1.494-.501-.718.187-1.189.38-1.641.674-.118.077-.223.14-.233.14-.01 0-.127-.118-.26-.262-.425-.454-.79-.634-1.288-.633-.143 0-.352.022-.466.049-.282.066-.771.313-1.191.601l-.35.24-.006-.182c-.011-.308-.114-1.394-.135-1.437-.014-.028-.547.337-1.671 1.145l-1.65 1.186-.009-1.497-.009-1.497-.828 1.263c-.456.695-.84 1.275-.853 1.29-.025.026-.604-.386-1.113-.79a2.94 2.94 0 0 0-.445-.288c-.195-.095-.226-.1-.588-.1-.37 0-.389.004-.601.109-.315.156-.553.414-.842.913-.375.649-.64 1.293-1.056 2.559-.41 1.248-.477 1.496-.54 1.982-.049.383-.05 2.077-.002 2.666.035.425.016.536-.113.653-.061.056-.063.053-.082-.144-.057-.584-.148-4.925-.273-13.054-.032-2.125-.052-2.86-.078-2.886-.008-.008-.898.653-1.978 1.468l-1.964 1.482.207.018c.383.033.736.268.886.59.037.079.082.24.1.359.047.314.075 1.809.047 2.538l-.023.627-.402.017c-.23.01-.47.039-.563.068-.25.078-.517.271-.921.665-1.11 1.082-1.772 2.303-2.075 3.832-.114.573-.164 1.072-.197 1.948-.018.466-.05 1.122-.073 1.458-.044.675-.074.772-.267.886l-.102.06-.005-.538c-.002-.296-.013-3.929-.024-8.072l-.019-7.533-2.154 1.57-2.154 1.571.2.026c.468.061.977.28 1.04.448.064.167.134.921.164 1.764.018.492.042 1.158.055 1.479l.022.583h-.289a2.17 2.17 0 0 0-1.054.27c-.563.294-1.064.772-1.5 1.428-.838 1.26-1.312 2.966-1.432 5.144-.02.36-.039.659-.043.663a7.484 7.484 0 0 1-.064-.48c-.089-.755-.244-1.852-.556-3.94-.428-2.853-.664-4.258-1.862-11.107-.545-3.113-.618-3.57-.618-3.868 0-.545.126-.89.435-1.202.25-.252.584-.405 1.663-.765l.904-.301-6.672.002c-3.669.001-6.814.013-6.989.026Zm77.403.061c-.25.076-.41.327-.41.64 0 .213.027.29.152.425.065.07.11.088.22.088.53 0 .778-.687.385-1.063-.125-.12-.19-.138-.347-.09Zm-1.217.408c.035.09.045.173.03.252l-.022.119-.065-.066a.39.39 0 0 1-.081-.212c-.026-.232-.104-.172-.104.08 0 .08.04.207.113.352.11.22.181.54.12.54-.057 0-.197-.176-.269-.336-.098-.221-.12-.669-.043-.93l.054-.19.108.129c.059.07.13.188.16.262Zm1.566-.092c.098.155.126.261.068.261-.017 0-.14-.072-.275-.16a1.789 1.789 0 0 0-.278-.162c-.084-.006.165-.09.27-.092.105-.001.126.014.215.153Zm2.934-.035c-.044.08-.087.244-.115.445a1.878 1.878 0 0 1-.098.423l-.054.105.074-.022c.212-.065.286-.262.273-.73l-.009-.348-.071.127Zm-3.426.06c.028.01.05.051.05.09 0 .04.036.105.08.147.067.063.094.07.167.044.065-.024.109-.019.174.018.105.059.108.094.022.204-.102.131-.27.167-.486.104l-.179-.053v-.167c0-.185.051-.407.094-.407.015 0 .05.01.078.02Zm12.474.226c.218.176.316.303.316.41 0 .04-.018.047-.072.03a.66.66 0 0 1-.44-.382c-.056-.121-.078-.24-.045-.24.009 0 .117.082.241.182Zm-10.6.013c-.124.139.003.638.169.663.109.016.304-.05.466-.158l.151-.101-.117-.12c-.144-.15-.35-.25-.403-.197-.05.05.064.175.141.155.035-.01.081.016.12.066.078.1.082.169.01.169-.029 0-.1.017-.158.038-.094.034-.112.03-.185-.038-.124-.117-.171-.407-.076-.466a.064.064 0 0 0 .028-.048c0-.053-.084-.032-.146.037Zm-.837.597a5.98 5.98 0 0 0-.081.5 3.25 3.25 0 0 1-.07.416c-.012.019.005.013.037-.013a.458.458 0 0 0 .102-.152c.043-.105.1-.871.064-.871-.01 0-.034.054-.052.12Zm.245.242c.01.369.061.587.158.666.045.037.05.035.032-.011a2.744 2.744 0 0 1-.054-.32c-.048-.375-.1-.664-.124-.679-.011-.007-.016.148-.012.344Zm-1.455-.156c.127.155.466.198.616.08.102-.081.112-.144.016-.092-.043.023-.128.029-.23.015-.457-.061-.45-.061-.402-.003Zm13.503.08c0 .13-.189.214-.28.123a.182.182 0 0 1-.038-.112c0-.067.014-.073.159-.073.136 0 .159.009.159.061Zm-24.021.506c-1.114 1.153-1.867 2.192-2.427 3.348-.267.552-.396.857-.338.8.018-.018.156-.241.308-.496a34.048 34.048 0 0 1 2.421-3.496c.164-.208.293-.384.286-.39-.006-.007-.119.098-.25.234Zm22.632.192c.729.846 1.092 1.4 2.463 3.764.409.706.48.81.391.575-.195-.514-.713-1.574-1.041-2.134-.505-.86-.946-1.447-1.519-2.024-.54-.544-.683-.632-.294-.181Zm-10.966.08c-.051.052-.043.15.015.172.065.025.148-.06.123-.125-.026-.068-.094-.092-.138-.047Zm.251.07c-.045.055-.021.145.038.144.082 0 .128-.054.106-.123-.025-.08-.088-.088-.144-.02Zm-1.523.564c.036.071.078.245.094.39.057.5.085.805.075.817-.02.024-.17-.092-.22-.168a.903.903 0 0 1-.08-.263c-.035-.212-.005-.947.038-.92.016.009.057.074.093.145Zm1.308.305c-.056.023-.049.128.01.151.154.06.33-.016.289-.124-.018-.047-.207-.064-.299-.027Zm1.724.482c.061.15.054.607-.015.97-.038.203-.08.387-.094.409-.019.032-.069.03-.238-.01a2.012 2.012 0 0 0-.371-.05h-.157l.06-.12c.033-.066.114-.27.179-.455.139-.395.268-.614.425-.721.136-.093.18-.098.211-.023Zm-3.261.2c.167.123.268.264.483.677.225.432.4.613.665.687.114.032.177.064.153.077a2.756 2.756 0 0 1-.423.042 4.55 4.55 0 0 0-.588.067 2.871 2.871 0 0 1-.242.048c-.043.001-.144-.227-.285-.65a2.376 2.376 0 0 0-.142-.36c-.056-.067.143-.683.22-.683.015 0 .086.043.159.096Zm-19.275.056c.007.09-.01.343-.023.357-.028.03-.172-.063-.172-.11 0-.07.122-.303.16-.303.017 0 .033.026.035.056Zm15.91.776c.004.104.026.126.311.32.386.26.826.68.987.937.128.205.283.553.258.579-.008.008-.072.002-.141-.014-.296-.067-.652.148-.84.506-.095.184.13.11.276-.09.204-.28.254-.32.405-.32.243 0 .426.223.478.583.064.439-.513.894-1 .789-.088-.019-.167-.047-.177-.063-.01-.015.055-.065.144-.11.145-.074.166-.077.21-.033.115.115.362.02.362-.141 0-.085.014-.095.208-.147.268-.074.226-.117-.118-.122-.298-.005-.34.01-.69.268-.118.087-.26.167-.316.178l-.1.02v.229c0 .125.029.35.063.5.063.276.078.5.043.632l-.02.073-.049-.07-.048-.07-.061.075c-.058.072-.058.078-.005.117.072.053.073.053.194-.021.145-.09.157-.207.058-.585-.07-.27-.11-.663-.067-.663a.75.75 0 0 1 .12.061c.259.152.534.105.911-.157.13-.09.241-.156.249-.148.017.018-.123.847-.231 1.365-.286 1.369-.67 2.092-1.2 2.267a.986.986 0 0 1-.602-.046c-.647-.312-1.274-1.647-1.451-3.086-.042-.343-.043-.608-.001-.608.017 0 .143.069.278.153.135.084.287.171.339.194.249.109.674.114.706.008a.726.726 0 0 1 .045-.107c.042-.08.036-.146-.023-.247-.063-.108-.176-.178-.494-.31-.257-.106-.325-.107-.55-.009l-.095.041.167.031c.146.027.166.04.166.108 0 .106.135.234.247.234a.27.27 0 0 0 .16-.064l.067-.064.113.1c.062.054.112.11.112.124 0 .037-.184.096-.298.095-.118-.001-.414-.119-.559-.222a.506.506 0 0 1-.147-.182c-.037-.089-.062-.107-.144-.107h-.099l.023-.228a2.58 2.58 0 0 1 .506-1.327c.173-.232.413-.46.875-.834.382-.309.37-.282.386-.872l.008-.304.023.336.027.448Zm19.059-.303c.09.076.13.161.178.378.019.087.011.083-.171-.078-.21-.186-.229-.215-.203-.314.023-.089.08-.085.196.014Zm-35.219.023c.018.047-.01.376-.031.376-.049 0-.2-.117-.2-.155 0-.045.158-.255.195-.259.011-.001.028.016.036.038Zm19.159.258c.01.077.07.296.135.486.11.33.113.348.059.389-.089.064-.108.053-.176-.103a1.53 1.53 0 0 1-.104-.726c.022-.24.057-.258.086-.046Zm-19.335.318c.051.25-.042.44-.174.355-.08-.05-.085-.122-.02-.349.05-.173.065-.197.112-.172.03.016.067.09.082.166Zm22.92.647c.226.08.292.16.37.45.112.418.165.86.165 1.388.001.688-.065 1.142-.254 1.736-.138.432-.247.663-.304.641-.099-.038-.491.063-.825.214-.192.086-.41.17-.484.186a.765.765 0 0 1-.488-.077c-.087-.045-.092-.044-.092.018 0 .094.085.247.157.286.114.062.351.035.687-.078.369-.125.572-.151.332-.044-.513.23-1.408.411-2.023.411-.496 0-.81-.062-1.143-.225-.736-.36-.963-1.079-.695-2.203.149-.624.186-.911.168-1.271l-.016-.303.099-.062c.478-.299 1.094-.486 2.136-.65.367-.058.52-.097.623-.158.503-.297 1.171-.406 1.587-.26Zm-18.263.456c-.067.119-.138.251-.158.295l-.037.08-.003-.074c-.002-.04.062-.197.14-.347.079-.15.145-.296.148-.325.003-.03.011-.006.018.052.01.078-.017.16-.108.32Zm32.329.01c.087.203.168.524.155.614-.02.131-.201-.173-.307-.513-.159-.515-.157-.489-.027-.363.062.06.143.177.179.262Zm-16.12.178c-.269.057-.41.134-.424.229-.013.086.01.088.108.01.042-.034.177-.086.3-.116.228-.056.436-.175.301-.172-.035 0-.164.023-.286.049Zm1.254.27-.079.037.13.059c.13.06.843.224.867.201.042-.038-.076-.174-.206-.238-.174-.084-.58-.117-.712-.058Zm-7.193.088c-.009.015.065.05.165.078.141.04.242.103.45.28.268.229.33.243.255.06-.055-.134-.265-.305-.466-.38-.176-.067-.375-.086-.404-.038Zm9.465.134c.053.032.13.095.171.14.069.073.074.1.056.281-.011.11-.054.324-.096.473-.075.266-.078.27-.114.176-.068-.172-.079-.59-.022-.79.065-.224.065-.217-.014-.217-.045 0-.078.031-.102.096-.044.117-.135.126-.163.016-.011-.044-.034-.08-.051-.08-.051 0-.035-.06.034-.13.072-.072.137-.064.301.035Zm-4.321.036c-.035.02-.158.127-.273.237-.115.111-.248.211-.295.223-.11.028-.091.091.03.104.07.007.153-.033.332-.158.13-.091.308-.214.394-.272l.156-.105-.087-.033c-.11-.042-.177-.04-.257.004Zm2.284.152c-.125.057-.362.265-.362.318 0 .014.086.05.191.08.118.032.19.07.19.098 0 .114.222.198.304.115.02-.02.097-.01.216.027l.185.058-.121.072a.799.799 0 0 1-.227.09c-.09.014-.122 0-.208-.088-.162-.169-.315-.222-.634-.223-.196 0-.331.018-.454.061-.35.124-.618.396-.616.626l.001.095.061-.116a.797.797 0 0 1 .16-.199c.095-.08.452-.212.576-.212.093 0 .22.077.344.208.155.163.254.208.467.207.217 0 .471-.105.574-.237.152-.194.168-.467.043-.714a.51.51 0 0 0-.298-.278c-.151-.064-.232-.061-.392.012Zm15.036.13c.11.066.148.167.18.472.016.15.011.168-.042.168-.121 0-.2-.125-.254-.4a4.144 4.144 0 0 0-.053-.247c-.021-.074.042-.072.169.006Zm-38.228.314c.024.182.008.237-.1.353-.11.118-.161.253-.198.523-.066.494-.1.637-.144.6a.477.477 0 0 1-.077-.186c-.045-.19-.017-.328.172-.837.077-.207.15-.432.16-.5.012-.067.03-.15.039-.185.017-.06.019-.06.072.006.03.038.065.14.076.226Zm20.731-.066c-.22.113-.35.294-.372.518l-.015.163.18-.07c.147-.056.193-.062.26-.032.192.088.394.007.394-.158 0-.075.022-.108.1-.15.13-.071.218-.156.218-.211 0-.067-.233-.148-.424-.148a.694.694 0 0 0-.34.088Zm.817.325c-.025.129-.185.303-.347.379a3.156 3.156 0 0 1-.444.137c-.179.043-.31.091-.31.113 0 .021.05.083.112.138.094.083.14.1.272.1.386 0 .792-.41.792-.799 0-.176-.045-.217-.075-.068Zm-9.024.005c.55.078 1.12.27 1.528.515.25.15.613.5.766.737.169.262.295.646.316.966.016.23.026.261.11.332.117.1.216.295.224.446.007.117.005.12-.107.12-.195 0-.22.044-.22.409 0 .604-.167 1.023-.57 1.429a3.4 3.4 0 0 1-.447.374l-.207.135-.158-.05c-.21-.065-.5-.042-.831.065l-.26.085-.09.273-.088.273-.35-.02c-2.218-.13-3.508-.854-3.736-2.1l-.038-.208-.135-.036c-.207-.056-.466-.313-.61-.607-.113-.23-.12-.26-.12-.549 0-.251.013-.334.074-.47.086-.19.152-.217.399-.165a.602.602 0 0 1 .279.146l.124.114.097-.093c.087-.084.172-.241.423-.785.162-.351.728-.802 1.303-1.038.297-.122.767-.251 1.077-.296.282-.04.96-.042 1.247-.002Zm23.808.172c0 .008.027.062.06.12.033.058.099.242.146.41.08.285.164.479.208.479.025 0-.021-.378-.067-.551-.043-.162-.135-.35-.206-.42-.046-.047-.141-.072-.141-.038Zm2.301.366c.289.397.461 1.028.462 1.702.001.255.012.305.159.673.271.68.436 1.43.511 2.322.06.71.021 2.157-.097 3.635a46.337 46.337 0 0 0-.117 2.062l-.017.815-.408 1.327c-.48 1.566-.726 2.386-.997 3.324l-.199.689-.203.211c-.297.308-.569.795-.569 1.018 0 .051.014.13.031.175.027.071.019.089-.056.136a1.5 1.5 0 0 0-.177.136c-.114.104-.557.85-1.101 1.856l-.424.784-.481.495c-.265.273-.868.906-1.342 1.407-1.226 1.298-1.366 1.431-1.724 1.631-.765.427-1.282.804-1.716 1.249l-.271.277-.476.183c-.613.236-1.297.567-1.672.81-.295.19-.299.19-.583.208-.204.013-.43.06-.794.165a9.67 9.67 0 0 1-.81.2c-.166.028-.316.063-.332.078-.02.018-.017.064.007.129.064.172.014.198-.342.174a2.946 2.946 0 0 1-.397-.046c-.093-.026-.093-.028-.028-.064.037-.02.237-.103.445-.183.441-.172.609-.265.723-.4.143-.171.076-.273-.074-.113a.57.57 0 0 1-.168.117c-.085.035-.102.033-.14-.02-.055-.076-.004-.163.151-.255.142-.085.552-.092.611-.011.035.047.057.041.228-.061.291-.174.689-.354 1.54-.695.802-.32 1.163-.489 1.454-.676a.67.67 0 0 1 .249-.107h.082l-.083.098c-.093.112-.097.13-.044.183.057.057.111.047.241-.041a.452.452 0 0 1 .189-.08c.148 0 .076-.147-.133-.272-.125-.075.09-.24.313-.24.141 0 .147.045.031.243-.046.08-.076.15-.067.16.039.04 1.006-.584 1.358-.876.354-.294.779-.745.904-.96.037-.066-.065-.005-.507.3-.378.26-.645.415-.671.389-.007-.008.134-.156.314-.33.354-.342.578-.486.81-.52.14-.02.153-.03.261-.22.202-.35.509-.71 1.209-1.414.377-.379.769-.782.871-.896.103-.114.192-.192.199-.172a.43.43 0 0 0 .056.095c.041.057.063.04.34-.256.163-.174.337-.373.387-.44.116-.159.221-.432.177-.46-.056-.034-.232.19-.312.395-.087.224-.171.317-.314.346-.219.044-.148-.227.152-.58.211-.247.317-.438.317-.569 0-.098.001-.099.111-.048.099.045.13.15.084.29-.03.09.001.066.227-.17.372-.39.652-.801.944-1.389.251-.506.571-1.378.572-1.558 0-.074-.013-.088-.082-.088-.081 0-.082-.003-.06-.168.036-.266.155-.645.35-1.111.508-1.215.611-1.546.641-2.054.013-.226.03-.312.06-.312.022 0 .081-.054.13-.12.115-.155.138-.172.224-.157.061.01.055-.003-.043-.088-.098-.085-.118-.125-.131-.263-.029-.296.159-.523.357-.433.042.02.083.025.091.013.014-.024.077-.417.163-1.026.029-.2.078-.449.11-.552.056-.18.056-.187.001-.187-.079 0-.214.169-.251.313-.017.065-.04.26-.053.435-.032.456-.061.538-.092.259-.044-.404-.021-1.236.063-2.237.056-.68.079-1.145.072-1.506-.008-.488-.006-.518.045-.472.169.154.214.636.139 1.508-.048.563-.048.737.003 1.007.03.163.066.047.126-.41.082-.622.082-2.544.001-3.39a35.473 35.473 0 0 0-.833-4.934 27.974 27.974 0 0 1-.141-.601c0-.047.139.076.236.21Zm-15.99.266c-.125.067-.215.21-.174.274.028.045.087.055.325.057.438.003.458.087.067.286-.512.26-1.177.293-1.49.072-.051-.036-.029-.04.156-.03.264.015.415-.03.573-.174.12-.11.216-.284.177-.323-.011-.012-.13-.006-.262.014-.29.042-.703.235-.867.406l-.11.114.093.194c.094.198.309.43.48.52.54.28 1.387-.025 1.738-.628.099-.17.2-.529.171-.605-.045-.12-.73-.258-.878-.177Zm-23.215.577c.067.106.091.21.07.296-.022.09-.13.132-.195.078-.08-.067-.04-.446.048-.446.018 0 .052.032.077.072Zm3.698.196-.009.195-.195.01c-.185.009-.195.005-.215-.072-.033-.134.055-.298.178-.33a.497.497 0 0 1 .178-.013c.068.013.072.027.064.21Zm33.63-.124c-.01.027.04.26.111.52.533 1.935.804 4.214.812 6.83.001.63.012 1.081.024 1.001.102-.715.134-2.494.061-3.444a32.498 32.498 0 0 0-.432-3.293c-.171-.933-.226-1.181-.28-1.241a1.218 1.218 0 0 1-.131-.239c-.08-.183-.131-.224-.165-.134Zm-19.67.055c-.054.053-.047.142.012.165.067.026.109-.003.109-.075 0-.083-.074-.138-.122-.09Zm5.668.3c.067.162.056.259-.037.32-.088.058-.142.043-.373-.106-.077-.05-.092-.052-.118-.01a.271.271 0 0 0-.031.12c0 .095-.078.093-.177-.006-.073-.074-.112-.273-.054-.274.127-.001.456-.08.528-.126.12-.076.208-.049.262.082Zm-.909.124c0 .155-.008.176-.063.176-.1 0-.191-.114-.191-.24 0-.109.003-.112.127-.112h.127v.176Zm-9.298-.097c-.15.066-.212.18-.193.356.03.26.144.262.22.007.052-.174.167-.26.311-.234.248.046.365.227.221.344l-.075.062-.026-.099c-.045-.176-.278-.18-.278-.004 0 .074-.014.097-.06.097-.118 0-.087.082.107.29.235.252.304.433.242.64-.105.353-.608.611-1.191.611-.6 0-.98-.29-.986-.758-.003-.245.058-.35.317-.543.127-.095.27-.224.318-.288.086-.113.087-.117.036-.226-.117-.246-.42-.308-.725-.148-.209.11-.326.269-.3.406.011.053.072.225.137.384.1.244.118.327.123.554.007.317.045.384.302.54.27.162.514.21.98.193.568-.02.882-.146 1.125-.45.08-.1.099-.156.11-.325.011-.182.002-.225-.086-.388a1.453 1.453 0 0 1-.1-.206c0-.013.047-.041.104-.064.175-.07.215-.122.215-.286 0-.194-.098-.344-.285-.44a.727.727 0 0 0-.563-.025Zm-13.212.252c.023.094.02.143-.017.208-.08.142-.139.108-.15-.087-.012-.208.007-.268.081-.254.035.007.067.058.086.133Zm-47.572-.05c0 .012.25 1.476.555 3.25.305 1.776.548 3.234.541 3.241-.007.008-.082-.042-.166-.11-.45-.364-.934-.767-1.661-1.383l-.825-.698c-.028-.022.214-.81.783-2.543l.585-1.782h.094c.051 0 .093.01.094.024Zm59.484.116c.09.038.104.057.09.128-.023.126-.058.127-.132 0-.078-.132-.152-.135-.223-.007-.045.08-.043.092.023.162.077.083.065.12-.04.12-.172 0-.299-.232-.191-.352.087-.098.307-.121.473-.051Zm5.483.086-.142.065.235.095c.361.146.448.149.773.024.152-.059.277-.116.278-.126 0-.057-.214-.097-.584-.11-.37-.011-.433-.006-.56.052Zm-8.895.134c0 .061.207.57.273.671.074.113.277.248.315.209.023-.023-.287-.596-.377-.697-.095-.106-.211-.207-.211-.183Zm24.064.231c.811.123 1.496.428 1.94.863.125.123.246.257.267.299l.039.074-.098-.072c-.053-.04-.107-.063-.119-.051-.038.038.126.233.386.458.234.202.326.327.38.512.017.058.01.067-.045.052-.048-.012-.065-.001-.065.045 0 .095.149.31.55.793.202.244.36.457.351.472-.01.016-.059-.011-.109-.06-.138-.132-.144-.071-.01.104.359.47.561 1.258.565 2.201.003.586-.032.86-.162 1.278l-.08.255-.075-.088a.857.857 0 0 1-.125-.27c-.1-.364-.144-.461-.193-.42-.068.057-.052.25.037.444l.082.175-.07.057c-.155.126-.311.11-.747-.079-.226-.098-.236-.107-.236-.208 0-.28-.208-.477-.414-.392-.102.043-.111.093-.047.26.025.065-.094.092-.417.092-.221 0-.234-.004-.234-.072 0-.14.178-.454.34-.601.142-.128.156-.153.13-.223a2.757 2.757 0 0 1-.073-.347 2.123 2.123 0 0 0-.057-.28c-.007-.008-.037-.005-.065.007-.064.024-.066.104-.004.187.071.095.056.116-.042.06-.138-.08-.241-.038-.312.129-.053.122-.069.136-.13.113a.45.45 0 0 1-.154-.163c-.103-.166-.197-.247-.289-.248-.065-.001-.067-.01-.037-.121.018-.066.096-.259.173-.428.077-.17.166-.414.198-.544.043-.173.064-.218.08-.171.036.102.391.474.43.45.067-.042.035-.285-.062-.466a.811.811 0 0 1-.094-.241c0-.064.054-.143.098-.143.027 0 .163.343.219.552.047.176.077.19.123.057.038-.111.018-.193-.119-.48a1.133 1.133 0 0 1-.099-.27c0-.059-.001-.059-.065 0-.089.08-.145.04-.29-.214-.116-.2-.279-.38-.347-.38-.018 0-.029.01-.023.024l.142.28c.124.243.361.86.361.94 0 .076-.063-.004-.178-.222-.064-.123-.136-.223-.16-.223-.062 0-.106.133-.111.33l-.004.166-.025-.213c-.03-.261-.098-.42-.346-.805a2.861 2.861 0 0 1-.246-.455l-.052-.154.134-.12a.668.668 0 0 1 .227-.14c.091-.02.092-.022.046-.112a.428.428 0 0 1-.048-.147c0-.05-.003-.05-.059 0-.056.051-.061.05-.097-.039a.756.756 0 0 0-.359-.34c-.153-.064-.444-.06-.644.008l-.159.055-.021.448c-.048 1.052-.361 1.511-.746 1.095-.05-.054-.069-.09-.043-.082.177.062.187.06.239-.02.049-.074.048-.086-.005-.177-.031-.053-.075-.097-.098-.097-.048 0-.055.083-.009.112.053.033.036.08-.03.08-.075 0-.161-.115-.161-.217 0-.086.071-.234.183-.382.074-.098.079-.2.011-.2-.018 0-.069.049-.114.109-.142.186-.185.155-.049-.035.07-.1.128-.21.127-.248 0-.036-.044-.115-.098-.174-.096-.106-.102-.108-.309-.093-.318.023-.546.163-.675.415-.128.25-.058.377.21.377.094 0 .178.013.188.029.036.058-.088.066-.308.02a1.149 1.149 0 0 0-.237-.036c-.006.006.032.121.085.256.081.205.097.288.097.515 0 .284.047.367.083.145.019-.12.024-.126.119-.11.425.071.629.151.817.322.126.115.146.122.33.12.254-.004.425-.097.789-.428.329-.298.422-.345.59-.294.065.02.149.068.186.108l.068.073-.061.303c-.146.731-.322 1.127-.648 1.458-.277.28-.472.367-.883.39a1.75 1.75 0 0 1-.572-.055l-.294-.068-.314-.423c-.538-.725-.75-1.2-.75-1.684 0-.268.077-.577.19-.761.086-.14.081-.168-.029-.168-.132 0-.212.12-.256.382-.036.214-.081.29-.197.331-.041.015-.059-.005-.075-.083-.041-.192-.146-.439-.229-.537-.107-.129-.07-.2.105-.202l.125-.002.019-.177a.929.929 0 0 1 .057-.248c.03-.057.029-.071-.004-.071-.074 0-.173.09-.277.255-.057.088-.117.16-.134.16s-.106-.079-.197-.175c-.159-.17-.171-.176-.331-.176-.165 0-.166 0-.145-.088.052-.22.157-.336.504-.56.25-.16.383-.29.351-.34-.037-.062-.109-.038-.181.06-.082.112-.122.123-.122.034 0-.088.104-.148.365-.211.122-.03.292-.098.378-.152.109-.07.188-.096.27-.091.08.005.195-.033.381-.124.274-.136.389-.16.568-.115.069.017.103.014.103-.01 0-.02-.046-.044-.101-.056-.1-.02-.1-.02-.024-.049.539-.202 1.247-.265 1.887-.168Zm-7.425.087c.1.105.167.24.167.337 0 .04-.009.043-.038.014-.077-.078-.121-.043-.121.098 0 .433-.477 1.485-.83 1.834l-.116.113-.072-.219c-.083-.252-.155-.407-.469-1.005a4.842 4.842 0 0 1-.229-.468c0-.018.1-.056.224-.084.456-.104.98-.372 1.22-.625.051-.054.109-.098.129-.098.019 0 .08.046.135.103Zm6.981.069c-.035.027-.056.05-.047.052.008 0 .101.006.206.01.13.007.245.037.36.095.093.048.175.086.183.086.007 0 .013-.035.013-.079 0-.123-.127-.185-.408-.2-.187-.01-.258-.003-.307.036Zm10.509.368c.079.115.136.253.162.395.021.113.018.12-.06.12a.444.444 0 0 0-.17.045c-.078.04-.102.04-.214-.011-.239-.108-.377-.36-.356-.65.009-.123.018-.135.116-.155a.362.362 0 0 0 .156-.072c.045-.045.062-.035.18.098.071.08.155.184.186.23Zm-21.989.002c.254.119.726.24 1.219.315l.38.057-.01.116c-.008.102.003.123.088.167.062.033.098.076.098.118 0 .038.027.113.06.168.069.112.194.503.194.604 0 .064-.002.064-.08-.01-.106-.1-.131-.062-.068.105.079.207.072.227-.067.204l-.12-.019.012.129c.02.207-.051.599-.216 1.193a9.43 9.43 0 0 0-.19.792l-.06.41-.025.176-.104-.447c-.24-1.027-.299-1.255-.374-1.444-.077-.194-.082-.199-.196-.198a.653.653 0 0 1-.212-.038 1.21 1.21 0 0 0-.204-.06c-.099-.017-.117-.039-.186-.211-.207-.518-.287-1.127-.23-1.755.036-.385.05-.467.079-.467.005 0 .1.043.212.095Zm11.528-.077c0 .03.392.2.518.223.111.021.308-.028.308-.077 0-.024-.652-.166-.755-.165-.039 0-.071.01-.071.02Zm-32.436.286a.897.897 0 0 1-.05.244c-.064.174-.071.422-.016.489.059.07-.02.069-.099-.003-.071-.065-.075-.258-.01-.554.025-.114.046-.258.047-.32l.003-.112.062.076a.327.327 0 0 1 .063.18Zm39.618.106c.131.317.241.762.299 1.208.048.364.129 1.864.105 1.936-.007.022-.045-.183-.084-.454-.222-1.54-.37-2.418-.499-2.972-.018-.076-.016-.077.03-.02.027.034.094.17.149.302Zm-22.082.268c.55.26 1.127.158 1.368-.241l.057-.093.017.14c.009.077.025.32.035.54.035.752.167 1.478.317 1.748.043.077.07.16.061.183-.009.024-.124.141-.257.26-.211.192-.327.355-.327.46 0 .083.153.019.34-.142.113-.097.224-.176.247-.176.085 0-.006.726-.226 1.79-.079.379-.174.88-.213 1.113l-.07.425-.253.087c-.442.15-.777.436-.923.79-.05.12-.054.123-.1.062-.038-.05-.044-.13-.03-.408.013-.218.008-.338-.011-.326-.06.038-.127.36-.173.847-.047.485-.082.67-.144.768-.025.039-.059.016-.183-.125-1.027-1.166-1.597-2.928-1.597-4.935v-.631l.246-.002c.136 0 .347-.02.469-.044.122-.024.225-.041.228-.039.003.003-.01.124-.028.27-.04.315 0 .701.102.974.072.194.3.476.447.552.187.098.527.021.624-.14.085-.142-.046-.213-.213-.117a.446.446 0 0 1-.184.047c-.09.001-.117-.02-.198-.149-.317-.502-.346-1.026-.128-2.257.142-.801.16-.952.16-1.32v-.343l.183.175c.1.096.261.212.357.257Zm12.676-.243c-.328.251-.413.337-.413.415 0 .098.023.098.102-.004.035-.044.144-.132.243-.194.2-.128.259-.19.259-.274 0-.078-.024-.071-.191.057Zm-7.484.064c.047.018.074.14.03.14a.475.475 0 0 1-.113-.08c-.082-.069-.086-.08-.03-.08.034 0 .085.01.113.02Zm2.656.506c-.021.142-.08.43-.132.642-.098.394-.748 2.405-.795 2.46-.016.017-.027-.003-.027-.047 0-.042-.142-.502-.316-1.022-.356-1.063-.432-1.404-.404-1.82.01-.148.031-.282.047-.297.071-.072.305.361.452.838.108.35.217.607.257.607.041 0 .31-.35.44-.572.125-.212.371-.79.45-1.058.061-.205.075-.065.028.269Zm-10.659-.253c-.14.116-.633.35-.932.445-.768.24-1.486.235-2.087-.017-.188-.078-.338-.174-.617-.393-.037-.028-.042-.025-.026.018.011.029-.008.108-.042.174-.074.147-.076.191-.012.216.03.012.055-.002.066-.036.072-.236.118-.237.492 0 .607.382.928.51 1.418.567l.271.03.174-.16c.124-.113.322-.232.69-.415.356-.177.552-.294.637-.382.136-.14.117-.17-.031-.047Zm16.131-.019c-.21.053-.389.218-.505.466a.803.803 0 0 0-.075.262v.103l.104-.044c.057-.024.225-.075.372-.113.263-.068.408-.144.515-.271.127-.15.083-.143-.444.068-.197.08-.371.14-.387.134-.016-.006.01-.069.058-.139.077-.113.1-.127.197-.118.079.007.146-.015.24-.08.19-.132.309-.232.293-.248-.03-.031-.272-.044-.368-.02Zm-10.206.17c0 .057.112.236.257.408.13.155.159.276.074.309-.036.014-.016.035.072.075.139.064.21.138.482.502.188.252.368.425.442.425.045 0 .17-.167.26-.348.074-.147.451-1.288.433-1.306-.018-.018-.202.286-.27.448a8.966 8.966 0 0 0-.197.576c-.073.232-.136.427-.14.432-.006.006-.057-.014-.114-.044-.205-.106-.453-.383-.744-.831-.375-.576-.556-.786-.555-.646Zm9.275.08a.852.852 0 0 1-.047.183c-.024.07-.037.134-.028.143.03.03.295-.133.347-.212.062-.095.039-.198-.031-.139-.033.027-.063.028-.109.004-.091-.05-.131-.043-.132.021Zm3.432.392c0 .018.015.032.033.032.038 0 .079.09.126.278.04.162.105.233.209.233.066 0 .077-.015.077-.107a.444.444 0 0 0-.095-.238c-.118-.165-.35-.296-.35-.198Zm-.826.272c.021.055.054.08.108.08.043 0 .083-.016.089-.035.017-.052.179.032.202.105.025.079-.038.154-.129.154-.168 0-.556-.203-.556-.29 0-.036.115-.09.2-.092.032-.001.069.032.086.078Zm-1.388.091c.054.142-.237.34-.529.363l-.164.012.122-.068c.068-.037.143-.06.167-.05.07.027.204-.037.204-.098 0-.054.117-.202.161-.202.012 0 .03.02.039.043Zm-18.505.17a.112.112 0 0 0-.069.057c-.025.066.363.128.504.081.208-.069.194-.116-.04-.139-.23-.021-.31-.021-.395.001Zm21.195.123c-.032.04-.031.059.008.104a.42.42 0 0 1 .072.135l.024.08-.099-.093c-.054-.052-.108-.085-.118-.075-.04.04.186.403.354.57.191.19.213.17.091-.09-.07-.148-.076-.188-.047-.274.03-.086.026-.107-.026-.149a.565.565 0 0 1-.113-.153c-.058-.115-.087-.127-.146-.055Zm-32.054.14c0 .184-.116.418-.348.707-.055.067-.07.072-.096.032-.053-.08-.036-.23.05-.432.045-.105.097-.239.116-.296.03-.093.047-.104.156-.104.113 0 .122.007.122.092Zm30.847.115a.944.944 0 0 0 .259.048c.067 0 .123.005.123.011 0 .006-.013.053-.029.104s-.038.132-.048.18c-.013.059-.034.08-.065.069-.026-.01-.09.004-.143.03-.088.045-.099.044-.124-.005a.902.902 0 0 1-.049-.197.671.671 0 0 0-.069-.216c-.055-.085-.035-.088.145-.024Zm-29.832.322c-.15.155-.305.27-.362.27-.045 0-.01-.101.068-.194.076-.092.355-.253.437-.254.017 0-.047.08-.143.178Zm39.3-.05c.062.063.089.224.037.224a1.64 1.64 0 0 1-.369-.132c-.048-.044.079-.156.178-.156.049 0 .119.029.154.064Zm-11.039.034a.56.56 0 0 1 0 .208l-.022.173h-.219c-.188 0-.223-.009-.254-.066-.054-.1.033-.21.188-.236a.517.517 0 0 0 .184-.066c.071-.055.096-.057.123-.013Zm-18.729.028a.688.688 0 0 0-.175.059c-.114.067 1.012.07 1.136.003.034-.019.056-.037.05-.042-.026-.022-.911-.04-1.011-.02Zm-9.063.12c.032.084-.07.137-.323.17a1.613 1.613 0 0 1-.261.021c-.006-.005.031-.05.081-.098.163-.157.458-.21.503-.093Zm40.533.491c.087.073-.054.333-.193.356-.052.008-.066-.01-.074-.102-.005-.062-.033-.13-.063-.154-.05-.039-.048-.047.024-.106.081-.067.221-.064.306.006Zm-39.349.254c0 .201-.06.485-.098.462-.04-.025-.036-.298.008-.49.045-.197.09-.183.09.028Zm37.819.16c.106.04.209.21.209.347 0 .107-.001.108-.119.086-.161-.028-.269-.113-.321-.25-.068-.18.033-.26.231-.184Zm-39.312.275c0 .095-.27.332-.376.332-.019 0-.02-.047-.003-.12a.452.452 0 0 1 .163-.238c.123-.107.14-.113.176-.066.022.03.04.07.04.092Zm32.692-.106c-.001.032-.039.093-.086.136-.046.044-.078.083-.071.087l.072.04c.033.018.087.108.121.2.06.16.154.255.215.216.017-.01.018-.055.003-.105a4.648 4.648 0 0 1-.064-.273c-.038-.186-.188-.424-.19-.3Zm-31.214.694-.046.448-.022.208-.057-.127a.488.488 0 0 1-.038-.288c.01-.089.028-.268.04-.398l.021-.237.063.077c.055.068.06.105.039.317Zm31.562-.008c0 .188.074.392.151.417.07.022.051-.374-.024-.497-.091-.151-.127-.129-.127.08Zm-32.48.027c-.011.028-.029.129-.04.224l-.02.173h-.155c-.227 0-.2-.104.063-.239.088-.045.103-.066.087-.131-.015-.058-.007-.078.032-.078.034 0 .045.017.032.05Zm38.079.168c.047.047-.098.13-.272.153-.125.017-.149.012-.149-.032 0-.029.031-.082.068-.12.053-.054.092-.064.194-.05a.39.39 0 0 1 .159.049ZM82.82 54.46c.089.404.097 1.17.02 1.797a9.78 9.78 0 0 0-.07.8c-.004.253-.006.258-.031.105-.091-.546-.23-3.292-.173-3.427.029-.067.166.324.254.725Zm36.247-.705c-.039.039-.518.244-.666.285l-.116.033.078-.102a.669.669 0 0 1 .543-.246c.119 0 .18.01.161.03Zm-40.202.087a.605.605 0 0 1 .305.273c.076.146.051.157-.122.059-.33-.187-.772-.237-1.008-.114-.115.06-.223.222-.223.336 0 .074-.013.08-.16.086-.187.007-.199-.026-.08-.23.225-.386.857-.587 1.288-.41Zm40.53.012c.226.113.522.416.58.59.021.064.033.12.026.123a4.011 4.011 0 0 1-.131.062c-.156.071-.245.07-.246-.001-.001-.114-.122-.318-.312-.528-.185-.206-.247-.343-.153-.343.024 0 .13.043.236.097Zm-66.13.31c.383.508.357.413.38 1.383.012.466.023 1.853.024 3.083l.003 2.235-.082-.077c-.112-.105-.394-.538-.531-.815-.241-.486-.452-1.244-.533-1.916-.05-.411-.05-1.367 0-1.839.045-.415.165-1.104.26-1.486.114-.46.227-.847.248-.847.01 0 .115.125.23.28Zm54.61-.104c.094.044.206.08.25.082.079.003.079.003.009.037-.095.046-.584-.09-.559-.156.024-.063.109-.052.3.037Zm-51.02.208c.093.21.207.753.262 1.247.087.776.113 1.587.113 3.425v1.81l-.137.127c-.133.124-.427.316-.447.293-.006-.007.001-1.328.015-2.937.014-1.61.026-3.22.028-3.581.003-.602.008-.65.053-.592.028.035.079.129.113.208Zm50.519-.042c.24.106.227.095.179.153-.063.077-.142.058-.291-.066-.234-.196-.198-.224.112-.087Zm-68.852.322c.245.516.424 1.16.508 1.83.048.381.053 1.336.015 2.868l-.029 1.19-.093-.055c-.154-.09-.458-.44-.611-.703-.426-.73-.646-1.785-.61-2.916.031-.933.189-1.662.52-2.406.101-.225.1-.225.3.192Zm7.483-.086c.202.403.372 1.17.476 2.14.07.655.08 2.12.017 2.622-.061.498-.203 1.087-.262 1.087-.014 0-.09-.105-.168-.232-.687-1.109-.995-3.147-.7-4.628.1-.504.407-1.237.503-1.205.017.006.078.103.134.216Zm64.192.064c.053.105.083.541.037.541-.052 0-.203-.115-.239-.182-.054-.102-.046-.264.018-.39.064-.124.11-.116.184.03Zm-49.41.268c.024.03.037 1.257.042 4.098.007 3.793.004 4.063-.048 4.157-.067.124-.202.235-.286.235-.09 0-.23-.092-.286-.188-.132-.227-.136-.325-.13-3.617.004-1.732.02-3.416.034-3.742.032-.676.053-.739.315-.94.125-.096.153-.105.233-.077.05.018.108.051.126.074Zm3.337.058c.1.227.254 1.403.355 2.71.06.762.05 2.583-.017 3.26-.083.842-.264 1.827-.402 2.193-.031.082-.035.083-.093.03a.481.481 0 0 1-.094-.203c-.075-.33-.167-3.052-.17-5.025 0-1.554.03-2.23.121-2.714.075-.397.193-.495.3-.251Zm46.116.447c.065.202-.028.61-.148.648a.196.196 0 0 1-.13-.019.808.808 0 0 0-.143-.058c-.069-.018-.064-.029.102-.226.096-.114.191-.254.212-.312.044-.123.075-.132.107-.033Zm8.146.004c0 .007-.106.093-.235.19-.273.208-.351.354-.332.627.006.09-.001.162-.015.162-.13 0-.212-.18-.212-.47v-.167l.182-.118c.241-.155.417-.234.525-.235.048 0 .087.005.087.011Zm-9.585.063c.056.024.208.162.337.306.13.144.287.289.35.321l.114.06-.151-.018c-.125-.014-.151-.008-.151.035 0 .106.149.159.495.174.182.008.331.027.331.041 0 .055-.319.344-.442.401-.154.072-.163.121-.033.189.077.04.096.068.088.134-.009.074-.031.088-.185.12-.096.02-.302.103-.458.186-.197.104-.322.15-.408.15-.131 0-.246-.045-.246-.098 0-.017.112-.15.248-.297.24-.256.295-.345.34-.548l.021-.096.072.09c.04.05.105.172.145.272.088.22.128.27.127.164-.003-.26-.172-.635-.551-1.223-.213-.33-.233-.381-.155-.403a.677.677 0 0 1 .112.04Zm-28.096.577c.054.066.075.33.042.531l-.028.176-.053-.174c-.056-.182-.073-.577-.026-.577.016 0 .045.02.065.044Zm27.561.15c.133.118.194.297.225.663.021.24.018.258-.046.292-.093.05-.171.022-.427-.152-.217-.148-.217-.149-.197-.272.027-.17.239-.63.291-.63.023 0 .092.045.154.1Zm1.647.021c-.065.05-.094.049-.216-.004-.092-.04-.089-.04.088-.038.154.002.174.009.128.042Zm3.511.1.264.116-.021.112a2.057 2.057 0 0 1-.16.384c-.128.25-.14.263-.14.162-.001-.276-.235-.524-.425-.452-.097.038-.223.204-.273.363-.032.1-.047.115-.084.084-.085-.07-.044-.173.163-.407.143-.162.219-.278.245-.376.043-.164.025-.165.431.014Zm-2.652.166c.099.071.188.163.198.203.038.152-.123.53-.226.53-.102 0-.227-.095-.28-.213-.068-.152-.116-.572-.071-.617.064-.066.203-.03.379.097Zm-31.429-.025c.065.052.285.345.285.38 0 .06-.096.022-.15-.058a2.06 2.06 0 0 0-.171-.207c-.098-.104-.106-.145-.029-.152.009-.001.038.016.065.037Zm18.383.105c.134.028.322.081.42.119l.178.068-.127.022c-.268.046-.895.065-1.092.033-.223-.037-.5-.157-.459-.199.094-.095.712-.119 1.08-.042Zm-21.813.257c.051.062.05.33-.002.427-.038.073-.039.073-.1.01-.058-.057-.06-.077-.024-.275.041-.224.058-.245.126-.162Zm41.78.005c.062.072.089.149.119.337l.025.154-.131-.01c-.145-.01-.144-.01-.112-.385.015-.167.028-.18.099-.096Zm-22.478.125c.32.212.602.583.795 1.042.516 1.23.544 3.181.069 4.83l-.1.345-.197.142c-.227.163-.47.28-.697.337l-.156.04-.148-.162c-.923-1.01-1.365-3.184-.967-4.765a4.46 4.46 0 0 1 .878-1.7c.25-.295.245-.294.523-.11Zm-27.85.33c.225.452.698.931 1.556 1.581.927.701 1.499 1.327 1.843 2.016.21.423.273.671.226.91-.077.389-.384.83-.735 1.057-.26.168-.601.262-.952.264-.384 0-.618-.06-1.065-.279a4.309 4.309 0 0 1-.979-.676l-.147-.132.017-2.522c.01-1.387.025-2.558.035-2.602.016-.07.024-.061.073.08.03.088.088.225.127.304Zm22.717-.023c.114.11.414.343.667.518.252.175.559.418.68.54l.223.222-.132.04c-.244.075-.687.11-1.382.11-.893 0-1.182.042-1.663.24-.154.063.141-.189.34-.29.216-.11.617-.237.748-.237.04 0 .072-.013.072-.027 0-.053-.165-.101-.343-.101-.227 0-.461.107-.817.372-.35.262-.333.256-.292.115.082-.275.569-.629 1.19-.865.18-.068.335-.132.345-.143.033-.033-.209-.063-.341-.042-.16.026-.35.121-.732.37-.288.186-.297.19-.307.114-.013-.106.069-.254.195-.35.138-.107.528-.286.768-.355.243-.07.276-.102.132-.129-.244-.046-.454.039-.878.353-.32.237-.492.329-.683.365L87.73 58l.055-.07c.14-.179.502-.435.806-.57a9.285 9.285 0 0 1 1.266-.403c.008-.002.11.087.224.197Zm7.42-.151c.343.06.702.158.88.242l.132.062-.492-.025c-.27-.013-.603-.021-.739-.018-.226.005-.246 0-.246-.058a.443.443 0 0 0-.048-.158l-.049-.094h.14c.077 0 .266.022.422.049Zm-18.975.323c.136.09.123.142-.037.146-.135.004-.286-.065-.31-.142-.045-.143.133-.145.347-.004Zm31.373-.058c-.042.033-.269.194-.505.358-.236.164-.574.41-.751.547-.25.193-.327.238-.342.2-.036-.096-.018-.32.045-.548.077-.28.077-.264.001-.264-.069 0-.128.088-.128.19 0 .036-.014.066-.032.066-.018 0-.032-.092-.032-.212v-.212l.095.02a.86.86 0 0 1 .253.137c.13.098.152.128.126.176a.264.264 0 0 1-.092.091c-.098.052-.136.148-.093.23.037.07.037.07.105-.024.339-.473.863-.788 1.35-.81l.076-.003-.076.058Zm3.628.341a2.31 2.31 0 0 1-.016.307c-.026.254.003.366.128.491.088.089.021.234-.179.39a1.363 1.363 0 0 1-.195.138c-.044.002-.09-.211-.09-.421 0-.122.036-.38.079-.575.044-.195.08-.386.08-.425 0-.038.01-.08.022-.092.031-.032.162.11.171.187Zm-.414.432a6.237 6.237 0 0 1-.435 1.71c-.1.24-.12.267-.171.24-.098-.053-.225-.036-.367.048-.156.092-.157.083.011.495.062.152.117.353.127.459.016.182.015.187-.049.153-.108-.058-.288-.291-.454-.587a2.646 2.646 0 0 1-.157-.306c0-.014.051-.05.113-.08a.319.319 0 0 0 .161-.171c.045-.107.043-.147-.016-.472-.06-.325-.062-.53-.006-.53.012 0 .064.045.116.1.245.263.569.22.701-.091.065-.155.054-.257-.071-.654-.091-.29-.11-.394-.096-.522.022-.191.059-.223.307-.267.104-.019.214-.048.245-.065.048-.028.056-.015.066.102.005.074-.006.27-.025.438Zm-15.408-.464c.257.022.498.059.54.083.076.042.073.044-.081.065-.254.035-.696.031-.813-.008-.108-.035-.22-.134-.22-.195 0-.018.025-.021.056-.008.03.013.264.04.518.063Zm20.753.031c.15.044.178.063.148.099-.055.067-.341.164-.558.189-.185.021-.195.019-.214-.052-.036-.135-.022-.247.035-.282.071-.045.354-.023.589.046Zm-8.237.034a.396.396 0 0 1 .144.146c.048.094.048.096-.014.063-.08-.043-.194-.044-.194-.002 0 .072.13.16.238.16.138 0 .14.041.007.175-.089.09-.157.117-.474.19-.397.094-.574.175-.383.177.088.001.103.013.103.079 0 .103-.181.215-.375.23-.134.011-.14.009-.061-.022.048-.02.087-.047.087-.061 0-.033-.081-.065-.164-.065-.045 0 .013-.072.213-.264.264-.253.463-.38.666-.425l.095-.021-.102-.05c-.159-.077-.306-.015-.6.252a2.47 2.47 0 0 1-.356.278c-.094.046-.115.047-.188.005a.467.467 0 0 1-.132-.127c-.051-.08-.051-.08.054.009.058.048.12.087.136.087.039 0-.013-.102-.081-.158-.027-.023-.049-.054-.049-.07 0-.057.118-.025.19.053.075.08.159.106.159.05 0-.064-.041-.13-.081-.13-.089 0-.081-.074.02-.179.333-.345.868-.523 1.142-.38Zm7.433.096c0 .12-.078.287-.162.347-.164.115-.195.035-.1-.257.052-.16.062-.17.159-.17.089 0 .103.01.103.08Zm-38.392.11c-.169.328-.534.522-.791.42-.055-.021-.052-.032.042-.14.056-.064.152-.148.213-.186.117-.073.431-.184.528-.187.053-.002.053.005.008.093Zm18.309.184c.124.05.274.087.362.087.168.002.18.014.09.095-.142.13-.577.074-.734-.095-.077-.082-.077-.084-.017-.129.078-.056.05-.06.299.042Zm13.524.073c.108 0 .18-.017.205-.048.092-.11.216.094.186.307-.01.071-.016.068-.087-.047l-.076-.123-.043.123-.043.129c-.002.033-.256.07-.445.065-.206-.006-.263.006-.425.085-.102.051-.252.157-.333.235-.11.106-.159.135-.195.112-.093-.058-.07-.138.085-.292.251-.25.603-.35.86-.241l.117.049-.076-.08a.39.39 0 0 0-.182-.102c-.073-.014-.098-.031-.078-.056a.411.411 0 0 0 .048-.121l.02-.085.148.045c.082.025.223.045.314.045Zm-22.813.061c.01.016-.103.124-.252.24-.27.209-.27.21-.27.118 0-.107.097-.242.235-.327.104-.064.257-.08.287-.03Zm4.928.241c.059.143.058.353-.003.673a4.15 4.15 0 0 0-.06.477c-.013.255-.004.248-.395.325-.323.063-.386.06-.386-.019 0-.035-.014-.064-.032-.064-.055 0-.034-.115.037-.206a.955.955 0 0 1 .27-.185c.184-.088.36-.241.36-.313 0-.06-.145-.065-.457-.013-.341.056-.556.04-.584-.044-.007-.022.05-.102.125-.178.11-.11.215-.168.527-.29.214-.082.421-.178.46-.211a.561.561 0 0 1 .082-.061c.005-.001.03.048.056.11Zm24.212.23c.024.062-.121.203-.208.203-.075 0-.132-.062-.132-.145 0-.096.024-.11.181-.11.1 0 .145.014.159.052Zm-38.797.553c.08.155.063.296-.048.402-.12.116-.187.086-.243-.111a.683.683 0 0 0-.077-.182c-.046-.056-.045-.057.147-.134a20.4 20.4 0 0 0 .165-.066.375.375 0 0 1 .056.091Zm15.787.311c-.093.322-.019.714.134.714.096 0 .213-.39.18-.6-.017-.1-.17-.295-.233-.295-.016 0-.052.081-.08.181Zm1.084-.076a1.517 1.517 0 0 0-.067.612c.025.133.14.226.24.194.223-.071.236-.806.016-.892-.101-.038-.146-.018-.189.086Zm17.628.094c.026.093.055.262.066.376a4 4 0 0 0 .037.296c.014.073.005.088-.049.088a.581.581 0 0 0-.193.067c-.149.078-.202.055-.276-.122-.06-.145-.053-.298.023-.502.06-.16.238-.37.316-.37.016 0 .051.075.076.167Zm-33.879-.106c0 .041-.157.162-.21.162-.124 0 .01.172.21.272.153.077.223.143.223.213 0 .05-.027.059-.187.059h-.187l-.072-.168a1.319 1.319 0 0 1-.087-.3c-.014-.125-.01-.134.108-.195.14-.073.202-.086.202-.043Zm38.395.358c.155.02.315.047.356.063.075.029.075.03.018.129a.448.448 0 0 1-.294.22c-.136.038-.187.014-.169-.081.012-.06-.01-.1-.089-.167-.226-.191-.347-.36-.178-.248.041.027.201.065.356.084Zm-7.96-.067h.207l.075.216c.085.242.121.455.077.455-.058 0-.321-.188-.444-.317a1.59 1.59 0 0 1-.2-.265l-.074-.132.076.02c.042.012.17.022.283.023Zm-.268.275c.132.163.135.18.022.137-.175-.067-.389-.285-.389-.397 0-.05.27.14.367.26Zm-.345.058c.101.108.192.178.233.178.04 0 .062.016.054.04-.017.05-.134.045-.27-.011-.131-.055-.183-.026-.304.17a.592.592 0 0 0-.095.297c-.007.204.087.279.375.297.194.013.21.008.301-.084.053-.053.097-.13.097-.17 0-.053.009-.063.036-.036.09.09.021.26-.221.543l-.088.103-.237-.154c-.44-.285-.656-.613-.628-.951.011-.128.034-.147.248-.21.109-.032.155-.066.191-.142.058-.123.083-.113.308.13Zm1.431-.182c.084.018.084.014.027.203-.024.08-.055.242-.067.36-.013.117-.034.212-.048.212-.049 0-.158-.168-.193-.298-.062-.234.038-.566.157-.515.029.012.085.03.124.038Zm3.176.017c.152.07.156.076.126.168a1.1 1.1 0 0 1-.202.278 1.62 1.62 0 0 0-.402.82c-.033.214-.035.216-.158.255-.105.033-.136.032-.2-.01-.042-.028-.076-.06-.076-.07 0-.018.107.003.203.04.069.026.067-.063-.002-.132-.046-.046-.093-.05-.31-.032l-.256.022.111-.108c.061-.06.21-.213.331-.34a1.51 1.51 0 0 1 .374-.301l.152-.071v-.296c0-.29.002-.296.077-.296a.77.77 0 0 1 .232.073Zm3.393.192c.035.057.164.17.286.252.421.284.514.358.586.463l.072.105-.083.143a1.193 1.193 0 0 1-.214.254c-.125.108-.129.118-.095.216.059.17.041.304-.08.613-.09.23-.119.355-.131.567-.018.309-.028.332-.651 1.502-2.26 4.246-4.554 6.967-7.426 8.806l-.428.274h-.685l-.182.168c-.971.893-2.212 1.494-3.574 1.73-.208.037-.316.075-.429.151-.317.215-.516.465-.516.65 0 .067-.021.086-.135.115-.074.02-.328.092-.564.162-.569.17-.832.208-1.112.162-.338-.056-.381-.08-.381-.208 0-.06.036-.204.079-.321.044-.117.08-.28.081-.364l.002-.15.068.127a2.4 2.4 0 0 1 .136.362l.068.234.101-.085c.135-.115.13-.213-.029-.531-.137-.274-.214-.594-.166-.682.025-.045.043-.04.143.038a.631.631 0 0 1 .277.514l.018.214.212-.25c.2-.235.344-.477.344-.577a.11.11 0 0 1 .04-.075c.022-.017.469-.176.993-.353 1.451-.492 2.289-.824 3.273-1.301 1.202-.582 2.247-1.269 2.984-1.96.172-.16.208-.212.191-.266-.036-.115.012-.28.088-.304.038-.012.152-.101.253-.198.18-.173.246-.199.411-.162.036.007.12-.078.258-.26.112-.15.396-.48.63-.733.822-.89 1.149-1.316 1.354-1.766.063-.136.103-.187.149-.187.036 0 .134-.078.228-.18.125-.136.182-.177.23-.164.053.013.083-.019.168-.18.155-.293.309-.542.807-1.299.912-1.385 1.226-2.065 1.398-3.021.047-.258.075-.338.146-.416.124-.135.229-.36.413-.886.195-.556.206-.62.142-.774a.683.683 0 0 1-.05-.16c0-.029.118-.087.222-.108.009-.002.045.043.08.1Zm-38.384.052c.062.07.137.162.166.208a.504.504 0 0 0 .36.21h.1v.253c0 .172.013.257.04.268.073.028.172-.034.24-.15.048-.082.09-.115.146-.115.184 0 .142.195-.061.285-.179.08-.212.151-.108.236.063.051.107.059.251.044l.175-.018.051.264c.063.325.226.68.553 1.204.406.652.584 1.061.638 1.471.02.156.03.168.26.342.35.266.515.53.515.825 0 .1.033.15.494.734.561.712.842 1.174.983 1.615.072.224.125.284.275.308.112.018.131.038.254.264.334.615.636.947 1.036 1.143.214.105.258.14.293.235.126.343.32.566.9 1.033.468.377.606.514.757.753.101.16.204.46.234.682.017.131.043.172.208.326.243.226.677.513 1.33.882.287.161.573.328.635.37.126.087.17.095.25.044.07-.044.305.048 1.137.442.751.357 1.07.48 1.306.507.102.011.267.048.368.08.208.07.598.132 1.279.205.734.078 1.102.182 1.368.386.176.135.26.138.372.01.119-.136.163-.107.182.119.026.317.302.702.344.481.006-.032-.026-.112-.071-.177-.087-.126-.11-.242-.043-.22.022.007.067.07.1.138.032.07.075.136.095.15.07.045.235.023.32-.045.07-.055.084-.087.069-.16-.02-.102 0-.11.09-.042a.24.24 0 0 0 .119.047c.144 0-.004.242-.221.36-.1.055-.349.132-.642.199-.56.129-.68.178-.733.306-.044.107-.05.109-.158.046a.409.409 0 0 0-.166-.047c-.08 0-.088-.012-.088-.114 0-.176-.102-.257-.359-.285a.777.777 0 0 0-.245-.001c-.02.012-.089-.014-.155-.058-.38-.254-.735-.384-1.544-.566-.934-.21-1.268-.347-1.601-.657l-.193-.18-.031.081-.03.082-.233-.107a7.649 7.649 0 0 0-.723-.257c-.813-.248-1.16-.449-1.372-.795-.102-.166-.114-.175-.322-.23-.294-.076-.837-.354-1.175-.6a16.093 16.093 0 0 1-.779-.634c-.274-.237-.56-.478-.634-.536-.122-.095-.135-.118-.135-.245 0-.103-.018-.157-.07-.206-.09-.084-.204-.114-.259-.068-.032.027-.055.021-.096-.024-.044-.05-.048-.083-.021-.2.017-.077.032-.158.033-.18.001-.07-.097-.042-.195.056-.068.069-.126.096-.201.096-.226 0-.27-.078-.11-.193.078-.056.095-.089.087-.17-.007-.08-.04-.12-.168-.203-.21-.137-.334-.279-.334-.381 0-.077-.007-.082-.11-.062a.396.396 0 0 1-.252-.045.767.767 0 0 0-.188-.065c-.025 0-.09-.092-.145-.205a12.705 12.705 0 0 0-.51-.832c-.226-.345-.455-.736-.51-.869-.111-.27-.223-.678-.223-.818 0-.09-.003-.092-.119-.069-.262.052-.439.01-.602-.146-.082-.078-.07-.139.04-.189.043-.02.078-.05.078-.068 0-.018-.152-.223-.337-.456-.726-.916-1.048-1.503-1.157-2.105a.584.584 0 0 0-.175-.357c-.358-.4-.518-.89-.713-2.182-.106-.699-.222-1.226-.317-1.444-.076-.172-.043-.177.103-.014Zm16.002.089a2.17 2.17 0 0 1-.222.182l-.143.103v.204c0 .198.003.207.105.266.127.075.475.11.573.057.038-.02.068-.065.068-.1 0-.076-.023-.078-.152-.013-.08.04-.124.043-.225.015-.12-.032-.29-.187-.29-.265 0-.02.095-.124.211-.232.162-.151.204-.209.183-.247-.025-.044-.04-.04-.108.03Zm20.65.398c-.289.368-.563 1.06-.593 1.498l-.017.24.082-.096c.097-.114.274-.444.368-.683.084-.215.326-1.095.307-1.114-.008-.008-.074.062-.147.155Zm-5.56.464c-.256 1.298-.439 1.812-.777 2.182-.126.139-.353.323-.399.323-.039 0-.126-.404-.126-.587 0-.174.091-.528.183-.708a7 7 0 0 1 .254-.407c.233-.35.225-.349.44-.108.151.17.203.184.203.057 0-.068-.033-.117-.127-.194-.156-.126-.161-.2-.018-.286.121-.072.185-.177.278-.462.063-.193.15-.356.176-.33.007.007-.031.242-.087.52Zm-28.085-.193c.076.248.08.3.023.378-.034.047-.055.051-.11.022a.202.202 0 0 1-.085-.098c-.017-.052.071-.514.098-.514.005 0 .039.095.074.212Zm21.792.138c.137.07.491.2.786.29.294.091.628.204.741.25.19.08.207.095.23.209.014.067.115.312.223.543.194.412.198.426.199.692 0 .221-.013.3-.074.424-.107.22-.164.201-.164-.053 0-.152-.012-.209-.047-.222-.084-.033-.159.131-.159.346 0 .237.084.401.228.449l.099.033-.074.127c-.078.134-.095.275-.085.68.004.134.019.226.036.216.016-.01.125-.266.242-.57.117-.302.267-.655.334-.782.122-.232.122-.232.047-.232-.106 0-.197.13-.242.346-.034.165-.04.174-.068.102-.051-.137-.033-.379.04-.532.08-.166.177-.24.323-.247.091-.004.108.008.142.107.021.062.039.216.04.343.003.405-.189.765-.477.893l-.125.055v.258c-.002.995-.63 1.695-1.801 2.005-.243.065-.355.074-.851.074-.495 0-.609-.01-.849-.073-.779-.207-1.284-.565-1.55-1.102a1.46 1.46 0 0 1-.127-.312c0-.034-.081-.116-.199-.2-.28-.202-.49-.428-.556-.597a1.18 1.18 0 0 1-.055-.4c0-.247.003-.256.08-.272a.907.907 0 0 0 .21-.095l.13-.078.017-.321a2.3 2.3 0 0 1 .323-1.073c.075-.132.174-.313.219-.403.081-.162.084-.165.52-.363 1.036-.472 1.711-.609 1.891-.384.076.094.12.053.12-.115 0-.078.008-.142.017-.142.009 0 .129.057.266.126Zm8.561.277c.038.015.041.035.015.104-.021.054-.026.257-.013.564.022.53-.002.632-.177.76-.084.062-.084.062-.225-.02a.55.55 0 0 0-.325-.084c-.183 0-.183 0-.162-.086a.668.668 0 0 1 .086-.178.68.68 0 0 0 .089-.177c.023-.078.028-.08.05-.026.015.035.008.102-.015.16a1.486 1.486 0 0 0-.058.177l-.017.078.108-.067a.878.878 0 0 0 .199-.194c.077-.108.085-.137.053-.197a.435.435 0 0 0-.178-.13.453.453 0 0 1-.141-.08c0-.056.192-.425.247-.474.118-.105.357-.172.464-.13Zm-29 .09c.024.09-.055.258-.135.289-.054.021-.054.024.002.065a.498.498 0 0 1 .11.15c.033.065.082.11.125.117.07.01.072.003.072-.291 0-.251-.01-.31-.059-.354-.085-.078-.137-.067-.114.023Zm29.519.146c.129.079.295.306.295.404 0 .04-.027.089-.061.107-.091.05-.125.04-.108-.027.019-.074-.059-.232-.205-.411-.12-.148-.089-.177.079-.073Zm-30.392.56c.243.482.337.815.3 1.064l-.022.151-.064-.128a8.65 8.65 0 0 0-.253-.438 3.529 3.529 0 0 1-.255-.495c-.068-.192-.088-.469-.046-.63l.024-.093.05.073c.028.04.147.263.266.497Zm12.91-.322c-.124.021-.273.058-.33.082-.097.04-.1.047-.047.086.033.024.141.042.254.042.205 0 .324-.058.397-.194.037-.07.05-.07-.275-.016Zm17.52.792c.1.136.124.218.067.218-.018 0-.032-.012-.032-.027a.67.67 0 0 0-.111-.157c-.123-.144-.133-.168-.067-.168.025 0 .089.06.143.134Zm-.213.17c.088.079.172.143.188.143.054 0 .027.07-.138.368l-.165.299-.119-.108c-.203-.184-.3-.22-.582-.217-.14.002-.33.024-.421.05l-.167.047v-.4l.198.061c.307.096.591.113.737.043a.505.505 0 0 0 .261-.342c.011-.049.026-.088.034-.088.008 0 .087.064.174.144Zm1.857.391c-.076.31-.223.591-.419.8-.166.177-.171.18-.172.094-.002-.148.122-.471.288-.748a4.91 4.91 0 0 0 .225-.415l.069-.154.03.103c.023.076.017.163-.021.32Zm-3.773-.07a.522.522 0 0 1 .099.14c0 .016.009.055.021.087.015.044-.004.036-.074-.029-.135-.127-.17-.113-.168.064.012 1.243.076 2.167.179 2.598.019.079.019.08-.048.02-.135-.121-.203-.328-.248-.759-.041-.394-.085-.565-.19-.726-.064-.099-.139-.04-.139.109 0 .088-.01.103-.056.087-.184-.066-.202-.167-.093-.513.083-.262.095-.28.163-.253.044.017.044.03-.003.129-.03.063-.043.134-.029.168.021.056.024.057.064.003.093-.128.213-.583.229-.87.009-.158.021-.307.028-.329.025-.08.165-.041.265.073Zm-14.259.246c.097.407.025.966-.152 1.177-.07.085-.242.19-.309.19a.781.781 0 0 1-.102-.177c-.08-.166-.484-.69-.547-.712-.052-.017-.158.17-.29.514-.098.255-.157.363-.24.437a.5.5 0 0 1-.139.098c-.067 0-.105-.245-.12-.776-.01-.312-.008-.567.004-.567a.63.63 0 0 1 .138.079c.284.194.744.182 1.172-.03.13-.065.296-.18.37-.254.073-.075.143-.14.154-.142.012-.003.04.07.061.163Zm11.818.248c-.007.167-.014.464-.015.66-.002.3-.01.352-.05.338-.097-.034-.165-.121-.287-.372l-.126-.258.168-.304c.092-.167.186-.347.209-.4.039-.09.043-.091.078-.031.024.04.032.17.023.367Zm-4.175-.273c-.219.079-.386.284-.348.43.024.09.074.085.074-.01 0-.106.071-.154.255-.172.156-.015.158-.014.205.1.109.26.015.699-.158.743-.113.028-.193-.05-.314-.307l-.098-.207-.011.15c-.008.12.01.19.087.336.138.263.131.386-.028.531-.175.159-.306.222-.414.198-.174-.039-.259-.204-.4-.767l-.104-.417-.003.23c-.002.236-.041.39-.108.433-.128.082-.385-.022-.453-.184a.586.586 0 0 1 .144-.664c.126-.107.181-.108.275-.006.087.094.14.102.14.021 0-.062-.098-.166-.213-.225-.086-.045-.444-.048-.47-.004-.011.018.002.055.029.082.061.062.062.043-.013.334-.071.272-.081.471-.027.589.041.091.292.183.534.196.137.007.144.012.167.126a.527.527 0 0 0 .28.368c.131.067.456.126.706.127.137 0 .157-.01.214-.104.088-.144.108-.285.073-.506l-.031-.19.167-.096c.091-.053.174-.118.185-.146.037-.098.018-.358-.045-.604a2.08 2.08 0 0 1-.063-.341c0-.105-.043-.113-.234-.044Zm5.404.177c.087.17.095.456.023.764-.05.212-.267.714-.325.75-.044.027-.09-.112-.182-.55-.046-.215-.11-.42-.159-.503l-.082-.142.235-.108c.235-.107.339-.205.339-.317 0-.097.075-.045.151.106Zm-26.417.256c.447.635.65 1.02.743 1.404.036.15.068.197.25.363.294.267.552.612 1.082 1.446.253.399.521.806.596.906.203.268.202.265.016.199-.287-.102-.276-.093-.257-.21.015-.094.006-.112-.08-.157-.127-.066-.196-.17-.196-.293 0-.082-.024-.117-.128-.186a.79.79 0 0 0-.217-.103c-.072-.015-.11-.06-.194-.231-.143-.294-.369-.636-.814-1.236-.21-.281-.45-.624-.535-.76a4.236 4.236 0 0 1-.544-1.43c-.027-.142-.016-.13.278.288Zm1.758-.24c.22.533.797 1.56 1.174 2.084.217.303.81.937.875.937.018 0-.023-.075-.09-.168-.293-.401-.675-.969-1.276-1.894-.681-1.048-.771-1.175-.683-.96Zm27.066-.076c.07.019.213.087.318.15l.2.121c.012.007-.469.748-.486.748-.042 0-.525-.88-.525-.956 0-.017.061-.045.135-.062.186-.042.213-.042.358-.001Zm-7.938.356c-.061.23-.008.394.146.45.05.017.056-.005.056-.19a.862.862 0 0 0-.033-.27c-.045-.085-.146-.08-.169.01Zm7.542.805.156.318-.072.098-.341.46c-.303.412-.307.412-.313-.027-.002-.17.022-.328.081-.543.107-.384.112-.66.018-.88l-.069-.16.192.208c.132.143.241.308.348.526Zm-9.067-.587c-.038.19-.022.286.058.367.131.132.176.105.175-.106 0-.213-.053-.34-.147-.353-.052-.008-.07.012-.086.092Zm6.289.107c.072.158.203.685.247.99l.017.123-.127-.017c-.317-.043-.47-.322-.405-.74.027-.175.144-.53.174-.53.008 0 .05.078.094.174Zm2.172.174c.018.064.033.22.033.349 0 .226-.002.232-.066.197-.121-.064-.165-.233-.127-.48.019-.12.034-.228.034-.24 0-.062.099.073.126.174Zm-10.8-.107c0 .01.051.12.114.248.128.257.25.407.334.407.078 0 .1-.05.043-.097-.026-.022-.1-.14-.163-.261-.073-.14-.148-.238-.205-.267-.094-.05-.123-.057-.123-.03Zm-15.399.22c-.128.112-.121.335.021.658.149.338.163.398.108.478-.086.122.035.117.22-.009.197-.135.297-.164.413-.12.082.032.086.029.086-.06 0-.158-.099-.199-.35-.147a1.1 1.1 0 0 1-.216.034c-.024-.023-.135-.505-.14-.615a.79.79 0 0 1 .016-.208c.031-.114-.034-.118-.158-.01Zm10.842.13c.03.047.042.105.03.145-.022.068-.158.142-.207.112-.035-.022-.074-.261-.048-.303.038-.062.172-.035.225.045Zm17.982.19c.01.025-.007.092-.037.15-.037.073-.043.11-.018.118.08.027-.008.07-.14.07h-.142v-.143c0-.14.002-.142.093-.124.073.015.102.004.135-.049.049-.078.085-.086.109-.022Zm-17.937.546c0 .126-.098.25-.184.234-.04-.008-.056-.051-.063-.178l-.01-.168h.129c.126 0 .128.003.128.112Zm8.908.265c-.226.274-.63.405-1.235.401-.39-.002-.639-.044-.922-.155-.139-.055.122.173.282.246.145.066.21.075.592.074.469 0 .762-.062 1.09-.227.287-.145.376-.228.365-.34-.013-.138-.057-.138-.172.001Zm3.518.29c.208.094.322.134.562.197.118.03.132.042.098.084-.07.085-.211.139-.527.203-.349.07-.343.073-.376-.165-.018-.13.003-.41.031-.41.005 0 .1.041.212.092Zm3.208-.043a5.424 5.424 0 0 1-.32.461c-.175.237-.311.436-.304.444.028.027.216-.135.34-.292.158-.2.321-.52.302-.592-.008-.03-.016-.039-.018-.021Zm-1.403.061c.02.025.045.096.055.159.016.098.027.11.076.083.091-.05.179-.037.347.049.087.043.186.08.222.08.088 0 .081.07-.02.192l-.085.102-.053-.07c-.05-.067-.058-.068-.167-.022a.365.365 0 0 0-.214.334c0 .13-.024.14-.16.07-.183-.094-.335-.105-.674-.05-.433.071-.417.078-.291-.132.13-.217.179-.384.167-.561-.011-.154.025-.177.291-.183.096-.002.224-.023.286-.046.149-.057.176-.058.22-.005Zm-3.755.72c.092.059.167.12.167.134 0 .014-.062.102-.137.195-.478.59-1.407.97-2.643 1.082-1.093.098-2.294-.15-2.954-.61-.172-.121-.366-.304-.366-.347 0-.057.178-.132.312-.132.182 0 .35.069.737.304.692.42.854.466 1.636.468.625 0 1.043-.05 1.508-.186.562-.164 1.095-.5 1.365-.862.08-.107.159-.186.177-.175l.198.128Zm-10.487.247c.051.207-.118.344-.204.164-.034-.072-.033-.105.007-.201.042-.101.055-.111.112-.08a.208.208 0 0 1 .085.117Zm-20.035-.017c-.156.113-.291.25-.969.97-.93.992-1.748 1.605-2.86 2.145-1.333.65-2.8.95-4.383.9-1.295-.043-2.153-.157-5.449-.726-2.821-.487-5.09-.246-6.957.74-1.457.769-2.818 2.095-3.452 3.364a5.464 5.464 0 0 0-.409 1.187c-.121.591-.087 1.498.082 2.19.084.343.354.908.574 1.2.51.675 1.28 1.189 2.115 1.412.267.071.38.084.788.086.54.002.796-.051 1.185-.249.595-.301.808-.573 1.411-1.796.2-.407.439-.848.53-.98.182-.266.472-.561.632-.644l.102-.053.001.632c.007 3.226.065 13.672.082 14.703l.023 1.314-.243.016c-.545.035-.985.423-1.22 1.075-.128.354-.217 1.157-.141 1.277.034.054.237-.093.522-.38.234-.235.483-.38.65-.38.52 0 .62.803.372 2.99-.263 2.301-.618 3.691-1.29 5.046-.274.554-.439.812-.697 1.091-.509.549-1.268.82-1.886.674-.62-.146-1.237-.63-1.544-1.209-.054-.104-.094-.194-.087-.201a.536.536 0 0 1 .167.034c.34.103.765.026 1.116-.203.326-.212.553-.524.553-.757 0-.102.014-.121.115-.163a.913.913 0 0 1 .864.087c.078.052.15.086.16.075.012-.011.02-.159.02-.329 0-.271-.011-.329-.084-.47-.15-.29-.43-.5-.789-.59l-.143-.037-.002-.181c-.003-.243-.098-.449-.299-.645-.335-.33-.908-.519-1.382-.458-.509.066-.905.295-1.386.802-.437.461-.682.913-.797 1.473-.221 1.073.252 2.46 1.157 3.39.705.724 1.64 1.15 2.762 1.256 1.246.117 2.588-.324 3.934-1.295.859-.619 1.38-1.091 3.114-2.819a83.587 83.587 0 0 1 1.668-1.635c1.165-.99 2.381-1.539 3.503-1.584.308-.012.305-.016-.13-.238a3.56 3.56 0 0 0-.7-.25c-1.056-.273-1.74-.75-2.293-1.6-.646-.994-1.078-2.627-1.255-4.748-.064-.77-.072-2.508-.018-4.156.028-.87.05-2.007.051-2.526 0-.934.001-.945.078-1.112.094-.201.373-.51.518-.572.179-.076 1.2-.118 2.099-.086l.804.028-.225.172c-.541.413-1.407 1.742-1.909 2.929-.823 1.946-.933 4.187-.313 6.378.414 1.463 1.108 2.104 2.03 1.874.457-.114 1.096-.51 1.629-1.01l.24-.227.135.233c.296.515.632.843 1.006.985.151.058.233.067.484.058.27-.011.33-.025.548-.13.321-.153.5-.278.765-.534.2-.193.215-.202.194-.114-.047.196-.154.358-.375.568l-.227.215h3.789c2.73 0 3.788.01 3.788.035 0 .07-.418 1.157-.602 1.566-.382.85-.851 1.626-1.548 2.56-.596.798-1 1.081-2.139 1.498-.534.195-.668.259-.769.365l-.072.076-.286-.06c-.528-.111-1.084-.071-1.422.103-.121.062-.5.396-.5.44 0 .011.122.023.27.027.15.004.406.035.572.069.348.072.778.196.777.224 0 .01-.04.09-.087.178-.11.202-.278.329-.626.476a4.108 4.108 0 0 0-1.005.639c-.32.275-.898.539-1.938.884-1.556.517-2.427 1.032-3.334 1.971-.674.697-1.079 1.38-1.294 2.183-.074.274-.083.366-.084.882-.002.633.038.868.235 1.383.16.419.155.42.333-.024.587-1.464 1.736-2.63 3.4-3.452a9.185 9.185 0 0 1 4.13-.96c.516.001 1.33.063 1.37.104.008.008-.05.149-.128.314-.354.753-.376 1.456-.065 2.076.118.236.423.658.599.828l.113.109v-.381c0-.395.066-.754.179-.979.153-.303.6-.82.629-.726.008.025.038.167.069.317.21 1.043.92 2.608 1.517 3.349.275.342.58.52.737.432.04-.023.136.001.361.091.465.185.7.229 1.157.215.345-.011.41-.023.586-.104.286-.131.3-.163.097-.21-.288-.066-.655-.269-.945-.524l-.27-.236-.003-.3c-.003-.316-.073-.629-.156-.699-.062-.051-.064-.388-.004-.788.05-.338.313-1.16.33-1.034.028.204.082.327.188.431.14.138.168.14.168.015 0-.179.096-.524.192-.694.071-.125.15-.203.314-.312a2.77 2.77 0 0 0 .778-.835c.079-.135.281-.57.45-.968.56-1.318.765-1.69 1.125-2.046a1.76 1.76 0 0 1 .818-.452c.252-.053.712-.022 1.136.077.553.128.848.159 1.478.158.63-.002 1.059-.052 1.588-.185 1.734-.438 3.988-1.931 5.293-3.508a26.4 26.4 0 0 0 1.25-1.687c.945-1.422 1.512-2.742 1.81-4.216.27-1.327.384-2.73.5-6.096.05-1.489.096-5.387.062-5.387-.01 0-.823.66-1.806 1.466l-1.788 1.466-.015-1.336-.016-1.336-1.795 1.383-1.795 1.384-.016-4.482-.016-4.482-1.827 1.305-1.827 1.305-.031-1.522-.032-1.523-.09.285c-.15.466-.466 1.28-1.152 2.96-.711 1.741-.998 2.463-.998 2.514 0 .048.229.125.583.197.537.11 1.09.444 1.169.706.092.308-.138.585-.926 1.118-.27.183-.814.576-1.207.873-.393.297-.733.547-.754.556-.028.01-.04-.023-.04-.112 0-.07-.022-.255-.05-.41-.157-.908-.606-1.14-1.634-.848-.31.089-1.043.367-1.468.557l-.18.081-.264-.264c-.367-.367-.635-.5-1.05-.523-.384-.02-.683.054-1.244.309-.23.103-.56.253-.734.333-.175.08-.35.154-.39.165l-.07.021v-.833c0-.459-.013-.834-.029-.834-.015 0-.776.54-1.691 1.2l-1.664 1.199-.008-1.247c-.005-.686-.02-1.247-.035-1.247-.064 0-.446.392-.734.752-.29.364-.747 1.03-.926 1.35-.06.107-.094.135-.163.135-.094 0-.076.022-.47-.546a4.897 4.897 0 0 0-.429-.526l-.223-.228.16-.057a5.11 5.11 0 0 0 .444-.2c.913-.458 1.633-1.235 2.245-2.422.27-.525.426-.893.802-1.895.166-.44.322-.842.347-.892.12-.236.103-.256-.077-.094-.422.382-1.475.983-2.156 1.229-.841.304-1.244.375-2.018.356-1.095-.028-2.53-.014-2.795.027-.305.046-.52.144-1.02.461-.208.132-.41.256-.45.277l-.073.038.009-2.631c.008-2.44.013-2.642.066-2.775.152-.385.428-.463.944-.266.938.36 2.886.995 3.254 1.062.24.044.783.044 1.13.001 1.594-.198 3.417-1.064 3.981-1.89.064-.094.429-.861.811-1.705.383-.844 1.127-2.475 1.654-3.625.528-1.149.953-2.095.947-2.102-.007-.007-.075.033-.15.088Zm11.426-.031c-.012.05-.035.063-.083.05-.082-.021-.081-.003.002.137.191.318.38.48.565.48.13 0 .144-.04.046-.132a2.437 2.437 0 0 1-.237-.307c-.179-.265-.265-.333-.293-.228Zm20.756-.023c0 .028.079.075.194.118.198.072.263.14.184.19-.031.02-.062.005-.102-.05-.079-.108-.189-.103-.445.018-.121.057-.246.094-.298.088l-.089-.01.142-.139c.126-.123.325-.256.39-.26.013 0 .024.02.024.045Zm1.176.274c.033 0 .175-.038.317-.084.142-.046.264-.077.273-.068.008.008-.018.073-.059.145-.06.107-.079.122-.105.081-.028-.045-.05-.044-.223.005-.175.05-.203.05-.309.005-.114-.048-.136-.092-.097-.194.016-.041.029-.037.081.03.035.044.089.08.122.08Zm-2.002.31c0 .13-.112.28-.383.507-.14.117-.252.236-.252.268 0 .089.067.264.148.385a.532.532 0 0 1 .074.138c0 .046-.575.302-.871.388-1.19.347-2.793.422-4.418.208-.626-.083-.885-.161-1.035-.313a.743.743 0 0 1-.131-.165c-.014-.041-.025-.04-.079.008-.158.141-.389.085-.802-.198-.19-.13-.192-.133-.153-.224a1.48 1.48 0 0 1 .224-.287l.184-.193.213.107c.497.25 1.275.499 1.995.64 1.435.28 2.671.226 3.126-.137a.538.538 0 0 1 .299-.111c.376-.044.688-.22 1.198-.672.325-.289.591-.476.636-.448.015.009.027.053.027.099Zm-11.397.36c.19.15.086.492-.115.38-.055-.032-.064-.125-.031-.323.022-.138.036-.143.146-.057Zm11.966.16c.1.087.105.1.069.186-.037.091-.214.277-.463.485-.07.059-.166.163-.213.232l-.085.125-.047-.09a.857.857 0 0 1-.068-.209c-.021-.111-.017-.119.107-.182.169-.087.323-.244.453-.464a.882.882 0 0 1 .122-.177.76.76 0 0 1 .125.095Zm-20.488.03c0 .174.272.33.453.262.1-.039.175-.157.112-.177a50.71 50.71 0 0 1-.284-.096 3.575 3.575 0 0 0-.263-.082c-.01 0-.018.042-.018.093Zm-.74.55c.137.066.308.25.53.568l.12.172-.12-.023c-.193-.036-.292-.104-.435-.297a4 4 0 0 0-.263-.317c-.17-.178-.088-.228.167-.104Zm9.31.182c.095.122.005.358-.137.358-.074 0-.078-.01-.078-.203a.71.71 0 0 1 .022-.224c.031-.031.147.01.193.069Zm-54.143.04c1.914.127 3.237.518 4.541 1.34.664.419.988.743 1.227 1.232.198.402.263.716.245 1.18-.036.944-.461 1.61-1.28 2.005-.718.348-1.643.405-2.716.167-2.177-.482-4.304-1.945-5.504-3.784-.223-.341-.541-.968-.645-1.27-.056-.162-.056-.168.003-.233.084-.093.454-.266.777-.363.843-.252 2.122-.357 3.352-.275Zm57.254.413c.056.034.228.159.382.277.153.118.354.249.446.291.181.084.206.144.12.296a.416.416 0 0 0-.047.168c-.001.048-.01.088-.019.088-.054 0-.304-.157-.546-.343a6.895 6.895 0 0 0-.467-.33c-.104-.063-.195-.132-.201-.153-.008-.021.031-.08.085-.13.054-.051.098-.123.098-.16 0-.083.02-.083.15-.004Zm-2.976.418c0 .035-.021.114-.046.175-.034.081-.06.105-.098.09-.06-.022-.11-.14-.11-.252 0-.07.013-.078.127-.078.106 0 .127.01.127.065Zm-8.33.108c.125.064.348.314.546.61.093.14.218.32.276.397.058.077.1.147.093.154-.052.052-.32-.164-.754-.607-.479-.489-.494-.508-.43-.553.084-.059.16-.059.27-.001Zm19.322.05c-.123.098-.576.328-1.296.66-.361.165-.711.337-.779.382-.109.073-.179.087-.652.127-.703.06-1.786.06-2.308-.002a9.812 9.812 0 0 1-1.485-.297l-.295-.088.002-.175c.002-.168.039-.517.063-.596.008-.028.053-.026.18.008.3.081 1.238.265 1.646.323.505.072 2.38.082 2.859.016.571-.079 1.198-.198 1.607-.305.226-.059.439-.109.474-.111.057-.004.055.002-.016.059Zm-17.234.511c-.027.043.065.177.168.244.086.057.36.082.406.037.045-.046-.062-.184-.193-.248-.139-.067-.349-.086-.381-.033Zm6.209.159a.41.41 0 0 1 .033.16c0 .093-.007.098-.127.098-.107 0-.127-.01-.127-.066 0-.095.089-.254.142-.254.025 0 .06.028.079.062Zm-4.675.232a.151.151 0 0 1 .038.092c0 .036.035.061.108.075.059.01.158.054.219.096.148.101.22.121.311.086l.076-.03-.083-.032a3.1 3.1 0 0 1-.317-.18c-.128-.08-.269-.145-.312-.145-.061 0-.07.008-.04.038Zm17.115.343a.532.532 0 0 1-.148.1.94.94 0 0 0-.192.13c-.084.085-.162.03-.083-.06a.3.3 0 0 0 .061-.12c.009-.051.041-.066.162-.073.087-.006.151-.026.151-.047 0-.027.009-.027.035 0 .02.019.026.05.014.07Zm-12.39.113c.086.087.096.147.041.251-.044.085-.088.117-.162.117-.047 0-.055-.03-.055-.223 0-.253.038-.284.176-.145Zm-3.913-.009c-.013.021-.006.044.014.05.054.019.045.076-.025.168-.06.08-.061.08-.158.022-.096-.057-.097-.057-.097.01 0 .117.058.184.21.243.143.055.149.055.191-.003.053-.074.057-.335.007-.446-.04-.087-.103-.106-.142-.044Zm-2.28.352c.05.038.174.146.273.24.193.183.4.296.54.297.112 0 .088.079-.044.147-.14.073-.264.017-.655-.298a3.614 3.614 0 0 0-.462-.33c-.11-.05-.117-.059-.064-.09.103-.06.312-.043.412.034Zm3.544.338c.027.144.504.26.644.157.05-.037.02-.052-.259-.128-.373-.1-.398-.103-.385-.03Zm.82.253c0 .012.024.047.052.078.063.07.04.109-.116.189a.434.434 0 0 0-.154.121c-.025.047-.012.068.074.115.139.075.217.056.251-.061.084-.282.097-.287.397-.144a.94.94 0 0 0 .325.096c.105 0 .13-.014.173-.096.048-.095.048-.097-.04-.13-.298-.115-.961-.23-.961-.168Zm-2.381.7c.241.055.38.172.38.32 0 .1-.028.098-.27-.019-.184-.088-.365-.248-.365-.322 0-.038-.003-.038.255.021Zm3.144.153c0 .204.396.297.56.132.121-.122.09-.192-.084-.188a3.253 3.253 0 0 0-.237.014.454.454 0 0 1-.167-.013c-.062-.021-.072-.014-.072.055Zm-36.385.23c.404.052.748.127 1.201.259.48.14 1.414.523 1.414.58 0 .05-.279.513-.42.696a4.255 4.255 0 0 1-1.343 1.109c-.28.14-.727.305-1.092.404l-.355.095-.047-.092a5.414 5.414 0 0 1-.173-.579c-.2-.769-.318-.957-.601-.953a.805.805 0 0 0-.21.027c-.042.017-.126-.005-.26-.068-.412-.194-1.193-.278-1.561-.168-.09.028-.165.06-.165.072 0 .013.091.07.202.128.268.14.445.296.526.465.117.242.085.31-.165.358a.556.556 0 0 0-.33.249c-.029.053-.044.05-.235-.04-.407-.194-.81-.114-1.124.223-.129.139-.387.597-.354.63a.883.883 0 0 0 .214-.043c.376-.101.825-.059 1.067.101l.072.048-.067.092c-.057.077-.066.126-.055.295.023.363.326.889.796 1.382.28.295.28.3-.039.394-.673.2-1.595-.173-2.149-.869-.344-.432-.468-.798-.469-1.392 0-.44.037-.661.176-1.027.284-.745.912-1.346 1.884-1.804a7.362 7.362 0 0 1 2.035-.585c.372-.047 1.222-.04 1.627.013Zm34.261.11c.111.034.36.152.552.261.192.11.45.253.572.32l.222.12-.133.002c-.251.001-.608-.143-1.14-.462-.464-.278-.496-.304-.39-.304.063 0 .206.028.317.062Zm9.293.335c-.117.089-.687.163-.603.078.066-.066.282-.122.471-.123.171 0 .185.005.132.045Zm-.79.089c-.022.07-.226.152-.374.151-.162 0-.255-.04-.19-.08.153-.095.588-.15.564-.071Zm10.587 0c.069.021.126.058.126.08 0 .023-.062.069-.138.102-.076.033-.148.083-.159.112-.011.03-.035.045-.052.034-.068-.042-.012-.368.063-.368.018 0 .09.018.16.04Zm-15.838.328c.157.026.35.047.427.047h.14l-.075.08c-.144.155-.304.161-.802.03a3.34 3.34 0 0 0-.42-.075l-.223-.023.111-.053c.141-.066.464-.068.842-.006Zm2 .189c.228.096.162.26-.103.255-.142-.002-.62-.175-.659-.237-.027-.046.244-.093.451-.08.108.008.248.035.31.061Zm-.086.87c.039.043.095.16.124.26.045.157.048.22.016.437-.02.145-.075.338-.128.452l-.093.2-.146-.002c-.08-.002-.146-.015-.146-.03a1 1 0 0 1 .099-.187c.153-.251.219-.456.219-.686 0-.197-.005-.209-.112-.29a.825.825 0 0 0-.456-.173c-.094-.001-.102-.008-.066-.051.034-.042.09-.047.33-.03.25.019.297.031.359.1Zm1.385.004c.068.156.115.374.115.54.001.119-.007.133-.09.15a.383.383 0 0 1-.282-.051c-.066-.052-.045-.199.056-.392a.83.83 0 0 0 .095-.275c0-.127.044-.116.106.028Zm2.151-.058a.695.695 0 0 1 .17.075c.048.036-.003.04-.323.029-.438-.016-.569.015-.692.161-.067.08-.089.09-.112.054-.044-.07-.034-.21.017-.253.147-.122.638-.157.94-.067Zm-.747.963c.155.294.349.51.458.51.034 0 .069.013.079.029.027.042-.137.162-.221.162-.076 0-.27-.127-.506-.33-.206-.178-.282-.103-.128.127.096.141.087.19-.032.18-.11-.008-.225-.112-.31-.28a1.128 1.128 0 0 0-.114-.186c-.044-.05-.044-.062-.004-.088.064-.04.183-.035.32.014l.116.041.014-.244a1.21 1.21 0 0 1 .039-.285c.04-.066.123.034.289.35Zm-1.704.076a.765.765 0 0 1 .177.111c.01.017-.012.147-.048.288-.092.359-.078.388.171.365.33-.031.639.068 1.403.452l.667.335-.445-.018c-.745-.03-1.067-.103-1.285-.29-.145-.125-.242-.122-.275.008-.02.08-.017.105.054.456l.041.202.145-.021c.08-.012.26-.049.399-.082.335-.08.688-.08.866.001.074.034.135.074.135.089 0 .04-.168.131-.373.203-.58.202-1.75.208-2.952.013a2.61 2.61 0 0 1-.323-.064c-.008-.008.035-.063.095-.124.179-.18.48-.225.876-.132.226.054.573.205.698.304l.085.067.04-.074c.04-.072.064-1.048.026-1.048-.01 0-.098.041-.198.092-.497.252-1.03.379-1.707.406-.388.016-.407.014-.308-.032a9.9 9.9 0 0 1 .62-.212c.587-.187.962-.357 1.158-.526.2-.173.215-.217.128-.372-.09-.16-.273-.272-.493-.301-.145-.02-.162-.03-.136-.078.029-.055.147-.114.27-.136.107-.019.323.033.489.118Zm-.427.27c.027.045-.145.176-.296.226a.69.69 0 0 0-.212.117l-.078.073v-.088c0-.088.13-.242.27-.32.077-.042.29-.048.316-.007Zm-3.649.822a1.43 1.43 0 0 0-.038.128c-.023.088-.067.095-.22.03-.181-.076-.077-.202.171-.207.085-.002.103.008.087.049Zm8.448.237c.034.055.133.034.181-.039l.047-.07.056.086a.55.55 0 0 1 .061.254l.004.168-.168.056c-.092.03-.349.078-.571.105-.622.076-.803.11-.969.182-.115.05-.163.057-.19.03-.027-.028-.014-.06.053-.13.052-.055.082-.115.072-.142-.025-.067.113-.11.524-.164a1.88 1.88 0 0 0 .464-.11c.123-.062.293-.233.293-.294 0-.035.112.018.143.068Zm-7.957.29c.173.047.35.019.428-.067.08-.09.105-.08.128.048.012.062.034.112.049.112.094 0 .298-.119.349-.203l.059-.098.051.124a.56.56 0 0 1 .03.31l-.022.187h-.211c-.354 0-.608-.11-.608-.261 0-.096-.151-.074-.255.037-.049.053-.103.096-.12.096-.067 0-.23-.267-.23-.376v-.107l.105.08a.847.847 0 0 0 .247.118Zm3.175 1.084v.128h-.238c-.131 0-.238-.012-.238-.027 0-.057.118-.13.286-.175l.182-.05a.477.477 0 0 1 .008.124Zm.591-.014c.01.041.01.09-.002.108-.024.04-.398.047-.398.008 0-.042.136-.16.222-.191.103-.04.155-.017.178.075Zm.886-.053c.222.02.223.02.144.073-.21.143-.519.151-.686.019l-.088-.07.093-.04a.385.385 0 0 1 .204-.021c.061.01.211.029.334.04Zm-15.079 1.076c.168.068.273.268.345.657.052.28.056.755.056 7.063.001 6.222-.003 6.783-.052 7.029-.06.3-.197.612-.269.612-.084 0-.174-.275-.203-.619-.048-.582-.132-4.24-.22-9.692-.034-2.11-.07-4.09-.081-4.4l-.02-.564.09-.067c.107-.08.19-.085.354-.019Zm7.448 6.1c.607.26.709 1.91.355 5.712-.154 1.664-.142 1.571-.232 1.694-.141.194-.26.288-.36.288-.08 0-.102-.02-.154-.14-.13-.296-.139-.52-.095-2.69.022-1.125.035-2.67.028-3.435l-.012-1.39.128-.038c.17-.052.221-.052.342 0Zm-3.556.175c.028.032.065.13.08.216.017.088.03 1.742.03 3.745.002 3.251.007 3.607.056 3.804.17.695.636 1.188 1.26 1.336.43.103.935.03 1.36-.194.234-.124.585-.426.739-.636.05-.07.085-.1.076-.065a25.206 25.206 0 0 1-.79 2.394c-.976 2.47-2.42 4.154-4.363 5.09-.763.367-1.178.472-1.874.472-.89 0-1.606-.236-2.796-.92-1.247-.716-1.927-.976-2.702-1.031-.316-.023-.534.014-1.18.199a8.29 8.29 0 0 1-.947.209c-.384.055-.615.106-.81.179-.026.01.047-.081.162-.202.97-1.017 1.817-2.175 2.298-3.14.777-1.56 1.273-3.013 1.523-4.465.285-1.652.304-2.032.242-4.881-.023-1.07-.033-1.953-.022-1.964.058-.06.264.469.356.914.224 1.085.336 3.009.274 4.697-.065 1.751-.186 2.66-.47 3.528-.017.053.173.056 3.687.056 3.623 0 3.705-.001 3.705-.06 0-.034-.036-.31-.08-.613-.16-1.1-.236-1.785-.269-2.38-.017-.334-.032-1.874-.032-3.423V85.9l.103-.051c.142-.072.319-.07.384.002Zm-21.381.386c.184.34.181.296.202 3.228l.02 2.698-.066-.035A.89.89 0 0 1 67 91.93c-.469-.643-.752-1.916-.75-3.373 0-1.082.163-1.946.462-2.46l.088-.15.072.068c.04.037.11.136.155.22Zm3.48.014c.11.103.193.287.245.544.07.345.123 2.985.093 4.693l-.024 1.395-.116.154a1.274 1.274 0 0 1-.242.241l-.127.087-.02-1.3c-.01-.715-.03-2.347-.042-3.627l-.022-2.326.09.034c.049.02.123.066.164.105Zm3.757.09c.115.312.19 1.677.191 3.496 0 1.442-.031 2.325-.119 3.31-.072.815-.217 1.598-.295 1.598-.014 0-.04-.054-.06-.12-.218-.764-.364-3.229-.37-6.227-.003-1.838.004-1.926.151-2.09a.718.718 0 0 1 .196-.134c.16-.074.231-.035.306.166Zm3.331.016c.351.402.556 1.717.594 3.816.03 1.724-.082 3.442-.296 4.508a1.25 1.25 0 0 1-.072.264c-.047.05-.36-.148-.42-.264-.104-.202-.165-1.252-.222-3.805-.05-2.268-.004-4.379.1-4.576.055-.102.2-.076.316.057Z" clip-rule="evenodd" opacity=".5"/></svg>