<svg width="351" height="103" viewBox="0 0 351 103" fill="none" xmlns="http://www.w3.org/2000/svg">
<path style="mix-blend-mode:screen" opacity="0.25" fill-rule="evenodd" clip-rule="evenodd" d="M549.985 74.0608C549.985 74.0608 419.639 -6.78937 387.574 0.459903C387.574 0.459903 358.543 24.9628 352.749 25.6708C346.955 26.3788 320.577 28.1949 315.518 25.1475C310.46 22.1 302.413 13.5425 295.47 11.8494C288.527 10.1564 242.835 18.3138 229.531 25.0551C216.242 31.7965 183.257 47.0338 174.888 47.3416C166.519 47.6494 162.059 37.4451 155.759 35.3057C149.444 33.1663 125.165 39.2304 114.007 39.646C102.848 40.0616 80.1939 58.3618 70.8594 60.3165C61.5249 62.2865 39.6525 63.7333 39.6525 63.7333L30.3792 62.7791C30.3792 62.7791 25.8269 49.7734 20.4163 48.8961C15.0056 48.0188 0 55.0372 0 55.0372C0 55.0372 17.2895 57.8539 21.8265 64.1643C26.3481 70.4747 36.265 70.9672 36.265 70.9672C36.265 70.9672 78.094 62.7483 85.206 63.3485C92.318 63.9488 155.452 68.1198 162.672 71.5213C169.891 74.9228 188.115 85.6966 195.059 87.3897C202.002 89.0827 244.598 72.6294 256.109 70.0437C267.62 67.458 287.086 70.6286 299.225 76.231C311.349 81.8334 340.211 100.749 345.821 101.934C351.431 103.119 372.706 102.996 372.706 102.996L550 74.0454L549.985 74.0608Z" fill="url(#paint0_radial_101_405)"/>
<defs>
<radialGradient id="paint0_radial_101_405" cx="0" cy="0" r="1" gradientUnits="userSpaceOnUse" gradientTransform="translate(274.996 64.6271) rotate(144.107) scale(194.845 195.099)">
<stop stop-color="#432A5E"/>
<stop offset="1"/>
</radialGradient>
</defs>
</svg>
