<svg width="208" height="120" viewBox="0 0 208 120" fill="none" xmlns="http://www.w3.org/2000/svg">
<path style="mix-blend-mode:screen" opacity="0.25" fill-rule="evenodd" clip-rule="evenodd" d="M207.985 119.969C207.985 119.969 143.709 102.643 111.234 97.7532C111.234 97.7532 80.5516 75.5675 74.7153 75.2772C68.879 75.0021 42.4702 75.0633 37.6449 78.4553C32.8197 81.832 25.4056 90.8774 18.6196 93.0471C11.8183 95.2168 -34.3204 90.4038 -48.0457 84.674C-61.7862 78.9442 -95.7317 66.2012 -104.111 66.5068C-112.475 66.7971 -116.197 77.2176 -122.324 79.7846C-128.467 82.3515 -153.099 78.0733 -164.251 78.4706C-175.402 78.8678 -199.283 62.3508 -208.735 61.0673C-218.186 59.7839 -240.092 59.9214 -240.092 59.9214L-249.267 61.541C-249.267 61.541 -252.882 74.7424 -258.213 75.9953C-263.544 77.2482 -279 71.3656 -279 71.3656C-279 71.3656 -261.966 67.3319 -257.891 60.777C-253.817 54.2221 -243.982 53.0151 -243.982 53.0151C-243.982 53.0151 -201.704 58.1642 -194.657 57.0641C-187.611 55.964 -124.974 47.3311 -118.02 43.4502C-111.065 39.5692 -93.6637 27.5901 -86.8623 25.4357C-80.061 23.2661 -36.4191 36.5133 -24.7619 38.2551C-13.1046 39.9817 6.08923 35.459 17.7771 29.0569C29.465 22.6396 56.8848 1.84432 62.3994 0.270546C67.914 -1.30324 79.1423 4.50292 79.1423 4.50292L146.681 52.1289L208 120L207.985 119.969Z" fill="url(#paint0_radial_101_406)"/>
<defs>
<radialGradient id="paint0_radial_101_406" cx="0" cy="0" r="1" gradientUnits="userSpaceOnUse" gradientTransform="translate(-27.4212 82.4192) rotate(-148.385) scale(177.966 177.763)">
<stop stop-color="#432A5E"/>
<stop offset="1"/>
</radialGradient>
</defs>
</svg>
