<svg xmlns="http://www.w3.org/2000/svg" width="136" height="136" fill="none">
<path fill="#160D3B" fill-rule="evenodd" d="M90.404 45.014c-1.189.154-2.2.32-2.248.367-.048.048.731 1.51 1.73 3.25 1 1.74 1.847 3.134 1.883 3.099.036-.036.392-1.635.791-3.555.715-3.433.721-3.489.366-3.465-.199.013-1.334.15-2.522.304Zm1.354 2.429c-.335 1.54-.412 1.782-.524 1.64-.14-.178-1.644-2.864-1.644-2.936 0-.097.817-.208 1.807-.246l.703-.028-.342 1.57Zm-38.393.81c-1.736.306-7.038 1.923-7.209 2.2-.046.073 1.22 1.492 2.814 3.151l2.897 3.017-1.156 1.164c-1.304 1.312-1.36 1.291-1.394-.504-.02-1.007.091-.979-1.717-.44-.421.125-.833.228-.916.229-.085.001-.099-.767-.031-1.78.066-.98.074-1.781.018-1.781-.056 0-.49.196-.964.435-.473.24-.892.405-.929.368-.037-.037-.113-.901-.167-1.92-.055-1.019-.127-1.942-.16-2.051-.04-.129-1.287.286-3.513 1.167-1.9.752-3.628 1.404-3.841 1.45-.298.064-.616-.134-1.37-.853-1.549-1.473-3.886-2.781-5.833-3.264-.565-.14-.348-1.189-1.94 9.419-.612 4.076-.93 6.127-1.038 6.686l-.095.493 1.736-.113c3.195-.21 5.205-.778 6.965-1.971l.986-.668.104.628c.057.346.105 1.012.106 1.481l.002.853 3.187-.796c1.754-.438 4.527-1 6.163-1.249 4.15-.63 3.783-.518 3.653-1.109-.152-.69.041-.655 1.944.353.882.467 1.647.785 1.7.707.856-1.244 1.616-2.241 1.709-2.241.064 0 .307.63.54 1.4.231.77.493 1.388.58 1.373.545-.09 7.213-2.316 7.21-2.407-.003-.092-2.937-2.32-4.142-3.145-.297-.204-.246-.277.71-1.011.566-.435 1.07-.791 1.118-.791.048 0 .14.543.206 1.208l.12 1.207 1.846-.119c1.015-.066 1.846-.078 1.846-.027 0 .095-1.735 3.33-2.505 4.668l-.427.745.488-.108c1.418-.313 4.275-.612 5.886-.615 1.005-.002 1.826-.06 1.825-.13-.002-.07-.115-.853-.252-1.74-.336-2.175-.371-2.035.514-2.035.902 0 .85-.093 1.454 2.587.311 1.378.478 1.824.681 1.824.148 0 1.755-.268 3.57-.597 1.816-.328 3.817-.644 4.448-.703l1.148-.106v1.577l1.997-.024c1.622-.02 2.206.044 3.103.337 1.388.452 1.385.453 1.185-.07-.09-.24-.165-.48-.165-.534 0-.37 4.108.548 6.419 1.433.202.077.125-.165-.277-.876-.306-.54-.493-.95-.416-.913 2.403 1.191 3.473 1.421 5.415 1.163 2.384-.316 3.545-.872 4.053-1.94.354-.744.353-1.968-.003-2.712-.278-.582-.277-.587 1.114-4.52.766-2.164 1.369-4.058 1.341-4.208-.029-.15-.674-.6-1.432-1.002-4.533-2.398-9.57-1.624-11.487 1.765-.28.496-.542.901-.58.901-.04 0-.896-.415-1.903-.923-1.007-.508-2.497-1.116-3.31-1.351-1.565-.453-4.14-.948-4.932-.949h-.472l.117 3.663c.098 3.06.077 3.689-.123 3.815-.612.387-.664.215-.664-2.19 0-1.291-.048-2.395-.107-2.454-.059-.058-.333.011-.61.154-.278.143-.537.228-.577.188-.04-.04-.15-.751-.243-1.582-.094-.83-.21-1.75-.256-2.044l-.086-.534-2.163.58c-1.19.318-3.158.839-4.373 1.156l-2.21.577.024 1.225.025 1.225-1.283-.108a36.464 36.464 0 0 0-1.894-.117c-.602-.008-.593-.018.553-.605.64-.328 1.137-.62 1.105-.65-.033-.03-2.117-.678-4.63-1.442l-4.571-1.389-.583.563c-.32.31-.936 1.079-1.368 1.71-.433.631-.839 1.09-.902 1.018-.064-.071-.285-.779-.492-1.572-.645-2.472-.88-3.224-.999-3.21-.063.008-.925.156-1.915.33Zm2.222 3.813c.866 3.26.896 3.33 1.23 2.784l1.036-1.695c.433-.708 1.076-1.6 1.429-1.983l.643-.695 3.187.964c1.753.53 3.186 1.002 3.183 1.049-.003.047-.76.493-1.684.99a55.842 55.842 0 0 0-3.183 1.878c-1.541.998-3.798 2.816-3.798 3.06 0 .074.325.35.722.61.398.261 1.294.895 1.991 1.408l1.268.933-.673.233c-.37.128-1.485.487-2.478.798l-1.805.565-.472-1.717c-.26-.944-.525-1.817-.589-1.94-.076-.146-.54.358-1.352 1.47l-1.238 1.69-1.431-.746c-.787-.412-1.547-.748-1.688-.748-.14 0-.303-.121-.36-.27-.073-.19.463-.837 1.792-2.167l1.895-1.897-2.721-2.823c-1.497-1.553-2.721-2.865-2.721-2.915 0-.05.943-.396 2.095-.77 2.409-.783 4.732-1.238 4.895-.96.058.099.43 1.401.827 2.895Zm-23.55-1.364c3.686 1.812 6.278 5.212 5.961 7.82-.146 1.204-.932 2.48-2.086 3.383-1.964 1.538-3.745 2.194-6.545 2.41-1.177.092-1.317.072-1.317-.192 0-.162.264-2.025.586-4.14.323-2.114.795-5.238 1.05-6.94.256-1.712.541-3.097.638-3.097.096 0 .867.34 1.713.756Zm46.421 1.308.12 1.64-1.294.597c-.712.328-1.294.664-1.294.745 0 .082.097.28.215.443.2.271.34.235 1.889-.487.92-.43 1.696-.757 1.725-.728.029.029.106.86.173 1.846l.12 1.793-1.679.603c-1.51.543-1.674.643-1.632.996.025.216.08.427.122.468.041.041 1.305-.353 2.808-.877 1.916-.669 2.752-.89 2.799-.744.037.115.157.886.269 1.714.157 1.172.156 1.532-.004 1.63-.113.07-.804.177-1.535.238-.732.06-2.802.378-4.6.705-1.798.327-3.313.552-3.365.5-.052-.052-.26-.779-.46-1.615l-.366-1.52h1.363l-.117-2.996c-.064-1.647-.157-3.06-.206-3.139-.05-.079-.582-.144-1.184-.144H71.23v-.845c0-.782.034-.853.467-.954.257-.06 1.806-.47 3.443-.912 1.636-.443 3.025-.758 3.087-.7.061.056.166.84.231 1.743Zm23.079-1.628c1.049.271 2.907 1.122 3.087 1.413.081.13-2.16 6.737-2.348 6.924-.03.03-.474-.137-.987-.372-.512-.234-1.289-.474-1.725-.534-.774-.106-.794-.097-.794.344 0 .249.096.479.212.51 1.825.496 2.309.711 2.875 1.277 1.173 1.17 1.016 2.701-.347 3.395-.87.443-2.895.753-4.167.638-1.288-.116-3.56-1.184-3.437-1.616.044-.156.167-.723.274-1.26.107-.536.223-.975.26-.975.035 0 .47.24.965.532.495.292 1.227.672 1.628.844l.728.313.17-.444c.092-.244.147-.455.121-.469l-1.365-.678c-.724-.36-1.317-.71-1.317-.78 0-.068.12-.224.266-.346.39-.322.754-1.096.754-1.6 0-.989-1.075-2.35-2.593-3.285-.733-.452-.707-.38-.403-1.104.297-.712 1.16-1.695 1.874-2.135 1.34-.827 4.286-1.105 6.269-.592Zm-17.206.848c1.887.358 3.907 1.007 5.29 1.702 2.17 1.089 4.125 2.333 4.935 3.142 1.093 1.091 1.107 1.624.066 2.62-.972.929-2.155 1.333-3.884 1.327-1.179-.004-1.293.023-1.093.262.123.147.822.975 1.554 1.84.731.866 1.293 1.61 1.247 1.656-.046.046-.414-.033-.818-.175-.404-.143-1.468-.34-2.364-.44-.896-.1-1.644-.197-1.663-.216-.019-.019-.25-.598-.514-1.288-.263-.69-.557-1.28-.653-1.311-.095-.032-.31.042-.476.163-.287.21-.275.293.226 1.551.291.731.507 1.348.48 1.37-.027.022-.91.002-1.962-.044-1.725-.075-1.912-.114-1.912-.4 0-.25.126-.318.585-.318.322 0 .623-.062.67-.137.046-.076-.087-1.354-.297-2.842-.356-2.517-.408-2.709-.755-2.76-.368-.053-.373-.096-.373-3.011 0-1.627.068-2.957.151-2.957.083 0 .785.12 1.56.266ZM43.69 52.64c0 .64.043 1.385.097 1.653.094.474.045.514-1.706 1.38-1.722.853-1.793.91-1.603 1.273.109.21.218.404.242.433.024.029 1.045-.448 2.27-1.06 1.223-.613 2.245-1.114 2.27-1.114.025 0 .02.537-.012 1.193l-.057 1.194-2.11 1c-2.044.969-2.28 1.174-1.951 1.693.127.2.542.06 2.338-.794 1.96-.932 4.779-2.014 4.891-1.878.024.029.089 1.093.144 2.365l.1 2.312-1.054.112c-1.728.185-4.807.763-7.364 1.383-1.32.32-2.448.583-2.508.583-.059 0-.107-.58-.107-1.29 0-1.024.07-1.387.346-1.773 1.396-1.956 1.414-4.498.047-6.658-.232-.368-.358-.731-.28-.809.14-.137 5.629-2.337 5.88-2.356.07-.005.127.516.127 1.157Zm26.732 1.988 2.338.103v4.195l-1.955-.105-1.955-.104.001.407c.001.36.195 1.796.411 3.045l.075.431-2.567.205c-1.412.112-2.586.186-2.609.163-.023-.024.526-1.091 1.219-2.374.693-1.281 1.26-2.405 1.26-2.497 0-.105-.809-.127-2.21-.06l-2.21.105v-2.204l1.402-.794 1.403-.795 1.53.088c.841.048 2.582.134 3.867.19Zm14.649 1.129c.043.21.207.942.365 1.627l.288 1.244.615-.114c1.386-.259 1.388-.849.009-2.159-1.117-1.06-1.398-1.192-1.277-.598Zm-54.202 3.746c-.198 1.313-.259 2.476-.133 2.554.277.17 1.487-.228 1.776-.584.65-.8.116-2.038-1.014-2.355-.526-.147-.551-.131-.63.385Zm62.394 1.401c-.057.148-.152.568-.21.933-.059.365-.16.664-.226.664-.145 0-1.257-1.358-1.172-1.43.063-.054 1.314-.388 1.566-.419.08-.01.099.104.042.252Zm31.705 3.53c-.735.407-.856.876-.862 3.334l-.006 2.298-.553.163c-.734.216-1.193 1.085-1.092 2.07.072.709-.075.93-.339.51-.073-.117-.173-1.336-.222-2.709-.11-3.075-.13-3.107-1.928-3.093-1.759.014-2.715.325-3.431 1.116-.328.361-.595.731-.595.821 0 .09-.276-.022-.612-.25-.973-.66-2.445-.805-6.103-.604-2.038.112-2.974.239-3.732.507-1.041.368-1.793.919-1.793 1.315 0 .295-.326.29-.441-.009-.049-.128-.478-.444-.954-.702-.843-.458-.913-.467-2.837-.37-2.364.12-4.654.534-5.425.98-.31.18-.592.325-.628.325-.035 0-.118-.353-.183-.786-.075-.5-.29-.978-.591-1.315l-.474-.528-4.136.008c-3.61.008-4.336.056-5.704.374-1.96.455-3.422 1.148-3.88 1.84l-.348.525-.72-.639c-2.058-1.822-7.398-3.574-9.322-3.057-1.573.423-1.999 1.548-1.828 4.835l.118 2.258-.491.122c-.27.068-.734.307-1.031.533-.49.371-1.075.414-1.075.078 0-.07.278-.728.617-1.462.415-.896.645-1.671.7-2.362.075-.925.039-1.081-.361-1.555-.826-.98-1.484-1.115-5.291-1.09-1.87.013-3.692.09-4.048.174-.845.196-1.95.933-2.191 1.46-.248.543-.339.523-.646-.137-.195-.419-.456-.62-1.105-.85-.728-.258-1.223-.288-3.434-.206-3.694.138-5.157.334-6.117.82-1.67.846-1.963 1.61-1.941 5.071l.015 2.499-.769-.541c-.422-.298-.731-.62-.687-.717 1.325-2.862 1.577-4.29.966-5.486-.455-.89-.875-1.213-1.915-1.478-2.036-.519-6.374-.787-8.195-.506-.873.134-1.87.834-2.067 1.45-.144.456-.364.411-.492-.1-.147-.581-1.157-1.667-2.023-2.173-.963-.562-3.963-1.824-5.702-2.398-1.03-.34-1.63-.446-2.178-.384-1.617.182-2.077 1.273-2.22 5.257-.053 1.522-.165 2.672-.257 2.672-.479 0-1.309.602-1.64 1.189-.378.672-.643 2.373-.74 4.75l-.044 1.103-.984-.02c-.54-.011-1.024-.062-1.075-.112-.05-.05.113-.728.362-1.507.76-2.377.44-3.86-.99-4.602-.668-.346-.712-.495-.46-1.564.088-.374.282-1.503.432-2.51.314-2.11.202-2.73-.617-3.417-.699-.587-1.459-.768-3.728-.889-1.597-.085-2.055-.055-2.475.162-.696.36-1.591 1.278-1.865 1.916-.672 1.561-.768 13.31-.148 18.098.207 1.595 1.267 2.561 2.994 2.729 1.921.187 7.881.336 8.534.214.367-.069.917-.374 1.305-.723.465-.419.67-.522.67-.338 0 .147.089.462.197.7.294.642 1.193.829 2.883.598 1.575-.215 2.134-.397 2.622-.853.341-.32.357-.32 1.051.023.424.21 1.2.384 1.948.438 1.67.12 2.176-.213 3.114-2.05l.68-1.333.124.98c.3 2.362 1.107 2.576 7.643 2.028 3.956-.332 4.308-.476 5.202-2.13.622-1.15.886-1.422.886-.912 0 .444.832 1.924 1.493 2.656.991 1.096 1.412 1.209 4.825 1.29 2.997.073 3.004.072 3.839-.382.866-.47 1.633-1.099 1.81-1.483.083-.177.124-.174.21.016.247.543 1.386 1.62 2.018 1.907.749.34 2.133.415 2.644.142.568-.303.84-1.115 1.246-3.705.217-1.385.448-2.605.514-2.712.067-.108.26-.195.429-.195.34 0 .317.25-.23 2.545a11.672 11.672 0 0 0-.266 2.222c-.003 1.558.16 1.68 2.238 1.68 1.88 0 2.563-.186 3.328-.904.41-.386.604-.768.751-1.481l.2-.961.777 1.535c.897 1.769 1.382 2.207 2.438 2.207.861 0 2.538-.711 3.228-1.37l.468-.446v.616c0 .953.546 1.453 1.83 1.675.587.102 1.404.134 1.816.073 1.437-.215 1.884-.868 3.037-4.428 1.075-3.324 1.048-4.3-.161-5.782-.798-.978-.82-1.092-.406-2.177l.163-.429.445.444c.408.407.532.437 1.5.36l1.054-.085-.007 4.431c-.005 3.72.04 4.582.285 5.37.524 1.685 1.529 2.225 4.22 2.264 1.696.025 2.245-.227 2.666-1.222.218-.516.247-1.137.167-3.613l-.096-2.99.612-.404c.9-.592 1.11-1.346 1.017-3.66l-.076-1.9.782-.166c.43-.092.81-.14.843-.107.034.034-.023.977-.125 2.096-.102 1.12-.186 2.595-.186 3.28 0 1.741.449 5.381.753 6.108.358.856 1.09 1.672 1.74 1.944.673.28 5.813.323 7.204.06 1.263-.239 2.655-.906 2.792-1.339.142-.444.375-.459.511-.03.137.429.86.663 2.461.796 1.445.12 2.323-.072 2.818-.618.332-.366.737-2.32.754-3.643.015-1.098.159-1.612.452-1.612.302 0 .299.172-.047 2.74-.275 2.043-.275 2.17.01 2.604.377.573 1.463 1.06 2.68 1.204 1.332.156 2.363-.313 2.871-1.306.459-.899 1.271-4.09 1.429-5.624.066-.63.139-1.145.164-1.145.025 0 .287.12.582.267l.536.267v3.271c0 3.123.017 3.297.387 3.845.518.767 2.012 1.787 3.137 2.141.818.257.99.262 1.628.042.527-.183.788-.4 1.004-.84.324-.661.599-2.753.779-5.917l.12-2.1 1.369-.445c1.774-.578 2.193-.868 2.706-1.879.645-1.27.792-2.744.736-7.352l-.051-4.177-.59-.607c-.668-.688-3.132-2.368-4.006-2.733-.708-.295-1.063-.296-1.591-.004Zm3.149 1.843c2.352 1.565 2.445 1.733 2.435 4.368a116.295 116.295 0 0 1-.147 4.582c-.21 3.962-.51 4.472-3.096 5.274l-1.65.512-.096 1.39c-.053.766-.141 2.156-.195 3.089-.128 2.224-.383 3.662-.714 4.03-.615.683-2.286.173-3.742-1.142l-.807-.729-.055-3.582c-.041-2.695-.107-3.582-.264-3.582-.115 0-.579-.234-1.031-.52-.452-.286-.883-.458-.958-.382-.075.076-.293 1.054-.485 2.174-.409 2.39-1.064 4.855-1.444 5.433-.147.225-.434.497-.636.605-.489.262-2.298.11-2.997-.251-.652-.336-.667-.516-.28-3.29.221-1.589.228-1.978.041-2.369-.513-1.074-2.003-.388-2.009.925-.008 1.46-.48 4.022-.783 4.243-.315.23-2.698.28-3.436.073-.219-.061-.601-.41-.85-.775-.249-.366-.531-.69-.627-.722-.096-.031-.325.268-.51.665-.472 1.015-1.369 1.426-3.648 1.673-2.46.266-5.431.141-6.035-.254-1.33-.87-1.89-4.763-1.553-10.81.101-1.811.092-2.684-.03-2.759-.097-.06-.393-.024-.658.08-.266.104-.865.238-1.332.298l-.85.109-.085 2.562c-.091 2.745-.147 2.926-1.05 3.392l-.48.248v6.888l-.42.394c-.396.371-.514.389-1.998.298-2.1-.127-2.446-.278-2.904-1.268-.353-.764-.376-1.074-.425-5.849l-.052-5.041-1.328.102-1.329.102-.447-.656c-.246-.362-.447-.754-.447-.872 0-.119-.112-.215-.248-.215-.16 0-.377.432-.614 1.23-.201.676-.475 1.442-.609 1.701-.236.458-.216.503.699 1.58.91 1.07.942 1.14.942 2.106 0 1.089-.899 4.327-1.629 5.867-.517 1.09-1.004 1.326-2.537 1.228-1.611-.102-1.63-.137-1.741-3.09l-.093-2.482-1.115-.59c-.614-.326-1.18-.528-1.258-.45-.078.079.084.861.36 1.739.68 2.153.76 2.614.53 3.041-.242.453-2.114 1.354-2.813 1.354-.784 0-1.215-.528-2.328-2.848-.555-1.16-1.074-2.042-1.153-1.963-.08.08-.27.753-.423 1.496-.343 1.66-.619 2.215-1.268 2.55-.582.3-2.806.527-3.49.355-.466-.116-.467-.121-.354-1.222.063-.608.258-1.73.435-2.494.176-.764.373-1.724.438-2.135l.117-.747-.976.115c-.538.063-1.097.181-1.244.263-.19.106-.353.75-.568 2.238-.607 4.208-.737 4.502-1.912 4.316-1.065-.168-1.828-.618-2.373-1.399-.424-.608-.51-.925-.598-2.192-.118-1.705-.424-2.074-.585-.705-.19 1.608-.58 2.458-1.43 3.105-.424.324-1.076.67-1.449.77-.759.204-4.892.063-5.947-.204-1.184-.299-2.497-2.448-2.775-4.544-.063-.475-.2-.86-.306-.857-.104.003-.611.857-1.125 1.896-.516 1.043-1.128 2.03-1.364 2.204-.325.238-1.048.374-2.975.56-2.702.262-6.67.333-6.983.124-.501-.334-.652-1.046-.718-3.398-.048-1.694-.126-2.407-.26-2.362-.104.035-.54 1.012-.966 2.17-.946 2.57-1.193 3.046-1.871 3.615-.598.502-.79.525-2.063.246-1.64-.36-1.631-.332-1.298-4.105.199-2.244.193-2.362-.115-2.587-.412-.301-1.628-.305-2.037-.006-.27.198-.3.378-.206 1.315.06.597.263 1.696.45 2.443.188.746.343 1.675.344 2.064.002.683-.025.717-.768 1-.481.184-1.292.3-2.164.312l-1.395.017-.283-1.325c-.155-.73-.315-1.358-.354-1.398-.04-.039-.37.387-.733.947-1.027 1.585-1.082 1.606-4.161 1.553-1.45-.025-3.563-.104-4.698-.175-3.186-.202-3.332-.38-3.645-4.453-.245-3.194-.117-13.99.177-14.963.267-.88 1.1-1.777 1.864-2.005.762-.228 3.766.046 4.678.426.825.344 1.007.791.88 2.16-.103 1.102-.708 4.496-.883 4.952-.053.136.254.356.832.595 1.482.614 1.654 1.58.795 4.466-.28.943-.51 1.78-.51 1.861 0 .082.866.148 1.925.148h1.925l.186-2.688c.247-3.558.56-4.268 1.874-4.268h.493l.178-3.278c.177-3.259.37-4.174.965-4.567.71-.469 3.414.32 6.862 1.998 1.522.741 2.016 1.072 2.41 1.616.492.678.862 1.914.862 2.882 0 .69.45.653.603-.051.186-.852.84-2.215 1.226-2.557.84-.743 5.806-.737 8.796.01 1.136.285 1.207.333 1.583 1.062.524 1.017.414 1.793-.565 3.982-.42.939-.763 1.755-.763 1.814 0 .058.181.151.403.207.222.056.876.448 1.453.872.577.424 1.122.726 1.211.67.093-.056.166-1.324.17-2.931.01-3.734.189-4.321 1.523-4.995.802-.405 1.267-.498 3.28-.654 1.29-.1 3.144-.157 4.119-.125 2.23.072 2.33.155 2.73 2.263.158.84.313 1.623.344 1.74.114.431.395.191.496-.425.331-2.014.475-2.467.953-3.011.793-.902 1.344-1.008 5.248-1.014 3.094-.004 3.558.032 4.138.319.36.178.733.498.83.711.239.522-.052 1.633-.9 3.443-.368.782-.668 1.476-.668 1.541 0 .066.419.33.93.589l.931.47.443-.525c.248-.295.81-.655 1.28-.822l.84-.297-.112-2.72c-.124-3.011.022-3.663.892-3.993 2.035-.773 8.162 1.47 9.643 3.527.285.397.57.722.633.722.062 0 .245-.343.405-.762.16-.418.512-.918.781-1.11.68-.483 2.193-.978 3.904-1.278 1.76-.309 8.115-.37 8.65-.084.455.242.747 1.36.605 2.307-.189 1.255.006 1.43.696.626.342-.398.897-.804 1.313-.958.906-.335 3.334-.75 5.128-.877 1.218-.086 1.458-.053 2.129.298.585.306.854.596 1.19 1.285.434.889.646 1.078.76.68.451-1.568.651-1.862 1.551-2.273 1.1-.503 2.981-.736 5.943-.737 4.274 0 4.647.455 3.407 4.155a94.256 94.256 0 0 1-.713 2.079c-.058.14.078.212.408.212.272 0 .869.189 1.327.42.457.231.883.365.945.297.062-.068.036-1.367-.058-2.887-.193-3.108-.055-4.046.68-4.623.593-.465 1.585-.698 2.723-.639l.971.05.107 1.698c.059.933.117 2.055.128 2.493.027 1.084.549 1.695 1.473 1.726l.672.022-.06-1.149c-.072-1.369.099-1.65 1.004-1.65h.647l-.031-2.686c-.033-2.946.052-3.253.905-3.253.299 0 1.139.446 2.317 1.23ZM17.394 67.281c-.649.317-.795.998-.678 3.163.058 1.09.156 2.373.216 2.85l.11.87-.97.12c-1.735.216-1.687.049-1.58 5.505.096 4.944.19 5.54.891 5.716.522.131 2.15-.316 2.36-.647.125-.197.091-.812-.115-2.113-.368-2.319-.375-3.506-.021-3.86.406-.405 3.024-.372 3.816.05 1.126.598 1.189 1.196.4 3.828-.474 1.583-.517 2.393-.134 2.54.148.057.643.103 1.1.103 1.026 0 1.064-.05 2.106-2.82.556-1.477.775-2.307.775-2.94 0-.835-.05-.934-.915-1.845l-.915-.964.59-1.696c.81-2.325.964-2.998.838-3.667-.213-1.122-.638-1.547-2.417-2.418-3.234-1.58-4.805-2.092-5.457-1.775Zm108.809.22c-.062.162-.062 1.24 0 2.398l.112 2.103h-.486c-.802 0-1.028.426-1.084 2.041l-.05 1.437-1.546.049c-2.34.073-2.459-.098-2.713-3.903-.142-2.114-.288-2.344-1.569-2.467-1.235-.118-1.276-.014-1.196 3.052.058 2.238.12 2.706.452 3.439.518 1.143 1.225 1.832 2.439 2.376l1.014.454-.056 4.147c-.061 4.556-.08 4.468.975 4.473 1.094.005 1.131-.1 1.445-4.14.157-2.02.324-3.713.37-3.76.047-.046.555-.16 1.131-.252 1.501-.241 2.565-.681 2.976-1.232.343-.459.358-.668.358-5.071v-4.593l-.425-.315c-.234-.173-.787-.363-1.229-.423-.67-.09-.823-.059-.918.187Zm-122.4.274c-.292.084-.63.273-.75.418-.27.325-.443 3.15-.594 9.747l-.111 4.836.398.763c.708 1.356 1.801 1.644 7.474 1.967 1.851.106 1.998.09 2.327-.237.442-.442.71-1.392.712-2.524 0-.692-.063-.898-.297-.967-.163-.048-1.54-.14-3.06-.204-2.518-.107-2.762-.145-2.762-.428 0-.17.118-1.158.263-2.196.353-2.523.073-3.385-1.102-3.385-.193 0-.351-.057-.351-.127s.153-1.311.34-2.757c.447-3.466.45-4.68.011-4.915-.394-.21-1.757-.205-2.497.009Zm65.374 1.104c-.403.43-.412.504-.412 3.34v2.9l-1.13.52c-1.749.805-1.904.997-1.788 2.217.124 1.32 1.07 5.954 1.495 7.326.432 1.397.724 1.556 1.833.995.462-.234.882-.491.932-.572.05-.08-.302-1.329-.783-2.774-.528-1.588-.827-2.747-.756-2.93.098-.256.263-.292 1.007-.225 1.242.112 3.724.908 4.195 1.345.422.393.42.285.08 3.711-.09.906-.06 1.15.165 1.336.406.336 1.658.429 2.03.15.355-.266 1.305-3.274 1.305-4.131 0-.878-.29-1.447-1.218-2.389l-.858-.872.443-1.503c.243-.827.596-1.905.783-2.396.44-1.154.435-2.137-.012-2.86-.605-.976-5.231-3.628-6.33-3.628-.393 0-.696.136-.981.44Zm-11.686 1.1c-.59.076-1.317.278-1.615.449-1.026.589-1.142 1.095-1.504 6.548-.181 2.724-.306 5.588-.278 6.365.049 1.355.074 1.435.606 1.91 1.027.915 1.732.554 1.748-.894.011-.985.59-4.369.777-4.546.082-.078.953-.16 1.935-.181 2.342-.053 2.496-.038 2.61.26.054.139-.166 1.303-.489 2.587-.624 2.484-.722 3.458-.378 3.743.246.203 1.742-.023 2.097-.318.33-.273.532-1.004 1.003-3.635.508-2.839.551-4.41.137-5.01-.5-.723-.686-.816-2.723-1.346l-.718-.187 1.1-2.087c.606-1.148 1.1-2.295 1.1-2.548 0-.262-.179-.639-.417-.876-.392-.392-.521-.415-2.167-.395-.963.012-2.233.084-2.824.16Zm29.889-.066c-2.739.29-5.994.759-6.332.912-.53.242-.927.92-1.153 1.974-.367 1.706.314 2.168 2.459 1.672.641-.148 1.191-.244 1.223-.213.031.031.142 2.686.247 5.9.144 4.444.247 5.931.427 6.217.32.506 1.426.826 2.147.62.743-.21.767-.563.292-4.381-.361-2.901-.365-3.056-.08-3.224.166-.098.54-.333.833-.523l.532-.346.085-2.963.085-2.962 1.275-.124c.701-.068 1.456-.204 1.678-.303.365-.162.396-.26.323-1.016-.121-1.264-.267-1.361-1.98-1.33-.806.015-1.734.056-2.061.09Zm23.12.573c-2.441.46-3.631.753-3.819.94-.369.368-1.062 6.92-1.15 10.868-.044 1.944-.024 2.086.341 2.475.212.227.764.59 1.226.806 1.243.58 1.302.478 1.451-2.481.152-3.036.255-3.218 1.951-3.461 1.666-.24 2.814-.207 3.057.086.239.287.189.891-.248 2.995-.191.92-.26 1.7-.186 2.097.116.616.752 1.443 1.109 1.443.389 0 .836-.695 1-1.554.927-4.851 1.073-6.249.718-6.91-.261-.488-1.251-.963-2.526-1.214-.584-.114-1.101-.27-1.148-.346-.047-.076.255-.81.67-1.632.899-1.777 1.048-2.39.779-3.206-.324-.978-1.333-1.262-3.225-.906Zm-64.647.252c-2.547.241-3.345.509-3.937 1.321-.316.433-.348.7-.321 2.63.036 2.547.77 9.47 1.062 10.015.113.21.448.529.746.71.478.291.869.33 3.316.33 1.662.001 2.91-.072 3.116-.182.814-.434.887-1.012.961-7.502.075-6.603.043-6.887-.832-7.339-.553-.285-.939-.283-4.11.017Zm-14.658.061c-1.418.144-1.852.352-2.251 1.08-.27.495-.298 1.123-.285 6.555l.015 6.008.462.397c.447.384.56.397 3.386.39 3.994-.01 4.458-.191 5.388-2.101.917-1.886 1-4.212.172-4.88-.195-.158-.926-.414-1.623-.569-.698-.155-1.27-.32-1.27-.367 0-.047.498-1.022 1.106-2.165.608-1.143 1.105-2.23 1.105-2.417 0-.657-.383-1.42-.826-1.647-.55-.281-3.742-.45-5.38-.284Zm-9.62 1.61c.2.821.196.838-.35 1.4-.303.312-.598.568-.655.568-.056 0-.275-.355-.487-.789L19.7 72.8l.725-.737c.399-.406.776-.68.837-.61.062.069.204.5.315.957Zm78.385-.805a547.8 547.8 0 0 1-2.35.34c-2.319.332-3.218.732-3.656 1.627-.3.611-.301.814-.037 5.26.294 4.94.456 6.241.851 6.844.415.631 1.3.808 3.483.697 2.61-.133 3.697-.38 4.293-.975.474-.472.476-.484.473-2.735-.003-2.91-.28-7.676-.53-9.108-.304-1.74-.897-2.198-2.527-1.95ZM58.942 73.11l.286.6-.526.524c-.582.581-.774.543-1.178-.237-.273-.525-.27-.532.298-1.003.315-.26.631-.476.703-.479.072-.002.26.265.416.595Zm14.185.71c.266.628.483 1.155.483 1.172 0 .061-1.076.403-1.27.403-.258 0-1.248-2.073-1.025-2.149.093-.032.4-.2.68-.373.28-.174.541-.288.58-.255.039.034.287.575.552 1.202Zm42.689-.164c.093 1.076-.005 1.243-.53.911-.188-.12-.175-.31.073-1.098.166-.525.316-.936.333-.914.018.023.073.518.124 1.101Zm-4.974-.036c.224.677.14.845-.66 1.313l-.514.301-.178-.64c-.269-.969-.223-1.19.287-1.377.747-.272.855-.231 1.065.403Zm-77.522.668c0 .857-.039.949-.502 1.188-.276.142-.58.259-.675.259-.152 0-.693-.85-.693-1.087 0-.127 1.555-1.289 1.724-1.289.08 0 .146.418.146.929Zm12.604 2.277c.052 1.728.11 2.073.4 2.394.298.328.453.362 1.233.27l.893-.104v3.696l-1.403.116c-1.607.134-2.267-.038-2.5-.653-.087-.227-.182-2.061-.21-4.075l-.052-3.662H45.864l.06 2.018Zm52.128.685c.028 1.578.12 2.707.233 2.842.124.148.61.224 1.44.224h1.255v1.339c0 1.005-.061 1.362-.243 1.432-.134.052-1.082.147-2.107.211-1.773.112-1.868.101-1.972-.225-.241-.759-.436-3.323-.437-5.757-.001-2.857-.041-2.766 1.189-2.71l.595.026.047 2.618Zm-63.55 3.363c-.022.377-.443 2.163-.51 2.16-.042-.001-.555-.147-1.14-.323l-1.062-.322V80.486h1.36c.748 0 1.356.058 1.352.128Zm-14.335.678c-.05.257-.14 1.025-.202 1.707-.061.682-.151 1.201-.2 1.153-.076-.076-.7-2.856-.719-3.199-.003-.07.268-.127.602-.127.572 0 .603.028.52.466Zm110.166 1.004c-.226.226-.103.375.354.427.448.052.47.098.518 1.115.038.79.114 1.06.298 1.06.19 0 .247-.252.247-1.103 0-1.063.015-1.103.425-1.103.264 0 .425-.096.425-.254 0-.2-.233-.255-1.077-.255-.592 0-1.128.051-1.19.113Zm2.777 1.233c0 1.104.049 1.369.255 1.369.193 0 .257-.216.264-.89l.008-.892.344.891c.188.49.446.89.572.89.126 0 .369-.4.541-.89l.311-.89.051.89c.037.641.121.89.298.89.194 0 .246-.286.246-1.368 0-1.322-.013-1.367-.381-1.315-.288.04-.46.273-.703.95-.178.493-.37.85-.427.794-.057-.056-.225-.46-.373-.896-.196-.578-.369-.809-.637-.848-.353-.052-.369.007-.369 1.315Zm-60.924-.08c.047.124.062.52.033.88l-.054.654-.372-1.06c-.363-1.039-.364-1.057-.033-.88.187.099.378.282.426.406Z" clip-rule="evenodd"/><path fill="#78769D" fill-rule="evenodd" d="M32.037 50.702c3.686 1.812 6.278 5.212 5.961 7.82-.146 1.204-.932 2.48-2.086 3.383-1.964 1.538-3.745 2.194-6.545 2.41-1.177.092-1.317.072-1.317-.192 0-.162.264-2.025.586-4.14.323-2.114.795-5.238 1.05-6.94.256-1.712.541-3.097.638-3.097.096 0 .867.34 1.713.756Zm-1.3 11.355c-.127-.078-.066-1.24.132-2.554.078-.516.103-.532.629-.385 1.13.317 1.664 1.555 1.014 2.355-.289.356-1.5.754-1.776.584Z" clip-rule="evenodd"/><path fill="#78769D" d="M43.69 52.64c0 .64.043 1.385.097 1.653.094.474.045.514-1.706 1.38-1.722.853-1.793.91-1.603 1.273.109.21.218.404.242.433.024.029 1.045-.448 2.27-1.06 1.223-.613 2.245-1.114 2.27-1.114.025 0 .02.537-.012 1.193l-.057 1.194-2.11 1c-2.044.969-2.28 1.174-1.951 1.693.127.2.542.06 2.338-.794 1.96-.932 4.779-2.014 4.891-1.878.024.029.089 1.093.144 2.365l.1 2.312-1.054.112c-1.728.185-4.807.763-7.364 1.383-1.32.32-2.448.583-2.508.583-.059 0-.107-.58-.107-1.29 0-1.024.07-1.387.346-1.773 1.396-1.956 1.414-4.498.047-6.658-.232-.368-.358-.731-.28-.809.14-.137 5.629-2.337 5.88-2.356.07-.005.127.516.127 1.157ZM55.587 52.066c.866 3.26.896 3.33 1.23 2.784l1.036-1.695c.433-.708 1.076-1.6 1.429-1.983l.643-.695 3.187.964c1.753.53 3.186 1.002 3.183 1.049-.003.047-.76.493-1.684.99a55.842 55.842 0 0 0-3.183 1.878c-1.541.998-3.798 2.816-3.798 3.06 0 .074.325.35.722.61.398.261 1.294.895 1.991 1.408l1.268.933-.673.233c-.37.128-1.485.487-2.478.798l-1.805.565-.472-1.717c-.26-.944-.525-1.817-.589-1.94-.076-.146-.54.358-1.352 1.47l-1.238 1.69-1.431-.746c-.787-.412-1.547-.748-1.688-.748-.14 0-.303-.121-.36-.27-.073-.19.463-.837 1.792-2.167l1.895-1.897-2.721-2.823c-1.497-1.553-2.721-2.865-2.721-2.915 0-.05.943-.396 2.095-.77 2.409-.783 4.732-1.238 4.895-.96.058.099.43 1.401.827 2.895Z"/><path fill="#78769D" d="m70.422 54.628 2.338.103v4.195l-1.955-.105-1.955-.104.001.407c.001.36.195 1.796.411 3.045l.075.431-2.567.205c-1.412.112-2.586.186-2.609.163-.023-.024.526-1.091 1.219-2.374.693-1.281 1.26-2.405 1.26-2.497 0-.105-.809-.127-2.21-.06l-2.21.105v-2.204l1.402-.794 1.403-.795 1.53.088c.841.048 2.582.134 3.867.19Z"/><path fill="#78769D" d="m78.458 52.01.12 1.64-1.294.597c-.712.328-1.294.664-1.294.745 0 .082.097.28.215.443.2.271.34.235 1.889-.487.92-.43 1.696-.757 1.725-.728.029.029.106.86.173 1.846l.12 1.793-1.679.603c-1.51.543-1.674.643-1.632.996.025.216.08.427.122.468.041.041 1.305-.353 2.808-.877 1.916-.669 2.752-.89 2.799-.744.037.115.157.886.269 1.714.157 1.172.156 1.532-.004 1.63-.113.07-.804.177-1.535.238-.732.06-2.802.378-4.6.705-1.798.327-3.313.552-3.365.5-.052-.052-.26-.779-.46-1.615l-.366-1.52h1.363l-.117-2.996c-.064-1.647-.157-3.06-.206-3.139-.05-.079-.582-.144-1.184-.144H71.23v-.845c0-.782.034-.853.467-.954.257-.06 1.806-.47 3.443-.912 1.636-.443 3.025-.758 3.087-.7.061.056.166.84.231 1.743Z"/><path fill="#78769D" fill-rule="evenodd" d="M84.331 51.23c1.887.358 3.907 1.007 5.29 1.702 2.17 1.089 4.125 2.333 4.935 3.142 1.093 1.091 1.107 1.624.066 2.62-.972.929-2.155 1.333-3.884 1.327-1.179-.004-1.293.023-1.093.262.123.147.822.975 1.554 1.84.731.866 1.293 1.61 1.247 1.656-.046.046-.414-.033-.818-.175-.404-.143-1.468-.34-2.364-.44-.896-.1-1.644-.197-1.663-.216-.019-.019-.25-.598-.514-1.288-.263-.69-.557-1.28-.653-1.311-.095-.032-.31.042-.476.163-.287.21-.275.293.226 1.551.291.731.507 1.348.48 1.37-.027.022-.91.002-1.962-.044-1.725-.075-1.912-.114-1.912-.4 0-.25.126-.318.585-.318.322 0 .623-.062.67-.137.046-.076-.087-1.354-.297-2.842-.356-2.517-.408-2.709-.755-2.76-.368-.053-.373-.096-.373-3.011 0-1.627.068-2.957.151-2.957.083 0 .785.12 1.56.266Zm1.105 6.154c-.158-.685-.322-1.417-.365-1.627-.12-.594.16-.462 1.277.598 1.38 1.31 1.377 1.9-.009 2.159l-.615.114-.288-1.245Z" clip-rule="evenodd"/><path fill="#78769D" d="M101.537 50.382c1.049.271 2.907 1.122 3.087 1.413.081.13-2.16 6.737-2.348 6.924-.03.03-.474-.137-.987-.372-.512-.234-1.289-.474-1.725-.534-.774-.106-.794-.097-.794.344 0 .249.096.479.212.51 1.825.496 2.309.711 2.875 1.277 1.173 1.17 1.016 2.701-.347 3.395-.87.443-2.895.753-4.167.638-1.288-.116-3.56-1.184-3.437-1.616.044-.156.167-.723.274-1.26.107-.536.223-.975.26-.975.035 0 .47.24.965.532.495.292 1.227.672 1.628.844l.728.313.17-.444c.092-.244.147-.455.121-.469l-1.365-.678c-.724-.36-1.317-.71-1.317-.78 0-.068.12-.224.266-.346.39-.322.754-1.096.754-1.6 0-.989-1.075-2.35-2.593-3.285-.042-.026-.083-.05-.12-.074-.295-.18-.438-.267-.474-.387-.034-.112.025-.252.14-.524l.03-.071.003-.007.017-.04c.299-.713 1.162-1.696 1.875-2.136 1.34-.827 4.286-1.105 6.269-.592ZM91.758 47.443c-.335 1.54-.412 1.782-.524 1.64-.14-.178-1.644-2.864-1.644-2.936 0-.097.817-.208 1.807-.246l.703-.028-.342 1.57Z"/><path fill="#78769D" fill-rule="evenodd" d="M128.117 66.276c2.352 1.566 2.445 1.734 2.435 4.37a116.295 116.295 0 0 1-.147 4.58c-.21 3.963-.51 4.473-3.096 5.275l-1.65.512-.096 1.39c-.053.766-.141 2.156-.195 3.089-.128 2.224-.383 3.662-.714 4.03-.615.683-2.286.173-3.742-1.142l-.807-.729-.055-3.582c-.041-2.695-.107-3.582-.264-3.582-.115 0-.579-.234-1.031-.52-.452-.286-.883-.458-.958-.382-.075.076-.293 1.054-.485 2.174-.409 2.39-1.064 4.855-1.444 5.433-.147.225-.434.497-.636.605-.489.262-2.298.11-2.997-.251-.652-.336-.667-.516-.28-3.29.221-1.589.228-1.978.041-2.369-.513-1.074-2.003-.388-2.009.925-.008 1.46-.48 4.022-.783 4.243-.315.23-2.698.28-3.436.073-.219-.061-.601-.41-.85-.775-.249-.366-.531-.69-.627-.722-.096-.031-.325.268-.51.665-.472 1.015-1.369 1.426-3.648 1.673-2.46.266-5.431.141-6.035-.254-1.33-.87-1.89-4.763-1.553-10.81.101-1.811.092-2.684-.03-2.759-.097-.06-.393-.024-.658.08-.266.104-.865.238-1.332.298l-.85.109-.085 2.562c-.091 2.745-.147 2.926-1.05 3.392l-.48.248v6.888l-.42.394c-.396.371-.514.389-1.998.298-2.1-.127-2.446-.278-2.904-1.268-.353-.764-.376-1.074-.425-5.849l-.052-5.041-1.328.102-1.329.102-.447-.656c-.246-.362-.447-.754-.447-.872 0-.119-.112-.215-.248-.215-.16 0-.377.432-.614 1.23-.201.676-.475 1.442-.609 1.701-.236.458-.216.503.699 1.58.91 1.07.942 1.14.942 2.106 0 1.089-.899 4.327-1.629 5.867-.517 1.09-1.004 1.326-2.537 1.228-1.611-.102-1.63-.137-1.741-3.09l-.093-2.482-1.115-.59c-.614-.326-1.18-.528-1.258-.45-.078.079.084.861.36 1.739.68 2.153.76 2.614.53 3.041-.242.453-2.114 1.354-2.813 1.354-.784 0-1.215-.528-2.328-2.848-.555-1.16-1.074-2.042-1.153-1.963-.08.08-.27.753-.423 1.496-.343 1.66-.619 2.215-1.268 2.55-.582.3-2.806.527-3.49.355-.466-.116-.467-.121-.354-1.222.063-.608.258-1.73.435-2.494.176-.764.373-1.724.438-2.135l.117-.747-.976.115c-.538.063-1.097.181-1.244.263-.19.106-.353.75-.568 2.238-.607 4.208-.737 4.502-1.912 4.316-1.065-.168-1.828-.618-2.373-1.399-.424-.608-.51-.925-.598-2.192-.118-1.705-.424-2.074-.585-.705-.19 1.608-.58 2.458-1.43 3.105-.424.324-1.076.67-1.449.77-.759.204-4.892.063-5.947-.204-1.184-.299-2.497-2.448-2.775-4.544-.063-.475-.2-.86-.306-.857-.104.003-.611.857-1.125 1.896-.516 1.043-1.128 2.03-1.364 2.204-.325.238-1.048.374-2.975.56-2.702.262-6.67.333-6.983.124-.501-.334-.652-1.046-.718-3.398-.048-1.694-.126-2.407-.26-2.362-.104.035-.54 1.012-.966 2.17-.946 2.57-1.193 3.046-1.871 3.615-.598.502-.79.525-2.063.246-1.64-.36-1.631-.332-1.298-4.105.199-2.244.193-2.362-.115-2.587-.412-.301-1.628-.305-2.037-.006-.27.198-.3.378-.206 1.315.06.597.263 1.696.45 2.443.188.746.343 1.675.344 2.064.002.683-.025.717-.768 1-.481.184-1.292.3-2.164.312l-1.395.017-.283-1.325c-.155-.73-.315-1.358-.354-1.398-.04-.039-.37.387-.733.947-1.027 1.585-1.082 1.606-4.161 1.553-1.45-.025-3.563-.104-4.698-.175-3.186-.202-3.332-.38-3.645-4.453-.245-3.194-.117-13.99.177-14.963.267-.88 1.1-1.777 1.864-2.005.762-.228 3.766.046 4.678.426.825.344 1.007.791.88 2.16-.103 1.102-.708 4.496-.883 4.952-.053.136.254.356.832.595 1.482.614 1.654 1.58.795 4.466-.28.943-.51 1.78-.51 1.861 0 .082.866.148 1.925.148h1.925l.186-2.688c.247-3.558.56-4.268 1.874-4.268h.493l.178-3.278c.177-3.259.37-4.174.965-4.567.71-.469 3.414.32 6.862 1.998 1.522.741 2.016 1.072 2.41 1.616.492.678.862 1.914.862 2.882 0 .69.45.653.603-.051.186-.852.84-2.215 1.226-2.557.84-.743 5.806-.737 8.796.01 1.136.285 1.207.333 1.583 1.062.524 1.017.414 1.793-.565 3.982-.42.939-.763 1.755-.763 1.814 0 .058.181.151.403.207.222.056.876.448 1.453.872.577.424 1.122.726 1.211.67.093-.056.166-1.324.17-2.931.01-3.734.189-4.321 1.523-4.995.802-.405 1.267-.498 3.28-.654 1.29-.1 3.144-.157 4.119-.125 2.23.072 2.33.155 2.73 2.263.158.84.313 1.623.344 1.74.114.431.395.191.496-.425.331-2.014.475-2.467.953-3.011.793-.902 1.344-1.008 5.248-1.014 3.094-.004 3.558.032 4.138.319.36.178.733.498.83.711.239.522-.052 1.633-.9 3.443-.368.782-.668 1.476-.668 1.541 0 .066.419.33.93.589l.931.47.443-.525c.248-.295.81-.655 1.28-.822l.84-.297-.112-2.72c-.124-3.011.022-3.663.892-3.993 2.035-.773 8.162 1.47 9.643 3.527.285.397.57.722.633.722.062 0 .245-.343.405-.762.16-.418.512-.918.781-1.11.68-.483 2.193-.978 3.904-1.278 1.76-.309 8.115-.37 8.65-.084.455.242.747 1.36.605 2.307-.189 1.255.006 1.43.696.626.342-.398.897-.804 1.313-.958.906-.335 3.334-.75 5.128-.877 1.218-.086 1.458-.053 2.129.298.585.306.854.596 1.19 1.285.434.889.646 1.078.76.68.451-1.568.651-1.862 1.551-2.273 1.1-.503 2.981-.736 5.943-.737 4.274 0 4.647.455 3.407 4.155a94.256 94.256 0 0 1-.713 2.079c-.058.14.078.212.408.212.272 0 .869.189 1.327.42.457.231.883.365.945.297.062-.068.036-1.367-.058-2.887-.193-3.108-.055-4.046.68-4.623.593-.465 1.585-.698 2.723-.639l.971.05.107 1.698c.059.933.117 2.055.128 2.493.027 1.084.549 1.695 1.473 1.726l.672.022-.06-1.149c-.072-1.369.099-1.65 1.004-1.65h.647l-.031-2.686c-.033-2.946.052-3.253.905-3.253.299 0 1.139.446 2.317 1.23ZM16.716 70.445c-.117-2.165.03-2.846.678-3.163.652-.317 2.223.194 5.457 1.775 1.78.87 2.204 1.296 2.417 2.418.126.67-.027 1.342-.837 3.667l-.591 1.697.915.963c.866.91.915 1.01.915 1.845 0 .633-.219 1.463-.775 2.94-1.042 2.77-1.08 2.82-2.105 2.82-.458 0-.953-.046-1.101-.103-.383-.147-.34-.957.134-2.54.789-2.632.726-3.23-.4-3.829-.792-.42-3.41-.454-3.816-.048-.354.353-.347 1.54.02 3.859.207 1.301.241 1.916.116 2.113-.21.331-1.838.778-2.36.648-.702-.176-.795-.773-.891-5.717-.072-3.69-.118-4.808.397-5.212.247-.193.621-.223 1.183-.293l.97-.12-.11-.87c-.06-.477-.158-1.76-.216-2.85Zm109.487-.545c-.062-1.157-.062-2.236 0-2.398.095-.246.248-.277.918-.187.442.06.995.25 1.229.423l.425.315v4.593c0 4.403-.015 4.612-.358 5.071-.411.55-1.475.991-2.976 1.232-.576.093-1.084.206-1.131.253-.046.046-.213 1.738-.37 3.76-.314 4.04-.351 4.144-1.445 4.14l-.059-.001c-.268-.001-.462-.002-.602-.09-.37-.231-.358-1.07-.317-4.13l.003-.254.056-4.146-1.014-.454c-1.214-.544-1.921-1.233-2.439-2.376-.332-.733-.394-1.201-.452-3.44-.08-3.065-.039-3.169 1.196-3.05 1.281.122 1.427.352 1.569 2.466.254 3.805.373 3.976 2.713 3.903l1.546-.049.05-1.437c.056-1.615.282-2.041 1.084-2.041h.486l-.112-2.103ZM3.053 68.194c.12-.145.458-.334.75-.418.74-.214 2.104-.22 2.498-.009.44.234.436 1.45-.011 4.915-.187 1.446-.34 2.687-.34 2.757 0 .07.158.127.351.127 1.175 0 1.455.862 1.102 3.385-.145 1.038-.263 2.026-.263 2.196 0 .283.244.32 2.762.428 1.52.064 2.897.156 3.06.204.234.07.298.275.297.967-.001 1.132-.27 2.082-.712 2.524-.329.328-.476.343-2.327.237-5.673-.323-6.766-.611-7.474-1.967l-.398-.763.11-4.836c.152-6.597.325-9.422.594-9.747Zm65.712 4.026c0-2.836.009-2.91.412-3.34.285-.304.588-.44.982-.44 1.098 0 5.724 2.652 6.329 3.628.447.723.451 1.706.012 2.86-.187.49-.54 1.569-.783 2.396l-.443 1.503.858.872c.928.942 1.218 1.511 1.218 2.389 0 .857-.95 3.865-1.305 4.131-.372.279-1.624.186-2.03-.15-.226-.187-.256-.43-.166-1.336l.028-.277c.249-2.503.294-2.955.094-3.228a1.25 1.25 0 0 0-.167-.174l-.034-.032c-.471-.437-2.953-1.233-4.195-1.345-.744-.067-.909-.03-1.007.224-.07.184.228 1.343.756 2.931.48 1.445.833 2.693.783 2.774-.05.08-.47.338-.932.572-1.11.56-1.4.403-1.833-.995-.425-1.372-1.37-6.007-1.495-7.326-.116-1.22.04-1.412 1.788-2.217l1.13-.52v-2.9Zm-12.889-1.791c.298-.17 1.025-.373 1.615-.45.59-.076 1.861-.148 2.824-.16 1.646-.02 1.775.003 2.167.395.238.237.418.614.418.876 0 .253-.495 1.4-1.1 2.548l-1.101 2.087.718.187c2.037.53 2.224.623 2.723 1.346.414.6.371 2.171-.137 5.01-.471 2.63-.673 3.362-1.003 3.635-.355.295-1.851.521-2.097.317-.344-.284-.246-1.258.378-3.742.323-1.284.543-2.448.49-2.587-.115-.298-.269-.313-2.611-.26-.982.022-1.852.103-1.935.181-.187.177-.766 3.561-.777 4.546-.016 1.448-.721 1.809-1.748.893-.532-.474-.557-.554-.606-1.909-.028-.777.097-3.641.278-6.365.362-5.453.478-5.96 1.504-6.548Zm25.172.397c.338-.153 3.593-.622 6.332-.912.327-.034 1.255-.075 2.062-.09 1.712-.031 1.858.066 1.98 1.33.072.755.04.855-.324 1.016-.222.1-.977.235-1.678.303l-1.275.124-.085 2.963-.085 2.962-.532.346c-.293.19-.667.425-.832.523-.286.168-.282.323.079 3.224.475 3.818.451 4.17-.292 4.382-.72.205-1.826-.115-2.147-.621-.18-.286-.283-1.773-.427-6.218-.105-3.213-.216-5.868-.247-5.9-.032-.03-.582.066-1.223.214-2.145.496-2.826.034-2.459-1.672.227-1.054.623-1.733 1.153-1.974Zm25.633.601c.188-.188 1.378-.48 3.819-.94 1.892-.356 2.901-.072 3.225.906.269.816.12 1.429-.779 3.206-.415.822-.717 1.556-.67 1.632.047.076.564.232 1.148.346 1.275.25 2.265.726 2.526 1.214.355.661.209 2.059-.718 6.91-.164.86-.611 1.554-1 1.554-.357 0-.993-.827-1.109-1.443-.074-.397-.005-1.177.186-2.097.437-2.104.487-2.708.248-2.995-.243-.293-1.391-.325-3.057-.086-1.696.243-1.799.425-1.951 3.46-.149 2.96-.208 3.063-1.451 2.482-.462-.216-1.014-.579-1.226-.806-.365-.39-.385-.531-.341-2.475.088-3.948.781-10.5 1.15-10.868Zm-64.765.633c.592-.812 1.39-1.08 3.938-1.321 3.171-.3 3.557-.302 4.11-.017.875.452.907.736.832 7.34-.074 6.49-.147 7.067-.96 7.501-.206.11-1.455.183-3.117.183-2.447 0-2.838-.04-3.316-.33-.298-.182-.633-.502-.746-.711-.292-.545-1.026-7.468-1.062-10.015-.027-1.93.005-2.197.32-2.63Zm-12.972-.18c.399-.728.833-.936 2.25-1.08 1.638-.166 4.83.003 5.38.284.443.227.826.99.826 1.647 0 .186-.497 1.274-1.105 2.417-.608 1.144-1.105 2.118-1.105 2.165 0 .047.57.212 1.269.367.697.155 1.428.41 1.623.569.827.669.745 2.994-.172 4.88-.93 1.91-1.394 2.09-5.388 2.1-2.825.008-2.939-.005-3.386-.389l-.462-.397-.015-6.008c-.013-5.432.015-6.06.285-6.554Zm68.666.065a547.8 547.8 0 0 0 2.35-.34c1.63-.248 2.223.21 2.527 1.95.25 1.432.527 6.198.53 9.108.003 2.25.001 2.263-.473 2.735-.596.595-1.683.842-4.293.975-2.183.111-3.068-.066-3.483-.698-.395-.602-.557-1.903-.85-6.843-.265-4.446-.264-4.649.035-5.26.439-.895 1.338-1.295 3.657-1.627Z" clip-rule="evenodd"/><path fill="#78769D" d="M98.052 77.25c.028 1.579.12 2.708.233 2.843.124.148.61.224 1.44.224h1.255v1.339c0 1.005-.061 1.362-.243 1.432-.134.052-1.082.147-2.107.211-1.773.112-1.868.101-1.972-.225-.241-.759-.436-3.323-.437-5.757v-.261c-.002-1.59-.002-2.171.273-2.37.159-.115.409-.104.803-.085l.113.005.595.027.047 2.618ZM45.924 76.566c.052 1.728.11 2.073.4 2.394.298.328.453.362 1.233.27l.893-.104v3.696l-1.403.116c-1.607.134-2.267-.038-2.5-.653-.087-.227-.182-2.061-.21-4.075l-.052-3.662H45.864l.06 2.018Z"/><path fill="#78769D" fill-rule="evenodd" d="M85.071 55.757c.043.21.207.942.365 1.627l.288 1.244.615-.114c1.386-.259 1.388-.849.009-2.159-1.117-1.06-1.398-1.192-1.277-.598Zm45.262 26.54c-.226.225-.103.374.354.426.448.052.47.098.518 1.115.038.79.114 1.06.298 1.06.19 0 .247-.252.247-1.103 0-1.063.015-1.103.425-1.103.264 0 .425-.096.425-.254 0-.2-.233-.255-1.077-.255-.592 0-1.128.051-1.19.113Zm2.777 1.232c0 1.104.049 1.369.255 1.369.193 0 .257-.216.264-.89l.008-.892.344.891c.188.49.446.89.572.89.126 0 .369-.4.541-.89l.311-.89.051.89c.037.641.121.89.298.89.194 0 .246-.286.246-1.368 0-1.322-.013-1.367-.381-1.315-.288.04-.46.273-.703.95-.178.493-.37.85-.427.794-.057-.056-.225-.46-.373-.896-.196-.578-.369-.809-.637-.848-.353-.052-.369.007-.369 1.315Z" clip-rule="evenodd"/><path fill="#78769D" d="M21.576 72.41c.199.821.195.838-.35 1.4-.304.312-.6.568-.656.568-.056 0-.275-.355-.487-.789L19.7 72.8l.725-.737c.399-.406.776-.68.837-.61.062.069.204.5.315.957ZM33.32 74.289c0 .857-.039.949-.502 1.188-.276.142-.58.259-.675.259-.152 0-.693-.85-.693-1.087 0-.127 1.555-1.289 1.724-1.289.08 0 .146.418.146.929ZM34.502 80.614c-.022.377-.443 2.163-.51 2.16-.042-.001-.555-.147-1.14-.323l-1.062-.322V80.486h1.36c.748 0 1.356.058 1.352.128ZM58.941 73.111l.287.6-.526.524c-.582.581-.774.543-1.178-.237-.273-.525-.27-.532.298-1.003.315-.26.631-.476.703-.479.072-.002.26.265.416.595ZM73.127 73.821c.266.628.483 1.155.483 1.172 0 .061-1.076.403-1.27.403-.258 0-1.248-2.073-1.025-2.149.093-.032.4-.2.68-.373.28-.174.541-.288.58-.255.039.034.287.575.552 1.202ZM110.842 73.621c.224.677.14.845-.66 1.313l-.514.301-.178-.64c-.269-.969-.223-1.19.287-1.377.747-.272.855-.231 1.065.403Z"/>
</svg>