<svg xmlns="http://www.w3.org/2000/svg" width="136" height="136" fill="none"><g clip-path="url(#a)"><path fill="#3B395E" fill-rule="evenodd" d="M68.356 28.15c19.42 0 35.261 15.78 35.261 35.127 0 19.35-15.84 35.13-35.261 35.13-19.422 0-35.262-15.78-35.262-35.13 0-19.347 15.84-35.128 35.262-35.128Z" clip-rule="evenodd"/><path fill="#160D3B" fill-rule="evenodd" d="M68.355 38.009c13.97 0 25.365 11.35 25.365 25.268 0 13.92-11.395 25.27-25.365 25.27-13.97 0-25.365-11.35-25.365-25.27 0-13.917 11.394-25.268 25.365-25.268Z" clip-rule="evenodd"/><path fill="#78769D" d="M94.19 69.266c1.057-.335 1.945-.438 3.021.38 1.57 1.19 3.657 3.16 6.02 3.078.851-.029 1.757-.169 1.757-1.062.001-1.714-3.078-2.913-3.672-4.403.239-.154 1.045-.358 1.378-.348.791-.091 3.47.78 5.366.711 1.071-.039 1.942-.224 2.008-1.348.099-1.672-1.57-2.533-3.56-3.172-2.327-.75-5.108-1.093-6.213-1.355.444-1.078 1.638-2.157 2.702-3.156 1.029-.882 3.906-2.178 3.944-3.787.028-1.113-.831-1.276-1.74-1.33-1.911-.117-3.347.464-4.984 1.3-1.563.8-3.08 1.784-4.745 2.41-.433.15-1.182.24-1.926.247-.792.008-1.578-.076-1.971-.28-.769-.473-1.125-2.346-1.257-3.199-.606-3.905-3.957-7.575-7.308-9.387-2.589-1.4-4.67-1.623-7.107-1.885-.898-.096-1.82-.286-2.716-.333 0-1.081-.517-2.135-.825-3.172-.497-1.674-1.488-3.084-2.05-4.737-.735-2.167.172-4.424-.515-6.658.26-.006.753-.181.76-.417.018-.449-.478-1.118-.222-1.237 2.78-.633 4.282-.957 5.217-2.513l-.001-.001c.138-.37.301-.563.44-.934.035-.423-.066-.643-.263-.725-.645-.267-1.952.433-2.986.355a1.238 1.238 0 0 1-.92-.483c-1.452-1.448-.734-3.905-3.442-3.997-2.49-.084-5.279 1.348-6.907 3.003-.509.644-.957.523-1.25.523-.778 0-1.478-.088-2.144.068-.974.23-1.836.719-2.621 1.67-.184.226-.4.424-.64.59-2.443 1.704-2.933 5.178-4.41 7.61-.763 1.26-1.691 2.646-2.838 3.586-1.408 1.154-1.918 2.532-2.732 4.06-1.162 2.178-.913 3.556-.038 5.593.67.94.84 1.794 1.19 3.01-1.741 1.206-4.203 3.023-5.215 4.87-1.16 2.117-3.516 3.06-5.17 4.688-.596.425-1.3.958-1.895 1.383-2.643-1.336-5.215-2.843-7.934-4.081-.791-.361-4.788-2.259-7.037-2.118-1.043.066-1.838.921-1.186 1.76.96 1.24 3.145 2.09 3.966 3.239-1.458 1.189-4.681 1.99-4.507 3.604.057.536 1.037 1.077 2.156 1.043 1.367-.042 2.523-.105 3.049.073-.029 1.203-1.711 2.102-2.375 3.03-.325.454-.421.935.008 1.504.762 1.063 4.188-.195 5.077-.465.986.462 3.377 2.237 4.395 2.078.362.079.76-.096 1.123-.015 1.93.85 2.731 3.106 4.814 3.508.42.08.797.26 1.187-.031 1.082-.736.93-2.002.32-3.512.902-.274 2.301-.632 3.052-1.172 1.104-.794 2.341-1.384 3.478-2.13.959-.631 1.831-.797 2.933-1.024.086 1.063.337 2.05.726 3.042.523 1.339.934 2.897 1.652 4.128 1.857 3.187 4.345 6.644 7.618 8.519l-.123.26-.26.552h.001c-.407.587-2.607 2.087-3.102 2.939a25.32 25.32 0 0 0 15.615 5.37c11.974 0 22.06-8.329 24.717-19.469l1.078.402.04-.25Z"/><path fill="#160D3B" d="M57.99 37.742c.099-.328 1.023.534 1.695.478.226-.018.441-.146.566-.498.13-.371.314-.578.46-.57.116.008.154.529.034.955-.136.483-.743 1.094-1.265 1.067-.619-.032-1.652-.889-1.49-1.431Zm5.655-6.942c.085.228.07.488.024 1.07-.045.58-.535 1.37-.891 1.349-.356-.021-.795-.808-.714-1.686.066-.716.5-1.647 1.344-1.568.285.027.555.288.72.636.167.348.227.782.207 1.021-.008.097-.055.113-.08.115-.042.005-.076-.05-.135-.196-.099-.247-.192-.63-.475-.74Zm-5.874-.748c.103.168.198.353.198.934 0 .582-.46 1.56-.824 1.573-.363.012-.883-.746-.883-1.645 0-.734.326-1.718 1.218-1.718.293 0 .591.24.792.578.202.338.301.77.288 1.018 0 .087-.103.07-.127 0a2.381 2.381 0 0 0-.17-.309c-.134-.203-.316-.41-.492-.431Zm.66 12.23c.752 0 1.366.907 1.366 2.018 0 1.112-.614 2.019-1.366 2.019-.752 0-1.366-.907-1.366-2.019 0-1.11.614-2.018 1.366-2.018ZM36.653 65.927c.35-.093-.018 1.174.033 1.41.933-.231 2.313-.542 3.038-1.263 2.222-1.643 4.444-2.645 6.666-3.415.503-.094 3-.465 2.798.04-.294.316-1.048.599-1.764.737-.014 1.595.493 3.441 1.349 4.93 1.518 3.786 4.627 7.496 8.117 9.688 1.882 1.182 6.534 3.057 10.724 4.015 3.752.856 5.695.7 6.71 1.048.22.706-2.227.417-3.787.307-4.502-.318-11.443-2.796-13.325-3.785-.63 1.49-2.58 2.71-3.754 3.773-.294.267-.59.534-.782.223-.393-.633 2.678-2.654 3.167-3.36h-.001l.383-.811c-3.273-1.875-5.76-5.332-7.618-8.52-.717-1.23-1.128-2.788-1.652-4.127-.388-.993-.64-1.979-.725-3.042-1.102.227-1.975.393-2.933 1.023-1.137.747-2.374 1.337-3.478 2.132v-.001c-.752.54-2.15.898-3.052 1.172.61 1.51.761 2.776-.32 3.512-.39.291-.767.112-1.187.03-2.083-.4-2.885-2.657-4.815-3.507-.362-.08-.76.094-1.123.015-1.017.16-3.409-1.616-4.394-2.078-.89.27-4.316 1.528-5.078.465-.429-.57-.333-1.05-.008-1.504.664-.928 2.347-1.828 2.376-3.03-.526-.178-1.683-.115-3.05-.073-1.118.034-2.098-.507-2.156-1.043-.174-1.614 3.05-2.416 4.507-3.605-.82-1.148-3.005-2-3.966-3.238-.652-.84.144-1.694 1.186-1.76 2.25-.141 6.246 1.757 7.037 2.118 2.72 1.238 5.291 2.745 7.934 4.081.595-.425 1.3-.958 1.895-1.383 1.654-1.628 4.01-2.571 5.17-4.688 1.013-1.847 3.474-3.663 5.215-4.87-.35-1.216-.52-2.07-1.19-3.01-.874-2.037-1.123-3.415.038-5.593.814-1.528 1.324-2.906 2.733-4.06 1.146-.94 2.074-2.326 2.838-3.586 1.476-2.432 1.967-5.906 4.41-7.61.24-.166.455-.364.64-.59.784-.951 1.646-1.44 2.62-1.67.666-.157 1.367-.067 2.144-.068.293 0 .741.121 1.25-.523 1.629-1.656 4.418-3.087 6.908-3.003 2.707.092 1.99 2.549 3.442 3.997a1.237 1.237 0 0 0 .92.483c1.033.078 2.34-.622 2.986-.355.197.082.298.302.261.725-.137.371-.3.564-.438.934-.936 1.557-2.436 1.881-5.216 2.514-.257.119.24.788.222 1.237-.008.236-.501.411-.76.417.687 2.235-.22 4.491.514 6.658.562 1.653 1.553 3.063 2.05 4.737.309 1.036.825 2.091.826 3.172.896.047 1.818.237 2.715.333 2.437.262 4.518.486 7.107 1.885 3.352 1.812 6.702 5.482 7.308 9.387.133.853.489 2.727 1.257 3.2.394.202 1.18.287 1.972.28.744-.008 1.492-.098 1.925-.248 1.666-.626 3.182-1.61 4.746-2.41 1.636-.836 3.072-1.418 4.984-1.3.908.054 1.768.217 1.74 1.33-.038 1.61-2.915 2.905-3.944 3.787-1.064 1-2.258 2.078-2.702 3.156 1.104.262 3.885.605 6.213 1.355 1.989.64 3.658 1.5 3.559 3.172-.065 1.124-.937 1.31-2.007 1.348-1.896.07-4.576-.802-5.367-.712-.332-.01-1.138.195-1.377.35.593 1.49 3.672 2.688 3.671 4.402 0 .893-.906 1.033-1.757 1.062-2.363.081-4.45-1.888-6.02-3.079-1.325-1.006-2.59-.365-4.01-.047-1.007.408-4.81.47-5.99.16-2.284.842-3.828.883-6.275.736-.764-.32-1.186-.9-1.174-1.539.027-1.509 1.84-3.496 2.646-4.253-1.095-.923-1.936-1.233-2.327-2.732-.214-.822.152-1.617.533-.933.054.098.383.123.423.29.398 1.507 1.15 1.842 2.104 2.836.485-.188.374-.718 1.283-.965.282-.042.305.265.143.562-.209.382-.68.794-.818.905-.567.452-1.216.777-1.726 1.405-.338.417-1.312 1.8-1.257 2.302.08.726.486.974.983 1.1 2.41.61 5.63-.475 8.227-1.462.482-.184.975-.572 1.37-.527.39.42-1.2 1.212-2.228 1.584.797.22 1.587.308 2.322.15 1.505-.326 2.886-1.16 4.433-1.055 2.336.159 4.144 3.676 6.957 3.898l.102.006c.508.014.92-.169.823-.693-.333-1.788-3.462-3.528-3.956-4.232-.274-.39 2.395-.931 2.778-.941 1.639-.046 3.457.796 4.967.608 2.57-.321.304-2.566-.925-2.897-1.93-.521-4.282-1.19-6.279-1.514-.053.502.07 1.179-.228 1.332-.464.006-.579-.819-.615-1.644-.027-.6 1.32-2.273 1.716-2.723a12.533 12.533 0 0 1 2.778-2.368c0-.361 2.966-1.538 1.459-2.372-1.841-.97-4.217.493-5.845 1.347l-5.117 2.403c-.792.237-1.091.366-1.865.651-.7.237-.044-.655-.004-.912-.743.02-1.7.118-2.539.209-1.246-.539-.803-3.529-1.31-4.866-1.276-3.328-3.67-6.552-6.821-8.187-1.254-.65-2.513-1.229-3.88-1.492-1.652-.317-3.424-.263-5.063-.482-.453 2.777-1.435 4.296-3.262 6.433-.265.31-.277.271-.346.209-.04-.037-.33.132-.083-.248 1.398-2.146 3.083-4.646 2.934-6.836-.133-1.96-.645-3.407-1.637-5.145-.52-.912-.855-1.74-1.084-2.611-.625-2.382.32-4.675-.624-7.134-.14-1.079-1.02-2.073-1.237-2.71-.097-.283.193-.455.418-.183.432.523.731 1.254 1.164 1.777-.017-.548.088-1.137.48-1.238.33-.084.829-.062 1.21-.245.378.095 4.322-1.33 4.113-2.435-.086-.454-1.681.274-2.046.322v.001a2.346 2.346 0 0 1-.175.007c-3.017-.002-2.401-4.137-4.687-4.312-.398-.03-.859-.088-1.384.081-3.049.15-4.526 3.4-7.071 3.262-1.168-.062-2.575.163-3.388 1.127-.391.463-.895 1.07-1.392 1.417-1.018.709-1.601 2.525-2.24 3.728-.88 2.243-2.281 4.501-3.884 6.293-.688.768-1.806 1.601-2.233 2.537-.743 1.629-1.795 2.928-1.442 4.807.228 1.213 1.244 3.505 1.781 4.428.2.345.722 1.19 1.213 1.957.433.677.933 1.338.495 1.652-.198.142-1.15-1.466-2.12-2.109-1.216.85-2.257 1.77-3.404 2.682-1.248.99-1.777 2.453-2.94 3.566-.87.83-1.775 1.59-2.777 2.255-.993.66-1.85 1.678-2.868 2.29.249.104 1.726.41 1.532.802-.244.493-1.544.145-2.224-.071-1.08-.343-2.198-.882-2.764-1.305-.66-.355-6.482-3.556-6.818-3.72-1.622-.785-3.85-1.518-4.948-1.55-.366-.012-.623.008-.717.242a.402.402 0 0 0-.073.45c.282.675 2.124 1.568 2.966 2.273.423.354 2.273 1.814 2.112 2.801-.075.455-1.314-.627-1.696-1.07-.63.375-1.384.872-2.01 1.256v-.002c-.213.13-1.865 1.127-1.722 1.34-.067 1.48 3.388.79 4.481.991.713.13 2.358 1.428 1.904 1.793-.12.086-.297-.108-.49-.212-.426-.227-.926-.587-1.049-.61-.41.803-1.191 1.972-1.89 2.53-.03.025-.416.327-.402.355l.008.164c-.114.456.076.665.418.727.752.135 2.457-.369 3.056-.582-.403-.441-.379-1.357.004-1.167.716.355 3.26 2.34 4.209 2.92.217-.315.196-.687.443-.789.739-.305 1.692.666 2.464 1.006 1.681.74 2.06 1.951 3.42 2.984.37.282.95.24 1.392.34.712-.979.002-1.765-.193-2.737-.192-.744.478-2.078.75-2.151Zm-15.958-.72a.056.056 0 0 0-.012.005l.012-.006Zm36.1-37.217c-.072.404-.247.568-.462.6-.194.03-.373-.19-.328-.58.092-.8 1.05-1.647 1.66-1.907.277-.12.494-.124.5.048.007.165-1.264.776-1.318 1.43l-.052.41Zm6.222-1.65c.166-.174.362-.02.567.018.89.167 1.964 1.772 1.654 2.118-.148.085-.761-.403-1.308-.934-.547-.533-1.13-1.008-.913-1.202Z"/><path fill="#3B395E" d="m94.344 55.796-4.895-9.805L39.056 71.82l4.734 9.968 50.554-25.992Z"/></g><path fill="#78769D" fill-rule="evenodd" d="M25.375 113.367h3.242v.172c-.406 0-.604.105-.604.544v3.355c-.826.464-2.363.691-3.308.691-2.954 0-4.923-1.631-4.923-4.709 0-2.918 2.048-4.749 4.883-4.749a5.521 5.521 0 0 1 1.55.213l1.063.305c.17-.027.262-.173.328-.319h.184l.013 2.427-.17-.013c-.46-1.087-1.668-1.67-2.81-1.67-2.205 0-2.941 1.949-2.941 3.872 0 .942.184 1.95.775 2.706.538.69 1.26 1.008 2.127 1.008.288 0 1.338-.066 1.338-.53v-2.559c0-.504-.026-.532-.459-.532h-.288v-.212Z" clip-rule="evenodd"/><path fill="#78769D" fill-rule="evenodd" d="M28.386 108.856h3.243v.173c-.46.039-.657.025-.657.556v3.157h3.414v-3.17c0-.53-.197-.53-.657-.543v-.173H37v.173c-.46.039-.644.025-.644.556v7.627c0 .531.197.531.657.544v.173h-3.27v-.173c.46-.039.644-.026.644-.557v-3.449h-3.414v3.462c0 .544.197.531.67.544v.173H28.4v-.173c.459-.039.604-.039.604-.557v-7.626c0-.491-.171-.531-.617-.544v-.173Zm20.334 9.113.103-2.547h.176c.634 2.361 4.556 2.267 4.556.478 0-1.99-4.835-1.433-4.835-4.563 0-1.844 1.578-2.667 3.464-2.667.442 0 .884.067 1.313.173.088.027.928.226.972.226.163-.014.265-.093.28-.252h.236l-.104 2.308h-.176c-.428-1.751-4.128-2.216-4.128-.28 0 1.752 4.939 1.421 4.939 4.577 0 .809-.325 1.473-1.032 1.976-1.164.835-2.815.85-4.202.544-.103-.026-1.017-.225-1.09-.212-.148.027-.223.12-.237.24h-.235v-.001Zm11.877-.04h-3.2v-.173c.422-.026.669-.013.669-.557v-7.414c-1.103 0-2.233-.305-2.419 1.194h-.198l.025-2.122h7.032l.025 2.122h-.2c-.21-1.499-1.277-1.194-2.405-1.194v7.428c0 .544.248.53.67.544v.172Zm2.448-.173c.434-.013.657-.039.657-.557v-7.626c0-.518-.223-.558-.657-.544v-.172h3.703c1.456 0 3.23.411 3.23 2.228 0 1.22-.84 1.791-1.93 2.042 1.168.199 2.31.916 2.31 2.241 0 1.99-1.904 2.561-3.545 2.561h-3.768v-.173Zm3.125-5.027c1.102 0 1.824-.252 1.824-1.499 0-1.021-.512-1.472-1.51-1.472-.288 0-.682.026-.839.318v2.653h.525Zm-.525 3.886c.184.359.499.411.867.411 1.127 0 1.798-.503 1.798-1.683 0-1.367-.905-1.738-2.113-1.738h-.551v3.01Zm11.286-7.759h2.482v.173c-.565.025-.578.251-.578.796v4.722c0 2.348-1.182 3.58-3.52 3.58-2.14 0-3.674-.941-3.674-3.262v-5.293c0-.451-.198-.57-.605-.543v-.173h3.243v.173c-.433.013-.695.039-.695.556v5.054c0 1.339.408 2.467 1.917 2.467 1.614 0 2.14-1.167 2.14-2.627v-4.668c0-.637-.093-.796-.71-.782v-.173Zm3.116 9.113.104-2.547h.175c.635 2.361 4.556 2.267 4.556.478 0-1.99-4.835-1.433-4.835-4.563 0-1.844 1.579-2.667 3.465-2.667.442 0 .883.067 1.31.173.09.027.93.226.974.226.163-.014.265-.093.28-.252h.237l-.104 2.308h-.177c-.428-1.751-4.128-2.216-4.128-.28 0 1.752 4.94 1.421 4.94 4.577 0 .809-.325 1.473-1.033 1.976-1.166.835-2.816.85-4.203.544-.102-.026-1.015-.225-1.089-.212-.148.027-.222.12-.236.24h-.236v-.001Zm11.72-.04h-3.05v-.173c.403-.026.638-.013.638-.557v-7.414c-1.051 0-2.127-.305-2.305 1.194h-.19l.024-2.122h6.706l.023 2.122h-.19c-.201-1.499-1.22-1.194-2.293-1.194v7.428c0 .544.237.53.638.544v.172Zm1.863 0v-.173c.447-.039.644-.026.644-.557v-7.626c0-.491-.21-.544-.644-.544v-.172h6.642l.013 2.069h-.183c-.132-.929-.605-1.154-1.496-1.154h-1.917c-.314 0-.446.013-.446.359v2.666h1.746c.748 0 1.075.052 1.075-.298h.185v1.606h-.184c0-.452-.315-.393-1.076-.393h-1.746v2.918c0 .386.29.386.603.386h1.747c.93 0 1.522-.373 1.863-1.248h.197l-.301 2.162H93.63v-.001Zm9.659-.716c0 .491.223.544.643.544v.172h-3.256v-.172c.433-.027.643-.04.643-.557v-7.627c0-.478-.235-.558-.643-.544v-.172h3.636c1.628 0 3.545.358 3.545 2.387 0 1.274-1.102 1.976-2.271 2.242 1.681 1.18 2.442 4.271 3.178 4.271v.172h-2.391c-.577-1.552-1.351-2.878-2.546-4.006l-.538.014v3.276Zm.407-4.192c1.22 0 2.113-.252 2.113-1.659 0-1.113-.644-1.591-1.693-1.591-.343 0-.657.013-.827.346v2.904h.407Zm5.192 4.948.101-2.547h.176c.627 2.361 4.509 2.267 4.509.478 0-1.99-4.786-1.433-4.786-4.563 0-1.844 1.562-2.667 3.429-2.667.44 0 .876.067 1.3.173.085.027.92.226.963.226.161-.014.264-.093.277-.252h.233l-.101 2.308h-.176c-.423-1.751-4.086-2.216-4.086-.28 0 1.752 4.889 1.421 4.889 4.577 0 .809-.321 1.473-1.021 1.976-1.154.835-2.787.85-4.161.544-.101-.026-1.005-.225-1.079-.212-.146.027-.219.12-.234.24h-.233v-.001Zm8.418-8.785h-.885v.158h.365v.948h.156v-.948h.364v-.158Zm1.373 0h-.259l-.325.796-.315-.796h-.263v1.105h.156v-.948h.005l.364.948h.102l.373-.948h.006v.948h.156v-1.105Z" clip-rule="evenodd"/><g clip-path="url(#b)"><path fill="#3B395E" fill-rule="evenodd" d="M43.025 108.428c2.897 0 5.26 2.356 5.26 5.245 0 2.888-2.363 5.244-5.26 5.244-2.898 0-5.261-2.356-5.261-5.244 0-2.889 2.363-5.245 5.26-5.245Z" clip-rule="evenodd"/><path fill="#160D3B" fill-rule="evenodd" d="M43.025 109.9c2.084 0 3.784 1.695 3.784 3.773 0 2.078-1.7 3.773-3.784 3.773-2.085 0-3.785-1.695-3.785-3.773 0-2.078 1.7-3.773 3.785-3.773Z" clip-rule="evenodd"/><path fill="#78769D" d="M46.88 114.567c.157-.05.29-.066.45.056.234.178.545.472.898.46.127-.004.262-.025.262-.159 0-.256-.46-.434-.548-.657a.566.566 0 0 1 .206-.052c.118-.014.517.117.8.106.16-.006.29-.033.3-.201.015-.25-.234-.378-.531-.474-.347-.111-.762-.163-.927-.202.066-.161.244-.322.403-.471.154-.132.583-.325.589-.565.004-.167-.125-.191-.26-.199-.285-.018-.5.069-.744.194-.233.119-.46.266-.708.36a1.039 1.039 0 0 1-.287.037.746.746 0 0 1-.294-.042c-.115-.071-.168-.35-.188-.478-.09-.583-.59-1.131-1.09-1.401-.386-.209-.697-.242-1.06-.281-.134-.015-.272-.043-.406-.05 0-.162-.077-.319-.123-.474-.074-.25-.222-.46-.306-.707-.11-.324.026-.66-.076-.994.038-.001.112-.027.113-.062.003-.067-.071-.167-.033-.185.415-.094.639-.143.778-.375.02-.056.045-.084.066-.14.005-.063-.01-.096-.04-.108-.096-.04-.29.065-.445.053a.181.181 0 0 1-.137-.072c-.217-.216-.11-.583-.514-.597-.371-.012-.787.201-1.03.449-.076.096-.143.078-.187.078-.116 0-.22-.014-.32.01a.693.693 0 0 0-.39.249.46.46 0 0 1-.096.088c-.365.255-.438.773-.658 1.136-.114.189-.252.395-.424.536-.21.172-.286.378-.407.606-.173.325-.136.531-.006.835.1.14.126.268.178.449-.26.18-.627.452-.778.727-.173.316-.525.457-.772.7-.089.064-.194.143-.282.207-.395-.2-.779-.425-1.184-.61-.118-.054-.714-.337-1.05-.316-.155.01-.274.138-.177.263.143.185.47.312.592.483-.218.178-.699.298-.673.539.009.08.155.16.322.155.204-.006.377-.015.455.011-.004.18-.255.314-.355.453-.048.067-.062.139.002.224.113.159.625-.029.757-.069.147.069.504.334.656.31.054.012.113-.014.167-.002.288.127.408.463.719.523.062.012.119.039.177-.004.161-.11.139-.299.048-.525.134-.04.343-.094.455-.175v.001c.165-.119.35-.207.519-.319.143-.094.273-.119.437-.152.013.158.05.306.109.454.078.2.14.432.246.616.277.476.648.992 1.137 1.272l-.019.039-.038.082c-.061.088-.39.312-.463.439a3.776 3.776 0 0 0 2.33.802 3.798 3.798 0 0 0 3.687-2.907l.161.06.006-.037Z"/><path fill="#160D3B" d="M41.478 109.861c.015-.05.153.079.253.071.034-.003.066-.022.084-.075.02-.055.047-.086.07-.085.016.002.022.079.004.143-.02.072-.11.163-.189.159-.092-.004-.246-.132-.222-.213Zm.844-1.037c.012.034.01.073.003.16-.007.087-.08.204-.133.201-.053-.003-.118-.12-.106-.251.01-.107.074-.246.2-.235.043.004.083.043.108.095a.338.338 0 0 1 .03.153c0 .014-.008.017-.011.017-.006.001-.012-.008-.02-.029-.015-.037-.029-.094-.071-.111Zm-.877-.112c.016.025.03.053.03.14 0 .087-.069.233-.123.235-.054.001-.132-.112-.132-.246 0-.11.049-.256.182-.256.044 0 .088.035.118.086.03.05.045.115.043.152 0 .013-.015.01-.019 0a.31.31 0 0 0-.025-.046c-.02-.031-.047-.061-.074-.065Zm.099 1.826c.112 0 .204.136.204.302 0 .166-.092.301-.204.301-.112 0-.204-.135-.204-.301 0-.166.092-.302.204-.302Zm-3.25 3.53c.053-.013-.002.176.006.211.139-.035.345-.081.453-.189.331-.245.663-.395.994-.509.075-.015.448-.07.418.006-.044.047-.157.089-.263.11-.002.238.073.513.2.736.227.565.691 1.119 1.212 1.446.28.176.975.456 1.6.599.56.128.85.105 1.001.157.033.105-.332.062-.565.046-.672-.048-1.707-.418-1.988-.566-.094.223-.385.405-.56.564-.044.04-.088.08-.117.033-.059-.094.4-.396.473-.501l.057-.122c-.489-.279-.86-.796-1.137-1.272-.107-.183-.168-.416-.246-.616a1.57 1.57 0 0 1-.109-.454c-.164.034-.294.059-.437.153-.17.111-.354.199-.52.318-.111.081-.32.134-.454.175.09.225.113.414-.048.524-.058.044-.115.017-.177.005-.31-.06-.43-.397-.719-.524-.054-.012-.113.014-.167.002-.152.024-.509-.241-.656-.31-.133.04-.644.228-.757.07-.064-.085-.05-.157-.002-.225.1-.138.35-.273.355-.452-.078-.027-.251-.017-.455-.011-.167.005-.313-.076-.322-.156-.026-.241.455-.361.673-.538-.123-.172-.449-.299-.592-.484-.097-.125.022-.252.177-.262.336-.021.932.262 1.05.316.406.185.79.41 1.184.609.088-.063.194-.143.282-.206.247-.243.599-.384.772-.7.15-.276.518-.547.778-.727-.053-.182-.078-.309-.178-.45-.13-.304-.167-.51.006-.835.121-.228.197-.433.407-.606.172-.14.31-.347.424-.535.22-.363.293-.882.658-1.136a.492.492 0 0 0 .095-.088.7.7 0 0 1 .391-.25c.1-.023.204-.01.32-.01.044 0 .11.018.187-.078.243-.247.659-.461 1.03-.448.404.013.297.38.514.596a.184.184 0 0 0 .137.073c.154.011.35-.093.446-.053.029.012.044.045.039.108-.02.055-.045.084-.066.139-.14.233-.363.281-.778.376-.038.017.036.117.033.184-.001.035-.075.062-.113.062.102.334-.033.671.076.994.084.247.232.458.306.708.046.154.123.312.123.473.134.007.272.036.406.05.363.039.674.073 1.06.281.5.271 1 .819 1.09 1.402.02.127.073.407.188.477a.728.728 0 0 0 .294.042c.11-.001.223-.014.287-.037.249-.093.475-.24.708-.359.244-.125.459-.212.744-.195.135.009.264.033.26.199-.006.24-.435.434-.589.565-.159.15-.337.311-.403.472.165.039.58.09.927.202.297.095.546.224.53.473-.009.168-.139.196-.299.202-.282.01-.682-.12-.8-.106a.528.528 0 0 0-.206.052c.089.222.548.401.548.657 0 .133-.135.154-.262.158-.353.013-.664-.281-.898-.459-.198-.15-.387-.055-.599-.007-.15.061-.717.07-.893.024-.341.125-.572.131-.937.109-.114-.047-.177-.134-.175-.229.004-.226.275-.522.395-.635-.163-.138-.289-.184-.347-.408-.032-.123.023-.241.08-.139.008.014.057.018.063.043.059.225.171.275.313.423.073-.028.056-.107.192-.144.042-.006.045.04.021.084a.55.55 0 0 1-.122.135c-.084.068-.181.116-.257.21-.05.062-.196.269-.188.344.012.108.073.145.147.164.36.091.84-.071 1.227-.218.072-.028.146-.086.205-.079.058.063-.18.181-.333.236a.737.737 0 0 0 .347.023c.224-.049.43-.173.66-.158.35.024.62.549 1.039.582a.08.08 0 0 0 .015.001c.076.002.137-.025.123-.103-.05-.267-.517-.527-.59-.632-.041-.058.357-.139.414-.141.245-.006.516.119.741.091.384-.048.046-.383-.138-.432-.288-.078-.639-.178-.937-.226-.008.075.01.176-.034.199-.069 0-.086-.123-.091-.246-.004-.09.197-.339.256-.406.12-.138.26-.257.414-.354 0-.054.443-.23.218-.354-.275-.145-.63.073-.872.201l-.764.359c-.118.035-.162.054-.278.097-.104.035-.007-.098 0-.136-.111.003-.254.017-.38.031-.185-.08-.119-.527-.195-.727-.19-.496-.547-.978-1.017-1.222a2.17 2.17 0 0 0-.58-.223c-.246-.047-.51-.039-.755-.071-.067.414-.214.641-.486.96-.04.046-.042.04-.052.031-.006-.005-.05.02-.012-.037.208-.32.46-.693.438-1.02a1.668 1.668 0 0 0-.245-.769 1.57 1.57 0 0 1-.161-.389c-.094-.356.047-.698-.094-1.065-.02-.162-.152-.31-.184-.405-.015-.042.029-.068.062-.027.065.078.11.187.174.265-.003-.082.013-.17.072-.185.049-.012.123-.009.18-.037.056.015.645-.198.614-.363-.013-.068-.251.041-.306.048l-.026.001c-.45 0-.358-.617-.699-.644-.06-.004-.128-.013-.207.013-.454.022-.675.507-1.055.487-.174-.01-.384.024-.505.168-.058.069-.133.16-.208.211-.151.106-.239.377-.334.557-.131.335-.34.672-.58.939-.102.115-.269.24-.332.379-.111.243-.268.437-.216.718.034.181.186.523.266.661.03.051.108.178.181.292.065.101.14.2.074.247-.03.021-.172-.219-.316-.315-.182.127-.337.264-.508.4-.186.148-.265.367-.439.533-.13.124-.265.237-.414.336-.148.099-.276.251-.428.342.037.016.258.061.228.12-.036.074-.23.022-.331-.011a1.583 1.583 0 0 1-.413-.194c-.098-.053-.967-.531-1.017-.556-.242-.117-.574-.226-.738-.231-.055-.002-.093.001-.107.036a.06.06 0 0 0-.011.067c.042.101.317.234.443.339.063.053.339.271.315.419-.011.068-.196-.094-.253-.16-.095.056-.207.13-.3.187-.032.02-.279.168-.257.2-.01.221.505.118.668.148.107.02.352.213.284.268-.017.013-.044-.016-.073-.032-.063-.034-.138-.088-.156-.091-.061.12-.178.295-.282.378-.005.004-.062.049-.06.053l.001.024c-.017.068.011.1.062.109.113.02.367-.055.456-.087-.06-.066-.056-.203.001-.174.107.053.486.349.628.436.032-.047.03-.103.066-.118.11-.046.252.099.368.15.25.111.307.291.51.446.055.042.142.035.208.05.106-.146 0-.263-.03-.408-.028-.111.072-.311.113-.322Zm-2.38-.107-.002.001.002-.001Zm5.386-5.556c-.011.06-.037.084-.07.089-.028.005-.055-.028-.048-.087.014-.119.157-.245.247-.284.042-.018.074-.019.075.007.001.025-.188.116-.197.213l-.007.062Zm.928-.247c.025-.026.054-.003.085.003.133.025.293.264.246.316-.022.013-.113-.06-.195-.139-.081-.08-.168-.151-.136-.18Z"/><path fill="#3B395E" d="m46.902 112.556-.73-1.464-7.519 3.856.707 1.488 7.542-3.88Z"/></g><defs><clipPath id="a"><path fill="#fff" d="M16.673 17.486h93.645v81.382H16.673z"/></clipPath><clipPath id="b"><path fill="#fff" d="M35.358 106.88h13.927v12.062H35.358z"/></clipPath></defs></svg>