<svg xmlns="http://www.w3.org/2000/svg" width="136" height="136" fill="none"><g clip-path="url(#a)"><path fill="#78769D" fill-rule="evenodd" d="M75.113 35.627s1.808-17.945 4.38-21.606c2.26-3.21 4.022-7.738 11.753-7.939 5.354-.14 5.666 4.767 5.908 5.935.623 3.041.187 8.164-2.16 14.223-2.641 6.833-4.099 10.014-7.232 14.773s-4.87 7.111-4.87 7.111 7.006 6.291 5.073 16.088c-1.185 6.005-3.897 13.186-16.063 14.362-13.623 1.316-34.105-7.111-28.51-24.994 3.898-12.428 14.95-12.637 14.95-12.637s-6.625-14.834-8.41-20.568c-2.705-8.706-1.24-18.58 6.687-20.236 6.445-1.346 9.563 7.36 10.428 11.39 1.738 8.08 2.018 18.712 2.018 18.712s2.572.758 3.266 1.315c.693.55 2.782 4.07 2.782 4.07Z" clip-rule="evenodd"/><path fill="#160D3B" fill-rule="evenodd" d="M59.534 42.53s-6.742-16.777-7.163-17.814c-.42-1.037-3.616-9.526-2.712-14.912.904-5.386 5.284-8.148 7.576-8.35 2.291-.208 4.73.14 6.609 5.038 1.878 4.899 3.405 9.317 3.756 15.392.351 6.074.28 8.419.28 8.419s-3.335.278-3.265 3.103c.055 2.074.694 2.275.694 2.275l-1.044.07s0-10.014-1.255-15.121c-1.255-5.107-.764-8.489-5.004-8.079-4.24.418-2.993 5.935-2.712 7.73.28 1.796 2.642 12.01 3.406 14.154.764 2.144 2.159 6.562 2.159 6.562l.904-.209s.35.21.623.418c.28.209.904.48.904.48s-2.572 1.517-.763 4.21c1.808 2.692 4.863 0 4.863 0s1.052 2.762 3.959 2.483c2.159-.209 2.712-1.725 2.712-1.725s1.045 1.447 2.783.418c1.738-1.037.974-2.345.974-2.345l1.597 1.246s5.705-10.215 7.716-14.633c2.019-4.419 5.908-12.08 1.045-13.325-4.871-1.246-6.329 5.316-6.47 5.726-.14.418-3.405 12.977-3.405 12.977s-.553-.348-1.115-.48c-.553-.14-1.254-.55-1.254-.55s1.668-13.185 2.431-16.087c.764-2.902 4.669-14.192 13.904-11.87 6.882 1.725 3.336 12.837 2.713 14.841-.624 2.005-2.993 9.596-7.093 16.359-4.1 6.763-6.258 10.563-6.258 10.563l.904-.349s6.188 6.284 4.1 16.29c-2.09 10.013-12.447 14.61-25.104 11.53C50.75 74.34 41.187 68.7 43.799 55.49c2.431-12.288 14.184-13.805 14.184-13.805l.764-.21.763 1.038.024.015Z" clip-rule="evenodd"/><path fill="#160D3B" fill-rule="evenodd" d="M65.581 32.516c.468-.58 1.185-1.934 4.934-.48 3.756 1.448 3.826 4.42 3.826 4.42s3.406-.28 4.24 1.794c.834 2.074-1.948 4.07-1.948 4.07s1.527 2.485-.413 3.591c-1.949 1.107-2.572-1.308-2.572-1.308s.14 2.763-2.782 2.554c-2.923-.209-3.336-2.344-3.336-2.344s-2.089 2.553-4.24.48c-2.159-2.075 1.528-4.14 1.528-4.14s-2.572.069-2.502-2.554c.07-2.624 4.59-2.275 4.59-2.275s-2.431-2.415-1.317-3.8l-.008-.008Z" clip-rule="evenodd"/><path fill="#160D3B" fill-rule="evenodd" d="M78.792 37.004s2.782-11.112 4.03-13.735c1.254-2.623 2.29-4.898 5.424-3.73 3.125 1.176-.164 8.002-.694 9.387-1.808 4.697-8.207 15.879-8.207 15.879l-1.528-1.107-.35-1.107s2.213-.96 2.361-3.66c.07-1.246-1.044-1.934-1.044-1.934l.008.007ZM57.936 13.944s2.502-1.447 3.546 3.242c1.044 4.698 1.668 6.833 2.019 11.74.35 4.898.28 6.763.28 6.763s-2.291.897-2.502 2.205a4.695 4.695 0 0 0 .281 2.414h-.483s-2.853-9.386-3.195-11.251c-.351-1.865-2.432-8.01-1.879-12.288.359-2.747 1.949-2.833 1.949-2.833l-.016.008Z" clip-rule="evenodd"/><path fill="#78769D" fill-rule="evenodd" d="M50.571 48.635c.507-2.608 2.354-4.442 4.13-4.094 1.778.349 2.806 2.748 2.3 5.355-.507 2.608-2.354 4.442-4.13 4.094-1.778-.348-2.807-2.747-2.3-5.355Z" clip-rule="evenodd"/><path fill="#160D3B" fill-rule="evenodd" d="M51.99 49.293s.802-3.142 2.571-2.933c1.77.209 1.707 2.414 1.707 2.414l-1.91 1.138 1.458 1.246s-.28 1.865-2.26 1.756c-1.98-.1-1.567-3.621-1.567-3.621Z" clip-rule="evenodd"/><path fill="#78769D" fill-rule="evenodd" d="M74.108 54.988c.506-2.608 2.353-4.442 4.13-4.093 1.777.348 2.806 2.747 2.3 5.354-.507 2.608-2.354 4.442-4.131 4.094-1.777-.348-2.806-2.747-2.3-5.355Z" clip-rule="evenodd"/><path fill="#160D3B" fill-rule="evenodd" d="M75.768 55.267s.802-3.142 2.572-2.933c1.777.209 1.706 2.414 1.706 2.414l-1.909 1.138 1.457 1.245s-.28 1.865-2.26 1.757c-1.98-.1-1.566-3.621-1.566-3.621Z" clip-rule="evenodd"/><path fill="#78769D" fill-rule="evenodd" d="M44.344 56.087c.21-1.702 1.426-2.956 2.72-2.801 1.294.155 2.166 1.664 1.956 3.374-.21 1.702-1.426 2.956-2.72 2.801-1.294-.155-2.167-1.664-1.956-3.374ZM80.265 65.404c.382-1.687 1.91-2.856 3.398-2.608 1.488.247 2.385 1.818 2.003 3.505-.382 1.687-1.91 2.856-3.398 2.608-1.489-.248-2.385-1.819-2.003-3.505ZM60.858 55.127c.421-.727 1.497-.55 1.707-.55.21 0 1.325.999 1.325.999s1.668-.998 2.54.14c.866 1.137-.732 2.592-1.737 2.862a7.906 7.906 0 0 0-1.707.69s-.623-.898-1.317-1.626c-.694-.727-1.216-1.795-.803-2.523l-.008.008Z" clip-rule="evenodd"/><path fill="#78769D" fill-rule="evenodd" d="m62.698 58.818.865.07s-.413 1.517-.483 1.865c-.07.348-.172 1.037-.172 1.037s6.017 1.671 8.48 2.484c3.756 1.246 9.072 5.146 9.072 5.146s-1.497 2.553-6.399 5.215c-4.941 2.678-9.773 2.902-14.184 1.347-4.248-1.494-4.825-1.826-8.62-5.278-5.074-4.627-6.258-10.214-6.258-10.214s6.047-.658 9.001-.279c2.954.38 8.137 1.316 8.137 1.316l.553-2.693.008-.016Z" clip-rule="evenodd"/><path fill="#160D3B" fill-rule="evenodd" d="M67.218 63.825s4.17 1.177 6.188 2.144c2.019.967 5.877 3.382 5.877 3.382s-2.385 3.087-5.004 4.349c-3.444 1.656-6.118 2.244-6.118 2.244s-4.31-2.833-7.06-3.282c-2.744-.448-6.742-.07-6.742-.07s-3.398-3.149-5.495-5.973c-2.642-3.552-2.883-5.765-2.883-5.765s6.5-.14 7.855.03c1.357.171 3.718.24 3.718.24l.974 5.696s1.458.898 3.578 1.308c2.58.503 3.826.449 3.826.449l1.286-4.767v.015Z" clip-rule="evenodd"/><path fill="#78769D" fill-rule="evenodd" d="m58.598 61.442 3.507.828-.241 5.038s-2.712-.798-2.712-.93c0-.13-.554-4.936-.554-4.936ZM62.87 62.44l3.475 1.076-.865 4.31-2.922-.34.311-5.046Z" clip-rule="evenodd"/><path fill="#160D3B" d="m61.864 67.308.241-5.038.764.17-.312 5.046-.693-.178Z"/><path fill="#160D3B" fill-rule="evenodd" d="M54.943 72.972s4.73-.14 6.671.418c1.949.55 5.596 2.623 5.596 2.623s-1.114.998-6.43-.518c-5.315-1.517-5.837-2.523-5.837-2.523Z" clip-rule="evenodd"/><path fill="#78769D" fill-rule="evenodd" d="m45.474 80.517 4.216-.093 1.247-.666s-.577 4.473-.764 5.425c-.195.952-.093 4.472-.093 4.472l2.392-.858-.288-8.373 2.681-.093s.288 1.33.288 2.097c0 .766-.194 10.563-.194 10.942 0 .38.958 3.993.958 3.993s-2.299-1.525-2.97-1.424c-.67.093-.763-.38-.763-.38l.288-4.186-2.01.093.483 5.618s-1.536.759-2.3 1.045c-.763.286-2.111.38-2.111.38s.483-7.043.288-10.656c-.195-3.614-1.34-7.329-1.34-7.329l-.008-.007ZM77.864 86.034l3.928.573.382 5.239s2.01-1.904 2.494-2.763c.476-.859.67-1.996.67-1.996s1.536-.093 1.723.48c.195.572.475 1.617.475 1.617s-3.258 3.327-3.64 3.9c-.381.572-1.052 1.524-1.052 2.19 0 .665-.194 3.993-.194 3.993h-3.64s1.629-5.046 1.535-5.897c-.093-.859-1.052-3.428-1.052-3.428l-1.247-2.383-.382-1.525ZM46.238 100.025s6.998-.766 8.05-1.053c1.053-.286 2.588-.379 2.588-.379l1.917-.093.764 3.901-3.928.092s-1.052 6.57-.577 8.752c.484 2.19 1.053 4.187 1.053 4.187s-2.393-.48-3.258-.666c-.865-.185-2.011-.758-2.011-.758s.959-5.332.959-8.087c0-2.754.093-3.428.093-3.428l-3.74.287s-1.154-1.432-1.536-1.811c-.382-.379-.382-.952-.382-.952l.008.008ZM67.226 100.69s3.835.093 4.7.093c.865 0 1.823-.286 1.823-.286s.484 1.71.484 2.097-.195 1.145-.195 1.145-1.917-1.045-2.494-1.045h-1.442l-.094 2.283s1.053-.193 1.63-.573c.576-.379 1.051-.479 1.051-.479s0 1.331.195 1.996c.195.666.094 1.238.094 1.238l-2.011-.572-.865.193.288 2.948s.382.666.865.666c.484 0 1.34-.573 1.34-.573l.96-.758s.576 1.145.67 1.617c.093.472.288 1.71.288 1.71l-5.557.093-1.247-.758s.67-3.235.577-4.666c-.094-1.432-.195-3.042-.195-3.042l-.865-3.327ZM75.246 102.215s3.834.093 4.7.093c.864 0 1.823-.287 1.823-.287s.475 1.711.475 2.098c0 .386-.187 1.145-.187 1.145s-1.917-1.045-2.494-1.045h-1.442l-.093 2.283s1.052-.194 1.629-.573c.577-.379 1.052-.472 1.052-.472s0 1.331.195 1.997c.195.665.093 1.238.093 1.238l-2.01-.573-.865.194.288 2.948s.382.665.865.665 1.34-.572 1.34-.572l.96-.759s.576 1.146.67 1.618c.093.48.288 1.71.288 1.71l-5.557.093-1.247-.759s.67-3.234.576-4.666c-.093-1.431-.194-3.049-.194-3.049l-.865-3.327ZM38.857 114.774s6.422.286 7.287-.093c.865-.379 2.587-1.145 2.587-1.145l1.341.286-.094 4.666s-.093-1.045-2.587-1.238c-2.494-.193-3.928.193-3.928.193l.288 2.662.764 3.235 2.876-.952.288-2.662s1.442 1.904 1.63 2.755c.194.859 1.051 3.235 1.051 3.235s-2.4-1.238-3.35-.952c-.96.286-2.3.286-2.3.286s1.154 4.001 1.824 4.759c.67.759 1.917 3.707 1.917 3.707s-2.01-.186-2.876.572c-.865.767-1.153 1.904-1.153 1.904l-1.723-1.238s-.764-10.184-1.34-12.466c-.577-2.283-1.918-5.618-1.918-5.618l-.576-.472v-1.432h-.008v.008ZM58.7 118.109s.764 0 1.917-.193c1.153-.194 1.629.093 1.629.093l.288 1.617s-.576 1.996-.382 4.852c.195 2.855.764 5.424.764 5.424s-1.434.859-1.824.952c-.381.093-1.823-.193-1.823-.193s.093-4.566-.094-7.808c-.195-3.235-.475-4.759-.475-4.759v.015ZM63.89 117.474s3.835.163 4.692.178c.865.016 1.824-.255 1.824-.255s.452 1.718.444 2.097c0 .379-.21 1.138-.21 1.138s-1.902-1.084-2.471-1.092c-.577-.007-1.442-.023-1.442-.023l-.133 2.283s1.06-.17 1.637-.542c.585-.371 1.06-.456 1.06-.456s-.023 1.331.156 2.004c.18.673.078 1.238.078 1.238l-2.003-.603-.865.178.234 2.956s.374.673.85.681c.475 0 1.347-.55 1.347-.55l.975-.743s.553 1.153.639 1.625c.085.48.257 1.718.257 1.718h-5.557l-1.231-.781s.724-3.227.654-4.651c-.07-1.432-.14-3.049-.14-3.049l-.803-3.343.008-.008ZM71.832 118.396h2.4s1.723 4.952 1.918 5.618c.194.665.958 2.948.958 2.19 0-.759-.475-5.518-.475-5.998 0-.479-.577-2.569-.577-2.569s1.535-.185 1.824.194c.288.379 1.153 1.431 1.153 1.431s-.764 4.945-.576 6.377c.194 1.431.288 4.186.288 4.186l-2.782.186-.865-1.045s-.382-3.428-.577-4.38c-.195-.952-.764-1.811-.764-1.811s-.195 4.473-.094 5.711c.094 1.238.195 2.19.195 2.19l-2.112-.093-.577-1.524s.289-1.145.67-4.852c.383-3.707 0-5.804 0-5.804l-.007-.007ZM88.892 118.016s.865-.952 2.011-.665c1.153.286 2.681 1.524 2.681 1.524v-1.424l1.434.286s-.195 2.283-.195 2.763-.093 1.331-.093 1.331l-1.34-1.238s-2.113-2.283-2.877-.758c-.764 1.524 1.63 3.234 2.206 3.714.577.48 2.494 2.569 2.112 4.093-.382 1.525-2.588 2.57-4.03 2.283-1.433-.286-3.639.287-3.452-.665.195-.952.382-2.569.382-2.569l1.153-.859s.188 1.431.476 1.903c.288.48 2.68.859 3.258-.665.576-1.525-2.611-3.173-3.835-4.566-2.01-2.283.094-4.472.094-4.472l.015-.016ZM93.171 116.143l-.086-2.383-.857.031-.016-.488 2.292-.077.023.48-.857.031.078 2.383-.577.023ZM94.98 116.082l-.102-2.871.873-.031.592 1.942.452-1.981.873-.031.101 2.871-.537.023-.086-2.259-.491 2.275-.561.023-.655-2.244.078 2.26-.538.023ZM67.709 87.938s2.01.193 2.01 1.71-1.153 2.476-1.153 2.476l-1.052.952.187-5.138h.008Zm-2.876-2.856s3.741-.379 4.793 1.331 1.917 1.997 2.011 3.614c.094 1.617-1.247 3.428-1.824 3.707-.576.286-2.01.48-2.01.48l.194 3.9s-2.205.572-2.782.572-1.34-.093-1.34-.093 1.434-1.617 1.34-3.807c-.094-2.19-.577-7.707-.577-7.707l.195-1.997Z" clip-rule="evenodd"/><path fill="#78769D" fill-rule="evenodd" d="M74.622 87.907s2.01.193 2.01 1.71-1.153 2.476-1.153 2.476l-1.052.952.195-5.138Zm-2.876-2.856s3.741-.379 4.793 1.331c1.052 1.718 1.918 2.005 2.011 3.614.094 1.618-1.247 3.428-1.824 3.715-.576.286-2.01.48-2.01.48l.195 3.9s-2.206.572-2.783.572-1.34-.093-1.34-.093 1.441-1.617 1.34-3.807c-.093-2.19-.577-7.707-.577-7.707l.195-1.997v-.008ZM59.845 88.131l.764 2.376-1.434.093.67-2.477v.008Zm-2.205-5.424 2.876 1.33 1.052.86s.475 7.521.958 8.566c.476 1.044.959 3.234.959 3.234s-1.722.194-2.393.38c-.67.185-1.247.092-1.247.092s.67-3.048.67-3.52c0-.473.094-1.332.094-1.332l-2.112-.092.195 4.093-2.588.194-.093-2.477s1.052-3.327 1.434-5.23c.382-1.904.475-3.808.475-3.808l-.475-.758.195-1.525v-.007ZM62.721 103.925s1.723.573 1.723 1.997c0 1.423-1.723 3.234-1.723 2.762v-4.759Zm-2.01-3.235s3.164.093 4.216 1.811c1.052 1.71 1.824 1.238 1.629 3.807-.195 2.57-2.011 3.142-2.011 3.142s1.247 1.997 1.535 2.384c.289.379 1.34 1.996 1.34 1.996l-2.01.573s-1.153-1.618-1.34-2.283c-.195-.666-.289-2.097-.289-2.097l-.958-.379s0 2.19.382 2.855c.381.666.576 2.19.576 2.19l-3.452-1.524v-8.853c0-1.145.093-3.041.093-3.041l.289-.573v-.008ZM53.485 119.386s1.723.573 1.723 1.996c0 1.424-1.723 3.235-1.723 2.763v-4.759Zm-2.01-3.235s3.164.093 4.216 1.811 1.824 1.238 1.629 3.807c-.195 2.569-2.01 3.142-2.01 3.142s1.246 1.997 1.534 2.383c.289.38 1.341 1.997 1.341 1.997l-2.01.573s-1.154-1.618-1.341-2.283c-.195-.666-.289-2.097-.289-2.097l-.958-.379s0 2.189.382 2.855c.381.665.576 2.19.576 2.19l-3.452-1.525v-8.852c0-1.145.093-3.049.093-3.049l.289-.573ZM82.657 119.347s2.783.48 2.783 3.235-2.393 5.231-2.3 4.186c.094-1.044-.475-7.428-.475-7.428l-.008.007Zm-3.07-2.662s4.317-.472 5.081.194c.764.665 2.97 2.948 2.876 6.283-.093 3.328-2.494 5.046-2.876 5.332-.382.286-4.886.665-4.886.665s.194-6.182 0-7.993c-.195-1.811-.67-3.328-.67-3.328l.475-1.145v-.008Z" clip-rule="evenodd"/></g><defs><clipPath id="a"><path fill="#fff" d="M38.857 0h58.912v136H38.857z"/></clipPath></defs></svg>