<svg xmlns="http://www.w3.org/2000/svg" width="136" height="136" fill="none"><g clip-path="url(#a)"><path fill="#78769D" d="M47.728 39.38a3.972 3.972 0 0 1-.073.24c-3.205 10.79.394 23.82 1.133 25.618h-5.989c.556-1.677 1.261-5.865.987-13.304l-5.314.54.024.6a68.32 68.32 0 0 0 .223 3.318c.497 7.478 2.508 9.659 2.94 10.095h-6.416a3.11 3.11 0 0 0 .274-.924c.282-1.836.601-4.687.673-9.034 0 0 .046-2.023.03-2.895-.58-2.015-1.878-2.029-1.878-2.029s1.832-.066 1.8-1.655c-.012-.61-.319-1.453-.17-2.036.067-.26.455-.492.465-.75.008-.219-.345-.491-.432-.729-.335-.911-.173-2.073-.338-3.025-.257-1.488-.641-3.055-1.59-4.391h6.152c-.645.928-1.954 3.84-1.796 12.066l5.31-.54c-.496-12.505-1.473-13.624-1.473-13.624l6.518-.007a7.57 7.57 0 0 0-.71 1.383c-.124.363-.24.723-.35 1.083Zm25.99 9.413s1.344-.71.95-2.878c-.344-1.892-1.414-2.918-2.618-2.877-.79.026-1.245.77-1.315 1.823-.07 1.054-.324 7.072-.047 13.334.215 4.818 1.59 6.095 2.215 6.429h-7.47a2.906 2.906 0 0 0 1.2-1.004c.125-.225.244-.48.353-.766a2.47 2.47 0 0 1 .089-.25 9.23 9.23 0 0 0 .426-2.153c.281-3.251-.227-8.416-.158-13.583.07-5.167-2.829-3.616-3.167-3.364-1.349 1.003-1.043 3.586-.394 4.275 0 0-.904 0-1.506-.87-.18-.26-1.48-2.712.348-5.386h13.038c.307.647.617 1.598.72 2.913.209 2.655-1.158 3.951-2.664 4.357Zm13.992-.761s1.259-1.461.677-2.848c-.58-1.388-1.805-2.081-3.514-1.908-1.71.173-2.355 1.709-2.419 3.815-.038 1.24-.054 2.497-.058 4.362 3.201.077 3.412-3.175 3.412-3.175 1.258 3.79.161 7.705.161 7.705s-.389-3.03-3.574-3.285c0 1.05.003 2.275.007 3.746.002.987-.207 6.335 2.611 6.335 3.54 0 3.891-4.468 2.404-6.113 0 0 2.97.16 2.601 4.023-.153 1.601-.61 2.598-1.002 3.18H77.262c.616-.309 1.555-.935 2.01-2.026.063-.179.124-.37.182-.573.032-.144.063-.262.093-.358.345-1.419.525-3.414.315-6.203-.354-2.745-1.91-2.761-1.91-2.761s1.246-.046 1.577-.986c-.347-3.952-.65-6.363-2.777-8.708h13.072c.277.546.477 1.28.467 2.26-.032 3.047-2.58 3.518-2.58 3.518Zm15.037 17.002H91.094c.85-.87 2.043-3.042 1.821-8.307l-.028-.006-.042-2.83c-.133-5.028.354-9.846-1.737-12.727h7.016c-.469.314-1.205.995-1.685 2.37-.42 1.2-.55 2.505-.7 3.74-.112.938-.19 1.878-.248 2.82-.022.357.148 1.185-.067 1.487-.198.278-.905.317-.988.615-.114.416.831.569 1.163.588-.695.907-.234 2.355-.218 3.396 0 0 .01.818.011 1.26.002 1.015-.207 6.512 2.612 6.512 3.539 0 3.89-4.593 2.403-6.284 0 0 3.198.135 3.233 4.118.013 1.558-.425 2.59-.893 3.248ZM38.431 97.07c-.727.775-1.828 1.163-2.782 1.283-4.653.581-7.105-1.862-8.735-4.73-2.08-3.659-3.486-7.535-5.327-11.266-.183 0 3.627-.707 3.733-6.985.11-6.476-3.147-6.335-3.147-6.335s-1.244 6.59-.879 13.773c.366 7.183 1.209 9.942 1.209 9.942l-.18.014h-5.577c.344-.44.71-1.116.985-2.151.105-.496.21-1.053.313-1.676a7.06 7.06 0 0 1 .086-.545c.138-.677.07-1.374.12-2.057.051-.741.338-1.424.379-2.155.85.082-.044-.607-.16-.773.047.067.144-.702.144-.752 0-.351.113-.705.126-1.057.044-1.142.063-2.285.061-3.428-.006-4.242.545-9.333-1.687-10.633.052.03.52-.09.603-.1 1.964-.262 4.097-.035 5.898.62 1.048.38 1.994.923 2.743 1.607.392.358 2.082 2.176 1.526 2.563a.559.559 0 0 0 .269.3c-.164.17-.458.292-.734.31a.383.383 0 0 0-.012.258c.283-.033.876.105.988.31.139.254.006.69.021.973.02.363.017.724-.011 1.088-.314 4.105-2.617 6.139-4.376 6.78.028-.01 3.063 5.058 3.237 5.353a291.138 291.138 0 0 1 3.08 5.329c.218.385.455.782.726 1.167.789 1.12 1.858 2.137 3.525 2.492.8.171 2.034.051 2.743-.26.87-.386.984-.787 1.044-1.536.853.426.589 1.7.048 2.277Zm90.735-15.756c-1.075-5.33-1.54-7.441-1.731-8.258-.286 2.139-.79 6.098-1.205 10.138l3.229-.317a65.454 65.454 0 0 0-.293-1.563Zm.764 11.198c.144-.727.433-3.572-.212-8.023l-3.652.358c-.079.84-.151 1.67-.217 2.48-.475 5.925 1.358 7.345 1.973 7.653h-6.396c.401-.798 1.436-3.145 2.28-7.595.37-3.025-1.473-3.213-1.473-3.213s1.973-.078 2.201-1.551l.015.025c.665-4.459 1.296-8.19 1.42-10.48.17-2.916-2.337-3.321-2.337-3.321l.025-.05h7.484c-.138 0-.187 2.969-.187 3.154-.002.91.106 1.823.096 2.733-.006.443.062.515-.258.823-.199.192-.773-.042-.809.362-.053.608 1.01.527 1.468.393.159.814-.059 1.71.072 2.565.172 1.097.378 2.191.612 3.282 1.47 6.811 3.236 9.714 3.965 10.405h-6.07ZM99.193 80.663c-.999-5.067-1.432-7.076-1.61-7.852a342.608 342.608 0 0 0-1.12 9.64l3.004-.302a60.1 60.1 0 0 0-.274-1.486Zm.712 10.063c.134-.691.402-2.814-.197-7.044l-3.397.34c-.073.798-.142 1.589-.202 2.358-.528 6.74 2.017 7.35 2.017 7.35l-6.29.228s1.283-2.152 2.28-7.523c.344-2.876-1.37-3.055-1.37-3.055s1.835-.074 2.047-1.475l.014.024c.619-4.24 1.205-7.787 1.32-9.963.16-2.773-2.173-3.158-2.173-3.158l.024-.048h6.959c-.165 1.225-.561 5.608.926 12.657 1.367 6.476 3.009 8.652 3.688 9.31h-5.646Zm17.175-21.928c-.41.102-1.522.471-2.1 1.585-.121.31-.233.668-.328 1.08a2.45 2.45 0 0 1-.099.477c-.149.826-.236 1.845-.218 3.099.09 6.135.191 18.496.191 18.496l-6.97-16.615v10.419c0 2.153 1.002 3.088 1.607 3.456h-4.857c.113-.19.22-.397.313-.628.076-.225.153-.467.228-.728.033-.144.067-.263.099-.36.527-1.98.957-4.927.84-9.17-.237-8.646-2.191-10.625-3.358-11.161h5.623l4.565 11.409s-.081-5.487.01-7.985a4.64 4.64 0 0 0-1.245-3.374h5.699ZM35.337 80.914c-.999-5.067-1.43-7.075-1.61-7.851a342.517 342.517 0 0 0-1.119 9.639l3.003-.302a59.801 59.801 0 0 0-.274-1.486Zm.713 10.064c.134-.691.402-2.813-.198-7.044l-3.396.34c-.074.797-.142 1.588-.202 2.358-.529 6.74 2.016 7.35 2.016 7.35l-6.29.228s1.284-2.153 2.28-7.523c.344-2.877-1.37-3.055-1.37-3.055s1.835-.075 2.047-1.475l.014.024c.619-4.24 1.206-7.787 1.32-9.964.16-2.772-2.173-3.157-2.173-3.157l.024-.049h6.96c-.166 1.226-.561 5.609.926 12.657 1.367 6.476 3.008 8.653 3.687 9.31H36.05ZM52.924 69.05c-.4.1-1.48.47-2.042 1.585-.118.309-.227.667-.32 1.08a2.6 2.6 0 0 1-.095.476c-.146.827-.23 1.845-.213 3.1.088 6.134.185 18.496.185 18.496l-6.78-16.615V87.59c0 2.153.975 3.087 1.563 3.455h-4.724c.11-.19.213-.397.303-.627.076-.225.15-.468.224-.73.032-.143.064-.262.096-.358.512-1.98.931-4.928.817-9.17-.232-8.647-2.132-10.625-3.268-11.162h5.471l4.44 11.41s-.078-5.488.01-7.985a4.702 4.702 0 0 0-1.212-3.374h5.545Zm20.262 1.465-.026.05-.03.058-.033.06a2.108 2.108 0 0 1-.037.073c-.627 1.208-1.446 2.921-2.475 5.327-1.04 2.433-1.626 3.811-1.95 4.57-.01 3.263-.004 6.329.042 7.346.179 3.863 1.223 5.194 1.86 5.65h-6.304c.254-.134.516-.326.734-.607.118-.186.233-.397.34-.636.04-.114.077-.2.11-.263.215-.558.385-1.252.463-2.116.093-1.023.039-5.315-.029-9.34-.596-1.434-1.82-4.434-2.526-6.546-.921-2.758-2.296-4.096-3.584-4.52h.46c.84.05 1.685.039 2.453 0h3.008c-.577 2.616 2.131 9.545 2.131 9.545s1.357-3.761 1.955-6.843c.457-2.36-.712-3.887-.99-4.21h6.863l.027.129s-1.613.733-2.462 2.273Zm10.967 21.878h-11.27c.391-.143.926-.474 1.31-1.24a6.98 6.98 0 0 0 .206-.504c.017-.048.032-.093.048-.134.441-1.271.757-3.195.638-6.093l-.027-.007c0-.036-.038-2.685-.04-2.72-.118-4.655.299-9.121-1.42-11.918h6.27l.005.009s-1.15.765-1.68 2.721c-.065.29-.129.606-.19.946-.02.147-.041.269-.063.368-.362 2.193-.62 5.401-.547 10.074 0 0 .01.786.01 1.21.003.976-.193 6.26 2.444 6.26 3.312 0 3.642-4.414 2.25-6.04 0 0 2.736.125 2.769 3.953.012 1.49-.338 2.481-.713 3.115Zm5.478-25.412h6.032a2.977 2.977 0 0 0-.867.954c-.089.173-.18.362-.272.57a2.16 2.16 0 0 1-.078.183c-.514 1.213-1.07 3.02-1.552 5.707-1.327 7.418-4.645 21.33-4.645 21.33a2982.68 2982.68 0 0 0-4.101-17.276v-.004c-.129-.53-.322-1.046-.483-1.57-.068-.214-.276-.581-.235-.798.041-.211.288-.228.336-.404.061-.23.307-.604.158-.851-.164-.274-.513-.17-.714-.385-.24-.258-.261-.619-.356-.93a20.245 20.245 0 0 0-.957-2.496c-.35-.77-.767-1.918-1.584-2.54h6.825c-1.715 4.698 1.841 16.901 1.841 16.901s1.883-10.157 1.904-14.156c.017-3.345-.94-4.084-1.252-4.235Zm33.069 2.47a3.997 3.997 0 0 0-.917 1.24c-.075.175-.147.35-.216.525-.015.04-.029.078-.044.111-1.479 3.842-1.402 7.47-1.386 10.436.039 7.102 1.7 9.199 2.087 9.591h-5.511c.102-.214.19-.478.234-.799.275-1.797.593-4.87.593-9.483 0-8.148.029-9.839-1.214-11.62h6.374Zm-64.296 6.395c1.64-1.247 1.316-3.576.358-4.963-.962-1.394-2.952-1.449-3.63.956-.678 2.404 2.473 6.442 3.192 7.706.297.523 1.05 1.116 1.19 1.66.188.721-1.051.642-.925 1.156.156.638 1.316-.026 1.65-.14.714 1.813 1.671 3.39 1.675 5.37.01 4.624-3.112 6.135-5.625 6.135s-4.587-1.634-4.388-4.555c.199-2.921 3.39-3.121 3.39-3.121s-1.236.123-1.435 2.497c-.2 2.373 1.236 3.298 1.675 3.39.439.093 2.433.216 2.952-2.25.518-2.465-.797-4.285-4.11-9.49-3.31-5.204-2.485-9.129.6-11.01 1.885-1.148 4.926-1.807 4.926-1.807s1.496 2.61 1.496 4.428-.558 3.73-2.991 4.038Zm-43.818-2.953s1.434-.953 1.013-3.12c-.366-1.892-1.961-2.772-3.246-2.531-.843.158-1.328.998-1.402 2.095-.04.588-.178 16.831-.05 19.62.297 6.446 2.687 6.737 2.687 6.737s-6.552.278-8.685.55c0 0 2.42-.61 2.81-4.965.223-2.48.05-5.008.016-7.49-.023-1.76-.053-3.517-.085-5.276-.013-.806-.028-1.612-.042-2.417-.006-.31-.148-.833-.013-1.124.044-.095.87-.622.697-.709-.976-.493-.752-1.603-.741-2.38.074-5.332-3.925-3.255-4.285-2.94-1.438 1.255-.435 5.114.258 5.716 0 0-1.831-.417-2.582-1.739-.162-.285-2.418-3.265.72-6.858 6.6 1.066 14.215-2.007 14.215-2.007s1.314.96 1.557 3.911c.223 2.7-1.236 4.26-2.842 4.927Zm43.793-19.991c-.506-5.763-2.3-10.365-4.006-10.276-1.706.088-2.68 4.832-2.175 10.596.094 1.067.758 2.323.327 3.382-.173.425-.763.748-.768 1.197-.004.522.667.778 1.028 1.118.882.826 1.424 4.682 3.419 4.578 1.706-.088 2.68-4.832 2.175-10.595ZM55.289 64.6c-3.616 0-6.546-5.166-6.546-11.538 0-6.373 2.93-11.54 6.545-11.54 3.616 0 6.546 5.167 6.546 11.54 0 6.372-2.93 11.538-6.546 11.538Z"/></g><defs><clipPath id="a"><path fill="#fff" d="M0 36.914h136v61.524H0z"/></clipPath></defs></svg>